<?xml version="1.0" encoding="utf-8" ?>
<svg xmlns="http://www.w3.org/2000/svg" xmlns:xlink="http://www.w3.org/1999/xlink" width="1024" height="1024">
	<path fill="#1A1817" transform="scale(2 2)" d="M302.419 273.682C303.012 274.706 303.687 275.735 304.145 276.827L303.65 276.742C303.469 276.41 303.333 276.139 303.072 275.862L302.419 276.827L301.196 274.466L302.419 273.682Z"/>
	<path fill="#868485" transform="scale(2 2)" d="M213.275 386.161C214.005 384.939 215.069 384.313 216.384 383.857C217.153 384.277 221.448 383.67 220.605 384.657C218.166 385.134 215.679 385.535 213.275 386.161Z"/>
	<path fill="#C4C3C3" transform="scale(2 2)" d="M216.384 383.857C219.862 382.204 225.778 382.541 229.558 382.989C226.56 383.841 223.7 384.334 220.605 384.657C221.448 383.67 217.153 384.277 216.384 383.857Z"/>
	<path fill="#868485" transform="scale(2 2)" d="M309.175 392.293L309.175 392.778C304.373 395.786 298.59 397.486 293.13 398.92L293.186 398.664C294.072 397.769 296.928 397.227 298.245 396.626L298.255 396.459C296.55 396.806 294.885 397.446 293.13 397.111C298.661 395.88 303.949 394.54 309.175 392.293Z"/>
	<path fill="#040404" transform="scale(2 2)" d="M187.968 130.192C188.877 125.726 194.6 119.003 198.711 117.502L198.711 119.109C196.728 119.922 195.342 121.484 194.095 123.178C192.409 125.413 191.038 127.679 189.801 130.192C189.192 130.521 188.742 131.012 188.175 131.399L187.878 131.188L187.968 130.192Z"/>
	<path fill="#040404" transform="scale(2 2)" d="M319.154 331.576C319.618 330.133 319.132 329.194 321.011 329.506C321.252 334.882 321.243 340.418 321.011 345.795C320.312 344.814 320.355 343.531 320.225 342.372C318.626 339.478 319.006 334.783 319.154 331.576Z"/>
	<path fill="#040404" transform="scale(2 2)" d="M290.736 258.694C290.982 258.366 291.168 257.953 291.369 257.593L291.682 257.836C295.472 263.21 299.314 267.803 302.419 273.682L301.196 274.466C297.969 268.518 293.508 263.658 290.736 258.694Z"/>
	<path fill="#C4C3C3" transform="scale(2 2)" d="M170.958 248.417C171.535 248.878 178.837 260.112 179.418 261.257C179.071 263.519 178.242 265.973 177.107 267.964L176.973 267.838C174.848 269.133 178.257 263.734 178.481 263.149L178.592 262.848C175.714 258.068 171.835 254.158 170.958 248.417Z"/>
	<defs>
		<linearGradient id="gradient_0" gradientUnits="userSpaceOnUse" x1="164.78893" y1="222.31953" x2="164.70241" y2="219.66446">
			<stop offset="0" stop-color="#3E3A3D"/>
			<stop offset="1" stop-color="#666564"/>
		</linearGradient>
	</defs>
	<path fill="url(#gradient_0)" transform="scale(2 2)" d="M149.674 228.124C153.783 222.321 163.247 219.913 169.962 219.013C170.502 219.516 170.717 219.769 170.958 220.494C159.996 221.55 158.028 224.357 149.674 228.124Z"/>
	<path fill="#C4C3C3" transform="scale(2 2)" d="M170.958 139.43C171.355 141.206 167.958 171.429 167.781 171.834C166.193 167.141 169.073 146.255 170.958 139.43Z"/>
	<defs>
		<linearGradient id="gradient_1" gradientUnits="userSpaceOnUse" x1="349.3089" y1="274.84955" x2="347.08511" y2="275.03281">
			<stop offset="0" stop-color="#110F0E"/>
			<stop offset="1" stop-color="#454447"/>
		</linearGradient>
	</defs>
	<path fill="url(#gradient_1)" transform="scale(2 2)" d="M348.042 262.018L349.547 262.018C346.883 269.701 347.904 280.93 350.923 288.377L349.547 288.377C346.846 280.111 345.332 270.443 348.042 262.018Z"/>
	<path fill="#C4C3C3" transform="scale(2 2)" d="M137.707 221.813C139.357 222.448 134.673 238.709 149.674 237.541C147.762 239.952 146.572 242.179 145.647 245.128L145.469 245.592L145.343 245.552C145.14 243.137 146.01 241.265 147.346 239.349C138.794 240.727 135.23 229.304 137.707 221.813Z"/>
	<path fill="#AFADAD" transform="scale(2 2)" d="M309.175 392.293C321.568 382.769 332.616 391.034 353.068 371.021C353.358 370.736 353.249 370.83 353.681 370.679L353.618 370.815L353.21 370.872L353.277 370.831L353.457 371.182C350.636 373.355 348.421 376.228 345.553 378.373C334.436 386.687 328.154 386.322 316.492 389.814C313.944 390.577 311.676 391.932 309.175 392.778L309.175 392.293Z"/>
	<defs>
		<linearGradient id="gradient_2" gradientUnits="userSpaceOnUse" x1="188.1669" y1="284.00922" x2="183.12007" y2="280.27899">
			<stop offset="0" stop-color="#040402"/>
			<stop offset="1" stop-color="#414040"/>
		</linearGradient>
	</defs>
	<path fill="url(#gradient_2)" transform="scale(2 2)" d="M173.335 301.722C174.177 290.047 190.194 270.962 196.772 261.257C198.78 262.949 197.752 261.916 197.789 263.873L196.772 265.491C189.542 275.386 175.564 291.639 174.834 303.596C174.375 303.58 173.933 303.623 173.48 303.558L173.335 301.722Z"/>
	<path fill="#040404" transform="scale(2 2)" d="M349.547 288.377L350.923 288.377L351 288.709C352.39 294.558 355.223 300.175 356.936 305.977C363.965 329.786 355.468 362.155 329.667 370.459L329.441 370.363L329.544 370.194L329.956 370.074L329.768 370.091L329.667 369.829C340.019 364.154 347.37 358.708 352.569 347.757C363.392 324.959 357.142 309.532 349.547 288.377Z"/>
	<path fill="#3F3E3E" transform="scale(2 2)" d="M173.335 301.722L173.48 303.558C173.933 303.623 174.375 303.58 174.834 303.596C176.04 314.309 181.216 312.791 189.801 311.327C190.223 311.339 190.611 311.33 191.033 311.283L190.635 310.997L191.491 311.07C190.894 311.478 190.308 311.838 189.801 312.358C187.832 313.745 184.326 314.244 181.964 314.752C179.069 325.225 181.206 335.391 182.96 345.795C182.899 350.167 181.154 345.447 180.734 343.941L180.346 343.766C177.05 334.092 177.948 323.692 178.592 313.71C174.207 311.022 172.488 306.863 173.335 301.722Z"/>
	<defs>
		<linearGradient id="gradient_3" gradientUnits="userSpaceOnUse" x1="309.63333" y1="303.14151" x2="315.04205" y2="301.14929">
			<stop offset="0" stop-color="#22201F"/>
			<stop offset="1" stop-color="#4F4E4E"/>
		</linearGradient>
	</defs>
	<path fill="url(#gradient_3)" transform="scale(2 2)" d="M302.419 276.827L303.072 275.862C303.333 276.139 303.469 276.41 303.65 276.742L304.145 276.827C312.575 286.887 321.258 314.779 321.011 329.506C319.132 329.194 319.618 330.133 319.154 331.576C316.253 309.892 312.857 297.2 302.419 276.827Z"/>
	<path fill="#040404" transform="scale(2 2)" d="M325.231 267.838C324.965 253.281 335.345 230.831 351.862 229.216C355.024 228.908 358.367 229.208 360.875 231.364C369.393 238.689 348.842 250.618 349.526 261.71L349.547 262.018L348.042 262.018C349.555 250.303 365.008 238.651 360.468 233.197C355.701 227.471 344.762 232.009 340.527 236.031C331.394 244.703 327.011 257.478 327.328 269.913C326.42 269.318 327.305 267.525 326.607 266.608L325.826 266.749C325.402 267.375 325.513 268.115 325.475 268.861L325.872 269.299L325.449 269.152L325.419 269.319L325.231 267.838Z"/>
	<path fill="#3F3E3E" transform="scale(2 2)" d="M325.231 267.838L325.419 269.319L325.449 269.152L325.872 269.299L325.475 268.861C325.513 268.115 325.402 267.375 325.826 266.749L326.607 266.608C327.305 267.525 326.42 269.318 327.328 269.913C326.055 293.204 348.006 314.13 337.896 338.909C334.142 348.112 328.652 353.206 319.154 355.988C319.212 355.087 319.411 354.938 320.225 354.574C328.198 350.604 332.666 346.923 335.991 338.144C345.683 312.56 322.197 291.216 325.231 267.838Z"/>
	<path fill="#C4C3C3" transform="scale(2 2)" d="M293.13 398.92C276.791 405.798 246.846 405.346 229.526 404.845C217.524 404.498 211.537 404.032 199.609 405.693C184.024 407.862 161.081 410.699 149.737 396.871C143.434 389.188 138.826 378.479 139.731 368.514L140.053 368.256L139.798 368.147L139.916 367.884L139.994 367.98C139.802 368.202 140.979 375.295 141.233 376.275C147.26 399.525 170.925 406.119 192.078 403.219C208.489 400.969 216.18 400.586 232.626 401.424C241.636 401.883 251.108 402.235 260.116 401.785C271.573 401.213 282.467 397.93 293.13 397.111C294.885 397.446 296.55 396.806 298.255 396.459L298.245 396.626C296.928 397.227 294.072 397.769 293.186 398.664L293.13 398.92Z"/>
	<defs>
		<linearGradient id="gradient_4" gradientUnits="userSpaceOnUse" x1="205.02917" y1="196.46016" x2="149.69591" y2="209.69714">
			<stop offset="0" stop-color="#2F2F2F"/>
			<stop offset="1" stop-color="#5F5E5F"/>
		</linearGradient>
	</defs>
	<path fill="url(#gradient_4)" transform="scale(2 2)" d="M180.835 171.834C180.833 158.436 177.421 141.676 187.968 130.192L187.878 131.188L188.175 131.399C188.742 131.012 189.192 130.521 189.801 130.192C181.598 146.198 183.623 154.077 182.96 170.091C182.439 175.296 180.329 181.095 178.005 185.784C178.728 185.883 179.036 185.822 179.575 186.334C181.066 191.37 177.052 207.97 179.418 219.013L180.346 220.494C179.718 223.16 180.796 225.769 181.964 228.124L183.088 228.287C182.827 229.446 179.034 230.424 178.005 230.994C178.689 232.33 179.483 233.51 180.346 234.732C184.562 247.31 205.157 258.226 217.271 263.873L217.271 264.621C213.65 262.676 206.673 261.646 202.111 259.547C200.434 260.808 199.282 262.437 197.789 263.873C197.752 261.916 198.78 262.949 196.772 261.257C197.587 260.212 198.13 259.019 198.711 257.836C187.631 247.159 185.16 248.368 175.253 232.967L174.988 232.928L175.242 232.98L174.905 232.667L173.335 233.396C166.518 237.019 161.073 245.859 158.938 246.918L158.585 246.657C158.067 242.746 171.001 233.193 174.22 230.994C174.223 229.655 171.57 222.188 170.958 220.494C170.717 219.769 170.502 219.516 169.962 219.013L170.852 218.782C171.151 217.863 171.064 205.754 171.318 203.243C172.525 191.334 176.536 182.701 180.835 171.834Z"/>
	<path fill="#F7F7F7" transform="scale(2 2)" d="M174.834 219.013C176.374 218.945 177.88 218.877 179.418 219.013L180.346 220.494C179.718 223.16 180.796 225.769 181.964 228.124L178.005 229.753C176.459 226.717 175.585 223.814 174.834 220.494C174.898 220.024 174.84 219.49 174.834 219.013Z"/>
	<path fill="#868485" transform="scale(2 2)" d="M174.834 219.013C176.374 218.945 177.88 218.877 179.418 219.013L180.346 220.494C178.61 220.492 176.509 220.157 174.834 220.494C174.898 220.024 174.84 219.49 174.834 219.013Z"/>
	<path fill="#F7F7F7" transform="scale(2 2)" d="M178.005 185.784C178.728 185.883 179.036 185.822 179.575 186.334C181.066 191.37 177.052 207.97 179.418 219.013C177.88 218.877 176.374 218.945 174.834 219.013C171.799 209.144 176.284 195.562 178.005 185.784Z"/>
	<defs>
		<linearGradient id="gradient_5" gradientUnits="userSpaceOnUse" x1="320.12796" y1="299.06335" x2="359.88968" y2="303.07288">
			<stop offset="0" stop-color="#D6D5D5"/>
			<stop offset="1" stop-color="#FCFCFC"/>
		</linearGradient>
	</defs>
	<path fill="url(#gradient_5)" transform="scale(2 2)" d="M327.328 269.913C327.011 257.478 331.394 244.703 340.527 236.031C344.762 232.009 355.701 227.471 360.468 233.197C365.008 238.651 349.555 250.303 348.042 262.018C345.332 270.443 346.846 280.111 349.547 288.377C357.142 309.532 363.392 324.959 352.569 347.757C347.37 358.708 340.019 364.154 329.667 369.829C326.301 369.923 310.28 373.659 313.298 368.091C316.485 365.478 318.181 359.799 319.154 355.988L319.154 355.988C328.652 353.206 334.142 348.112 337.896 338.909C348.006 314.13 326.055 293.204 327.328 269.913Z"/>
	<path fill="#FCFCFC" transform="scale(2 2)" d="M319.154 366.509C321.598 366.798 320.953 368.043 320.225 369.829C318.647 368.993 317.947 367.967 319.154 366.509Z"/>
	<path fill="#FCFCFC" transform="scale(2 2)" d="M198.711 117.502C204.213 117.805 216.77 134.636 220.605 140.673C221.59 141.965 222.566 142.841 223.923 143.72C226.687 143.978 229.407 143.519 232.122 143.72C245.049 141.752 267.556 146.669 277.846 154.232C284.635 148.492 299.587 137.806 308.115 138.218C317.16 135.11 318.104 142.686 320.225 149.693C320.787 159.81 320.006 170.412 317.104 180.13C316.018 183.767 313.923 187.241 313.328 190.983C312.327 197.274 313.082 204.762 312.464 211.356C311.675 219.765 309.627 224.625 308.115 232.253C306.738 235.698 304.315 242.288 302.419 245.128C301.589 246.376 300.367 247.207 299.548 248.417C303.658 252.445 307.282 256.62 309.944 261.758L309.911 261.891C306.778 257.575 303.635 252.923 299.548 249.44C297.758 251.53 293.973 256.58 291.682 257.836L291.369 257.593C291.168 257.953 290.982 258.366 290.736 258.694C293.508 263.658 297.969 268.518 301.196 274.466L302.419 276.827C312.857 297.2 316.253 309.892 319.154 331.576C319.006 334.783 318.626 339.478 320.225 342.372C320.355 343.531 320.312 344.814 321.011 345.795C320.373 348.318 319.277 352.026 320.225 354.574C319.411 354.938 319.212 355.087 319.154 355.988L319.154 355.988C318.181 359.799 316.485 365.478 313.298 368.091C310.28 373.659 326.301 369.923 329.667 369.829L329.768 370.091L329.956 370.074L329.544 370.194L329.441 370.363L329.667 370.459C323.994 373.666 317.696 372.174 311.571 372.513C300.383 387.171 281.281 385.701 264.253 387.604C255.959 388.531 240.812 392.412 233.467 386.833C232.433 386.048 230.654 382.949 229.558 382.989C225.778 382.541 219.862 382.204 216.384 383.857C215.069 384.313 214.005 384.939 213.275 386.161C198.821 394.831 173.285 396.951 161.026 383.731C156.397 378.74 153.021 371.694 153.261 364.797C156.3 359.283 161.502 359.102 167.208 359.563C170.654 354.131 176.494 351.189 182.96 352.56C181.974 349.721 180.773 346.744 180.346 343.766L180.734 343.941C181.154 345.447 182.899 350.167 182.96 345.795C181.206 335.391 179.069 325.225 181.964 314.752C184.326 314.244 187.832 313.745 189.801 312.358C190.308 311.838 190.894 311.478 191.491 311.07L190.635 310.997L191.033 311.283C190.611 311.33 190.223 311.339 189.801 311.327C181.216 312.791 176.04 314.309 174.834 303.596C175.564 291.639 189.542 275.386 196.772 265.491L197.789 263.873C199.282 262.437 200.434 260.808 202.111 259.547C206.673 261.646 213.65 262.676 217.271 264.621L217.271 263.873C205.157 258.226 184.562 247.31 180.346 234.732C179.483 233.51 178.689 232.33 178.005 230.994C179.034 230.424 182.827 229.446 183.088 228.287L181.964 228.124C180.796 225.769 179.718 223.16 180.346 220.494L179.418 219.013C177.052 207.97 181.066 191.37 179.575 186.334C179.036 185.822 178.728 185.883 178.005 185.784C180.329 181.095 182.439 175.296 182.96 170.091C183.623 154.077 181.598 146.198 189.801 130.192C191.038 127.679 192.409 125.413 194.095 123.178C195.342 121.484 196.728 119.922 198.711 119.109L198.711 117.502Z"/>
	<path fill="#3F3E3E" transform="scale(2 2)" d="M223.923 290.397C225.569 290.456 225.852 290.974 226.146 292.531C224.722 292.036 224.318 291.945 223.923 290.397Z"/>
	<path fill="#040404" transform="scale(2 2)" d="M226.146 287.02C226.463 288.612 228.183 288.293 227.804 290.397C226.139 289.51 225.172 288.859 226.146 287.02Z"/>
	<path fill="#686667" transform="scale(2 2)" d="M236.357 385.517C236.567 383.622 236.862 382.035 237.501 380.211L237.981 380.071L238.016 380.291L237.502 380.239L237.586 380.047L238.033 380.331C238.175 382.027 238.286 383.822 238.106 385.517C237.385 385.206 237.067 385.285 236.357 385.517Z"/>
	<path fill="#040404" transform="scale(2 2)" d="M218.614 237.541C217.307 235.678 216.579 233.619 216.865 231.326L217.208 231.494C218.129 232.98 218.577 234.617 219.218 236.232L218.53 236.449L218.614 237.541Z"/>
	<path fill="#686667" transform="scale(2 2)" d="M243.106 387.013C243.076 384.642 243.577 382.375 245.46 380.803L245.794 380.932C245.968 382.973 244.577 385.098 243.974 387.013L243.106 387.013Z"/>
	<path fill="#040404" transform="scale(2 2)" d="M234.185 239.349C237.999 238.392 239.377 236.086 241.934 233.396C241.15 236.254 239.529 239.922 236.357 240.689L235.764 240.466C235.9 239.183 235.602 239.483 234.185 239.349Z"/>
	<path fill="#1A1817" transform="scale(2 2)" d="M251.691 314.752C254.367 314.858 256.989 314.757 259.659 314.752C259.895 315.235 260.087 315.732 260.447 316.136C257.599 316.383 254.523 316.632 251.691 316.136L251.691 314.752Z"/>
	<path fill="#686667" transform="scale(2 2)" d="M320.225 342.372C320.355 343.531 320.312 344.814 321.011 345.795C320.373 348.318 319.277 352.026 320.225 354.574C319.411 354.938 319.212 355.087 319.154 355.988L319.154 355.988L317.284 355.988C318.511 351.496 319.423 346.96 320.225 342.372Z"/>
	<path fill="#AFADAD" transform="scale(2 2)" d="M241.934 148.83C245.97 150.293 248.623 150.772 252.893 149.693C254.378 150.082 255.555 150.339 256.635 151.481L256.098 151.837C250.678 151.485 245.203 152.582 242.092 149.008L241.934 148.83Z"/>
	<path fill="#C4C3C3" transform="scale(2 2)" d="M284.277 159.305C286.583 160.118 292.656 159.472 292.233 163.488L291.682 164.245C289.54 166.264 288.161 161.593 287.467 160.139C286.37 160.236 285.271 160.58 284.179 160.318L284.01 159.891L284.277 159.305Z"/>
	<path fill="#868485" transform="scale(2 2)" d="M317.284 355.988L319.154 355.988C318.181 359.799 316.485 365.478 313.298 368.091L312.952 368.091C314.305 363.923 316.492 360.51 317.284 355.988Z"/>
	<path fill="#686667" transform="scale(2 2)" d="M293.859 245.128C289.389 243.596 283.633 241.01 278.646 239.184C278.573 238.867 278.465 238.59 278.847 238.502C281.884 237.801 291.215 242.152 293.859 244.017C293.854 244.371 293.806 244.781 293.859 245.128Z"/>
	<path fill="#3F3E3E" transform="scale(2 2)" d="M308.115 232.253C306.738 235.698 304.315 242.288 302.419 245.128C301.244 245.226 301.519 246 300.333 245.009L299.548 245.128C302.467 241.13 304.204 236.741 306.187 232.253C306.38 233.995 304.917 236.108 304.373 237.783L304.637 237.996C306.566 236.901 306.338 233.761 308.115 232.253Z"/>
	<defs>
		<linearGradient id="gradient_6" gradientUnits="userSpaceOnUse" x1="260.88409" y1="323.21786" x2="260.86584" y2="320.02216">
			<stop offset="0" stop-color="#3F3C3E"/>
			<stop offset="1" stop-color="#5E5D5E"/>
		</linearGradient>
	</defs>
	<path fill="url(#gradient_6)" transform="scale(2 2)" d="M247.351 329.506C250.63 324.991 262.504 317.681 267.593 319.668L267.729 320.14C259.681 324.301 256.493 320.103 247.351 330.801C247.3 330.36 247.33 329.949 247.351 329.506Z"/>
	<path fill="#040404" transform="scale(2 2)" d="M207.98 295.237C208.518 295.558 208.778 295.701 209.024 296.29C204.128 302.917 197.89 309.771 189.801 312.358C190.308 311.838 190.894 311.478 191.491 311.07L190.635 310.997L191.033 311.283C190.611 311.33 190.223 311.339 189.801 311.327C197.231 307.295 203.477 302.549 207.98 295.237Z"/>
	<path fill="#3F3E3E" transform="scale(2 2)" d="M308.115 138.218C317.16 135.11 318.104 142.686 320.225 149.693C320.031 151.044 319.836 152.101 319.165 153.324L318.214 153.523C317.796 152.226 318.193 150.826 317.284 149.693C316.844 145.393 316.767 141.061 312.952 138.218C310.654 138.882 308.42 139.818 306.187 140.673L305.793 140.437C307.118 139.333 311.15 138.05 313.055 137.889L313.037 137.738C311.39 137.867 309.771 138.616 308.115 138.218Z"/>
	<path fill="#040404" transform="scale(2 2)" d="M218.614 140.673C219.466 140.897 220.055 141.692 220.738 142.247C220.855 141.794 220.361 141.233 220.126 140.827L220.605 140.673C221.59 141.965 222.566 142.841 223.923 143.72C226.687 143.978 229.407 143.519 232.122 143.72C233.894 143.883 238.162 142.876 238.106 145.501C233.395 145.419 228.527 145.362 223.838 145.86C221.972 146.059 219.513 147.299 217.747 147.14L217.593 146.732C218.383 145.75 221.17 145.448 222.385 145.172C220.904 143.814 219.779 142.3 218.614 140.673Z"/>
	<path fill="#040404" transform="scale(2 2)" d="M249.147 288.377C253.638 284.655 258.899 278.489 262.789 275.682C259.31 282.176 253.001 286.682 247.351 291.175C243.212 287.385 238.178 284.323 233.283 281.639L233.283 280.547C238.273 283.126 242.864 286.298 247.351 289.662L249.147 288.377Z"/>
	<path fill="#040404" transform="scale(2 2)" d="M259.659 314.752C276.689 311.821 277.059 302.897 286.442 296.29C281.314 306.729 271.298 312.997 260.447 316.136C260.087 315.732 259.895 315.235 259.659 314.752Z"/>
	<defs>
		<linearGradient id="gradient_7" gradientUnits="userSpaceOnUse" x1="213.90324" y1="358.84488" x2="214.32642" y2="366.08322">
			<stop offset="0" stop-color="#444242"/>
			<stop offset="1" stop-color="#5A5B5C"/>
		</linearGradient>
	</defs>
	<path fill="url(#gradient_7)" transform="scale(2 2)" d="M197.789 354.574C205.806 353.443 208.41 357.165 214.574 360.638C217.089 362.054 219.896 362.314 221.711 364.797L220.672 364.46C220.339 364.955 220.659 365.871 220.605 366.509C219.19 366.559 217.799 366.569 216.384 366.509C215.919 366.461 215.443 366.498 214.976 366.509C215.462 363.123 212.06 359.649 209.024 358.854L208.593 358.712C209.374 358.367 210.103 358.774 210.917 358.415C202.921 354.403 203.824 356.306 197.789 354.574Z"/>
	<path fill="#F7F7F7" transform="scale(2 2)" d="M216.384 366.509C215.763 357.983 220.035 364.303 220.605 366.509C219.19 366.559 217.799 366.569 216.384 366.509Z"/>
	<path fill="#040404" transform="scale(2 2)" d="M222.385 298.041C230.383 306.591 239.82 313.232 251.691 314.752L251.691 316.136C239.782 314.481 229.591 307.678 221.711 298.836L222.385 298.041Z"/>
	<defs>
		<linearGradient id="gradient_8" gradientUnits="userSpaceOnUse" x1="240.28008" y1="348.14771" x2="245.59151" y2="349.06964">
			<stop offset="0" stop-color="black"/>
			<stop offset="1" stop-color="#262525"/>
		</linearGradient>
	</defs>
	<path fill="url(#gradient_8)" transform="scale(2 2)" d="M247.351 329.506C247.33 329.949 247.3 330.36 247.351 330.801C238.975 344.007 240.286 354.165 245.344 367.49L245.176 367.586C244.364 367.254 243.867 365.282 243.266 364.494C242.881 364.987 243.407 365.788 243.106 366.509C238.65 355.291 238.184 338.55 247.351 329.506Z"/>
	<path fill="#3F3E3E" transform="scale(2 2)" d="M196.772 197.601C208.796 196.687 216.183 213.284 205.659 202.76C198.859 197.37 191.6 202.411 188.925 200.149L189.189 199.673C191.641 198.091 193.939 197.862 196.772 197.601Z"/>
	<path fill="#3F3E3E" transform="scale(2 2)" d="M265.856 209.805C269.124 209.6 282.395 212.783 279.988 216.608C278.322 216.71 275.11 214.013 273.517 213.156C269.85 212.122 266.262 211.578 262.658 213.267C252.378 218.083 259.552 210.941 265.856 209.805Z"/>
	<path fill="#3F3E3E" transform="scale(2 2)" d="M216.384 291.175C216.736 288.616 216.034 286.213 217.209 283.73C220.398 276.997 227.597 277.61 233.283 280.547L233.283 281.639C221.938 278.058 214.286 286.907 221.484 290.694L221.639 291.086C220.354 291.702 218.533 290.872 217.271 290.397C218.457 293.383 220.26 295.657 222.385 298.041L221.711 298.836C219.641 296.889 218.169 294.713 216.384 292.531L216.384 291.175Z"/>
	<path fill="#3F3E3E" transform="scale(2 2)" d="M198.711 117.502C204.213 117.805 216.77 134.636 220.605 140.673L220.126 140.827C220.361 141.233 220.855 141.794 220.738 142.247C220.055 141.692 219.466 140.897 218.614 140.673C213.794 138.193 203.169 119.989 198.711 119.109L198.711 117.502Z"/>
	<defs>
		<linearGradient id="gradient_9" gradientUnits="userSpaceOnUse" x1="292.6871" y1="259.81705" x2="289.43527" y2="247.96797">
			<stop offset="0" stop-color="black"/>
			<stop offset="1" stop-color="#2F3032"/>
		</linearGradient>
	</defs>
	<path fill="url(#gradient_9)" transform="scale(2 2)" d="M293.859 244.017C295.35 244.989 296.77 246.016 298.181 247.102L299.548 245.128L300.333 245.009C301.519 246 301.244 245.226 302.419 245.128C301.589 246.376 300.367 247.207 299.548 248.417C303.658 252.445 307.282 256.62 309.944 261.758L309.911 261.891C306.778 257.575 303.635 252.923 299.548 249.44C297.758 251.53 293.973 256.58 291.682 257.836L291.369 257.593C291.168 257.953 290.982 258.366 290.736 258.694C285.659 260.073 284.025 264.563 273.517 265.491L289.673 257.836C285.837 252.747 282.35 251.714 278.39 247.77L278.479 247.559C282.531 248.754 287.392 253.739 290.736 256.534L298.181 248.417C296.788 247.268 295.304 246.212 293.859 245.128C293.806 244.781 293.854 244.371 293.859 244.017Z"/>
	<defs>
		<linearGradient id="gradient_10" gradientUnits="userSpaceOnUse" x1="225.73068" y1="241.01402" x2="232.55991" y2="224.12532">
			<stop offset="0" stop-color="#201F1F"/>
			<stop offset="1" stop-color="#444343"/>
		</linearGradient>
	</defs>
	<path fill="url(#gradient_10)" transform="scale(2 2)" d="M226.915 229.753C215.894 217.409 237.514 223.693 234.916 227.173C233.895 228.541 231.085 229.04 229.558 229.753C228.818 234.513 229.194 237.83 234.185 239.349C235.602 239.483 235.9 239.183 235.764 240.466L236.357 240.689C232.007 240.879 229.894 240.442 227.804 236.232C225.631 239.165 220.96 242.403 218.614 237.541L218.53 236.449L219.218 236.232C224.042 241.373 227.25 234.685 226.915 229.753Z"/>
	<defs>
		<linearGradient id="gradient_11" gradientUnits="userSpaceOnUse" x1="320.92139" y1="198.48534" x2="302.52692" y2="191.14424">
			<stop offset="0" stop-color="#030303"/>
			<stop offset="1" stop-color="#2F2E2F"/>
		</linearGradient>
	</defs>
	<path fill="url(#gradient_11)" transform="scale(2 2)" d="M317.284 149.693C318.193 150.826 317.796 152.226 318.214 153.523L319.165 153.324C319.836 152.101 320.031 151.044 320.225 149.693C320.787 159.81 320.006 170.412 317.104 180.13C316.018 183.767 313.923 187.241 313.328 190.983C312.327 197.274 313.082 204.762 312.464 211.356C311.675 219.765 309.627 224.625 308.115 232.253C306.338 233.761 306.566 236.901 304.637 237.996L304.373 237.783C304.917 236.108 306.38 233.995 306.187 232.253C306.544 230.228 307.439 228.113 308.045 226.136C311.921 213.493 310.312 202.742 312.253 190.216C313.071 184.934 314.949 179.883 315.949 174.627C317.512 166.421 317.304 158.005 317.284 149.693Z"/>
	<defs>
		<linearGradient id="gradient_12" gradientUnits="userSpaceOnUse" x1="274.9285" y1="137.22775" x2="278.32867" y2="155.64316">
			<stop offset="0" stop-color="#1E1C1D"/>
			<stop offset="1" stop-color="#545353"/>
		</linearGradient>
	</defs>
	<path fill="url(#gradient_12)" transform="scale(2 2)" d="M277.846 154.232C284.635 148.492 299.587 137.806 308.115 138.218C309.771 138.616 311.39 137.867 313.037 137.738L313.055 137.889C311.15 138.05 307.118 139.333 305.793 140.437L306.187 140.673C296.121 145.17 287.052 150.471 277.846 156.602C271.636 149.153 248.735 146.238 238.106 145.501C238.162 142.876 233.894 143.883 232.122 143.72C245.049 141.752 267.556 146.669 277.846 154.232Z"/>
	<path fill="#F7F7F7" transform="scale(2 2)" d="M284.277 159.305C290.778 150.532 298.792 144.881 310.122 143.72C310.162 153.005 306.572 170.266 301.357 176.828L300.936 177.013C299.782 176.433 298.58 174.973 298.181 173.739C296.686 171.733 294.996 169.727 293.859 167.495C293.502 166.196 292.58 165.204 291.682 164.245L292.233 163.488C292.656 159.472 286.583 160.118 284.277 159.305Z"/>
	<path fill="#C4C3C3" transform="scale(2 2)" d="M292.233 163.488L292.534 163.708L293 163.273C294.687 163.401 294.99 164.851 295.316 166.271L293.859 167.495C293.502 166.196 292.58 165.204 291.682 164.245L292.233 163.488Z"/>
	<path fill="#C4C3C3" transform="scale(2 2)" d="M295.316 166.271C296.214 168.678 298.609 171.061 298.181 173.739C296.686 171.733 294.996 169.727 293.859 167.495L295.316 166.271Z"/>
	<path fill="#F7F7F7" transform="scale(2 2)" d="M194.095 123.178C196.997 124.412 200.705 126.863 201.894 129.894C204.212 135.799 205.456 149.943 200.806 155.139L200.348 155.25C198.381 153.824 197.873 157.53 195.994 157.481C192.187 157.38 191.281 160.834 189.377 163.526C187.542 166.122 184.589 167.862 182.96 170.091C183.623 154.077 181.598 146.198 189.801 130.192C191.038 127.679 192.409 125.413 194.095 123.178Z"/>
	<path fill="#F7F7F7" transform="scale(2 2)" d="M178.592 230.994C179.7 230.567 180.82 230.067 181.964 229.753C184.132 238.531 202.725 252.791 210.021 257.199C218.752 262.475 228.55 264.65 238.106 267.838C235.574 268.343 233.304 268.854 230.943 269.913C230.496 269.959 229.959 270.119 229.558 269.913C228.354 270.631 227.855 271.725 226.915 272.686C235.046 276.224 244.245 280.605 249.147 288.377L247.351 289.662C242.864 286.298 238.273 283.126 233.283 280.547C227.597 277.61 220.398 276.997 217.209 283.73C216.034 286.213 216.736 288.616 216.384 291.175C214.833 291.227 213.307 291.255 211.757 291.175C212.156 289.717 212.652 288.396 213.275 287.02C212.041 278.956 208.676 274.779 200.427 276.827C201.307 274.748 204.939 272.745 206.719 271.266C203.574 268.718 200.556 266.962 196.772 265.491L197.789 263.873C199.282 262.437 200.434 260.808 202.111 259.547C206.673 261.646 213.65 262.676 217.271 264.621L217.271 263.873C205.157 258.226 184.562 247.31 180.346 234.732C180.371 233.578 179.171 232.001 178.592 230.994Z"/>
	<path fill="#C4C3C3" transform="scale(2 2)" d="M217.271 263.873C218.836 264.343 222.511 265.031 223.555 266.332C222.313 266.826 220.594 266.076 219.447 265.583L217.271 264.621L217.271 263.873Z"/>
	<path fill="#FCFCFC" transform="scale(2 2)" d="M196.772 265.491C200.556 266.962 203.574 268.718 206.719 271.266C204.939 272.745 201.307 274.748 200.427 276.827C208.676 274.779 212.041 278.956 213.275 287.02C212.652 288.396 212.156 289.717 211.757 291.175C213.307 291.255 214.833 291.227 216.384 291.175L216.384 292.531C214.818 292.38 213.322 292.441 211.757 292.531C210.686 293.739 209.791 294.856 209.024 296.29C208.778 295.701 208.518 295.558 207.98 295.237C203.477 302.549 197.231 307.295 189.801 311.327C181.216 312.791 176.04 314.309 174.834 303.596C175.564 291.639 189.542 275.386 196.772 265.491Z"/>
	<path fill="#3F3E3E" transform="scale(2 2)" d="M203.853 289.662C204.436 289.748 204.426 289.808 204.861 290.154L204.937 290.828C204.609 291.679 204.298 291.991 203.571 292.531C201.311 292.028 202.482 290.605 203.853 289.662Z"/>
	<defs>
		<linearGradient id="gradient_13" gradientUnits="userSpaceOnUse" x1="195.2804" y1="281.23483" x2="216.74124" y2="288.14514">
			<stop offset="0" stop-color="#181617"/>
			<stop offset="1" stop-color="#504F4F"/>
		</linearGradient>
	</defs>
	<path fill="url(#gradient_13)" transform="scale(2 2)" d="M200.427 276.827C208.676 274.779 212.041 278.956 213.275 287.02C212.652 288.396 212.156 289.717 211.757 291.175C213.307 291.255 214.833 291.227 216.384 291.175L216.384 292.531C214.818 292.38 213.322 292.441 211.757 292.531C210.686 293.739 209.791 294.856 209.024 296.29C208.778 295.701 208.518 295.558 207.98 295.237C214.527 283.558 208.399 286.082 200.74 284.745L200.618 284.333C201.949 283.046 216.994 284.879 206.719 278.008C198.771 277.748 193.627 280.357 187.725 285.441L187.467 285.39L187.094 285.872C186.153 284.098 197.736 277.613 200.427 276.827Z"/>
	<path fill="#3F3E3E" transform="scale(2 2)" d="M180.346 343.766L180.734 343.941C181.154 345.447 182.899 350.167 182.96 345.795C183.993 348.372 184.868 351.474 186.383 353.778C190.619 356.158 193.472 354.564 197.789 354.574C203.824 356.306 202.921 354.403 210.917 358.415C210.103 358.774 209.374 358.367 208.593 358.712L209.024 358.854C212.06 359.649 215.462 363.123 214.976 366.509C215.443 366.498 215.919 366.461 216.384 366.509C217.799 366.569 219.19 366.559 220.605 366.509C220.659 365.871 220.339 364.955 220.672 364.46L221.711 364.797C222.729 368.98 219.539 375.367 218.614 379.622C222.721 379.627 226.838 379.695 230.943 379.622C231.767 373.523 240.501 372.098 245.344 371.357C244.615 369.77 243.684 368.147 243.106 366.509C243.407 365.788 242.881 364.987 243.266 364.494C243.867 365.282 244.364 367.254 245.176 367.586L245.344 367.49C249.717 375.963 263.929 373.625 265.617 375.654C263.167 377.99 248.996 371.881 240.981 374.318C234.135 376.4 229.785 383.923 236.357 385.517C237.067 385.285 237.385 385.206 238.106 385.517C239.065 387.228 241.396 386.892 243.106 387.013L243.974 387.013C249.709 387.685 255.705 386.073 261.329 385.155C279.694 382.157 300.79 385.324 312.952 368.091L313.298 368.091C310.28 373.659 326.301 369.923 329.667 369.829L329.768 370.091L329.956 370.074L329.544 370.194L329.441 370.363L329.667 370.459C323.994 373.666 317.696 372.174 311.571 372.513C300.383 387.171 281.281 385.701 264.253 387.604C255.959 388.531 240.812 392.412 233.467 386.833C232.433 386.048 230.654 382.949 229.558 382.989C225.778 382.541 219.862 382.204 216.384 383.857C215.069 384.313 214.005 384.939 213.275 386.161C198.821 394.831 173.285 396.951 161.026 383.731C156.397 378.74 153.021 371.694 153.261 364.797C156.3 359.283 161.502 359.102 167.208 359.563C170.654 354.131 176.494 351.189 182.96 352.56C181.974 349.721 180.773 346.744 180.346 343.766Z"/>
	<path fill="#C4C3C3" transform="scale(2 2)" d="M174.834 356.706C176.439 356.248 176.997 356.523 178.005 357.777L176.973 358.854C175.647 358.659 174.485 358.19 174.834 356.706Z"/>
	<path fill="#AFADAD" transform="scale(2 2)" d="M169.361 360.158C170.621 357.64 171.916 356.797 174.834 356.706C174.433 358.343 170.836 360.137 169.361 360.158Z"/>
	<path fill="#AFADAD" transform="scale(2 2)" d="M157.931 362.479C158.35 362.588 158.855 362.501 159.288 362.479L160.776 364.797L160.776 364.797C160.934 365.489 160.99 365.806 160.776 366.509C158.477 366.3 154.298 364.873 157.931 362.479Z"/>
	<path fill="#868485" transform="scale(2 2)" d="M157.931 362.479C158.35 362.588 158.855 362.501 159.288 362.479L160.776 364.797L160.776 364.797C158.931 364.842 158.499 364.149 157.931 362.479Z"/>
	<path fill="#AFADAD" transform="scale(2 2)" d="M194.648 356.706C195.994 356.355 199.843 354.871 200.427 356.706C201.513 356.805 202.565 356.361 203.571 355.988L202.111 358.854C201.368 358.715 200.999 358.253 200.427 357.777C197.062 358.529 195.998 361.313 194.648 356.706Z"/>
	<path fill="#C4C3C3" transform="scale(2 2)" d="M160.776 361.744C162.55 361.824 164.254 362.008 165.973 362.479C165.654 364.147 165.395 365.805 165.186 367.49C163.68 367.255 162.246 366.907 160.776 366.509C160.99 365.806 160.934 365.489 160.776 364.797L160.776 364.797L159.288 362.479L160.776 361.744Z"/>
	<path fill="#C4C3C3" transform="scale(2 2)" d="M159.288 362.479L160.776 361.744C162.669 362.494 162.366 363.739 160.776 364.797L159.288 362.479Z"/>
	<path fill="#C4C3C3" transform="scale(2 2)" d="M194.095 362.479C194.663 363.004 194.585 363.047 194.648 363.832L194.736 364.507L195.002 364.604C196.434 365.14 197.85 365.765 197.789 367.49C194.507 367.402 191.249 367.43 187.968 367.49C187.269 367.73 186.59 367.931 185.869 368.091C185.995 366.379 186.791 365.706 186.383 363.832L187.968 363.832L187.968 363.832C188.572 363.861 189.206 363.952 189.801 363.832C190.613 363.995 193.082 362.727 194.095 362.479Z"/>
	<path fill="#868485" transform="scale(2 2)" d="M187.968 363.832C188.572 363.861 189.206 363.952 189.801 363.832C190.486 364.256 190.973 364.539 191.385 365.265L191.394 365.813C190.343 366.155 189.787 365.441 189.053 364.797C187.945 365.501 187.986 366.301 187.968 367.49C187.269 367.73 186.59 367.931 185.869 368.091C185.995 366.379 186.791 365.706 186.383 363.832L187.968 363.832L187.968 363.832Z"/>
	<path fill="#C4C3C3" transform="scale(2 2)" d="M173.335 355.988C178.22 354.334 181.477 354.135 186.383 355.988C186.578 356.524 186.341 357.175 186.383 357.777L186.383 359.563C186.238 360.292 186.13 361.046 185.869 361.744C184.669 360.921 183.397 359.521 181.889 359.565C181.793 360.449 182.48 360.627 183.202 360.996L183.356 361.476C182.825 362.265 181.713 362.399 180.835 362.479C180.528 361.577 180.051 360.858 179.418 360.158C179.122 359.507 179.176 359.537 179.418 358.854C181.51 358.62 178.212 356.524 177.582 355.988C176.145 356.077 174.771 356.087 173.335 355.988Z"/>
	<path fill="#AFADAD" transform="scale(2 2)" d="M186.383 355.988L189.053 355.988C191.053 356.868 191.326 358.246 192.831 359.563L192.831 359.563C194.013 359.857 194.858 360.41 194.648 361.744L194.08 362.092L194.095 362.479C193.082 362.727 190.613 363.995 189.801 363.832C189.206 363.952 188.572 363.861 187.968 363.832L187.968 363.832L186.383 363.832C186.188 363.137 186.02 362.449 185.869 361.744C186.13 361.046 186.238 360.292 186.383 359.563L186.383 357.777C186.341 357.175 186.578 356.524 186.383 355.988Z"/>
	<path fill="#686667" transform="scale(2 2)" d="M187.968 358.854L189.053 357.777C189.703 358.332 190.052 358.513 190.333 359.334L190.067 359.803C188.981 359.982 188.633 359.617 187.968 358.854Z"/>
	<path fill="#3F3E3E" transform="scale(2 2)" d="M192.831 359.563C194.013 359.857 194.858 360.41 194.648 361.744C193.758 361.4 192.585 361.185 192.297 360.16L192.831 359.563Z"/>
	<path fill="#686667" transform="scale(2 2)" d="M186.383 355.988L189.053 355.988L188.357 356.409C188.315 357.024 188.522 357.451 189.053 357.777L187.968 358.854L187.866 358.297C187.354 357.777 187.092 357.859 186.383 357.777C186.341 357.175 186.578 356.524 186.383 355.988Z"/>
	<path fill="#686667" transform="scale(2 2)" d="M186.383 359.563L186.694 359.134L187.037 359.253C187.467 360.734 187.02 362.613 187.968 363.832L187.968 363.832L186.383 363.832C186.188 363.137 186.02 362.449 185.869 361.744C186.13 361.046 186.238 360.292 186.383 359.563Z"/>
	<path fill="#C4C3C3" transform="scale(2 2)" d="M203.853 361.744C207.827 362.854 201.778 359.958 203.547 356.728L204.12 356.563C204.877 356.99 205.25 358.108 205.607 358.859L206.043 358.913L205.731 358.566C206.617 354.922 208.383 363.153 209.024 358.854C212.06 359.649 215.462 363.123 214.976 366.509C213.511 366.179 209.888 362.218 212.249 365.95L212.073 366.335C209.932 366.756 205.769 367.515 203.853 366.509C204.21 364.08 204.746 364.29 203.853 361.744Z"/>
	<defs>
		<linearGradient id="gradient_14" gradientUnits="userSpaceOnUse" x1="196.35345" y1="355.84842" x2="200.24486" y2="366.54721">
			<stop offset="0" stop-color="#A5A3A3"/>
			<stop offset="1" stop-color="#C3C1C2"/>
		</linearGradient>
	</defs>
	<path fill="url(#gradient_14)" transform="scale(2 2)" d="M194.648 356.706C195.998 361.313 197.062 358.529 200.427 357.777C200.999 358.253 201.368 358.715 202.111 358.854L203.571 361.744L203.853 361.744C204.746 364.29 204.21 364.08 203.853 366.509C203.713 367.585 203.082 367.43 202.111 367.49L200.427 367.49L197.789 367.49L197.789 367.49C197.85 365.765 196.434 365.14 195.002 364.604L194.736 364.507L194.648 363.832C194.585 363.047 194.663 363.004 194.095 362.479L194.08 362.092L194.648 361.744C194.858 360.41 194.013 359.857 192.831 359.563L192.831 359.563C192.918 358.361 192.319 357.67 191.706 356.706C192.68 356.65 193.672 356.698 194.648 356.706Z"/>
	<path fill="#868485" transform="scale(2 2)" d="M194.648 363.832C196.822 361.075 198.248 364.92 197.789 367.49L197.789 367.49C197.85 365.765 196.434 365.14 195.002 364.604L194.736 364.507L194.648 363.832Z"/>
	<path fill="#AFADAD" transform="scale(2 2)" d="M203.571 361.744L203.853 361.744C204.746 364.29 204.21 364.08 203.853 366.509C203.713 367.585 203.082 367.43 202.111 367.49L200.427 367.49L200.283 366.645C200.069 365.434 200.181 364.86 200.946 363.832C200.031 363.491 198.899 363.041 199.26 361.884C201.055 362.181 205.011 367.811 203.571 361.744Z"/>
	<path fill="#C4C3C3" transform="scale(2 2)" d="M200.946 363.832C202.939 364.671 201.666 365.745 202.111 367.49L200.427 367.49L200.283 366.645C200.069 365.434 200.181 364.86 200.946 363.832Z"/>
	<path fill="#AFADAD" transform="scale(2 2)" d="M174.834 356.706L174.834 356.706C174.485 358.19 175.647 358.659 176.973 358.854L178.005 357.777L179.418 358.854C179.176 359.537 179.122 359.507 179.418 360.158C180.051 360.858 180.528 361.577 180.835 362.479C181.713 362.399 182.825 362.265 183.356 361.476L183.202 360.996C182.48 360.627 181.793 360.449 181.889 359.565C183.397 359.521 184.669 360.921 185.869 361.744C186.02 362.449 186.188 363.137 186.383 363.832C186.791 365.706 185.995 366.379 185.869 368.091C183.405 368.121 181.077 367.957 178.592 368.091L178.005 368.091C174.566 367.564 170.731 367.783 167.208 367.49C167.233 365.182 167.493 363.687 168.799 361.744C168.951 361.208 169.17 360.682 169.361 360.158C170.836 360.137 174.433 358.343 174.834 356.706Z"/>
	<path fill="#868485" transform="scale(2 2)" d="M169.361 363.832L169.895 364.226C170.079 365.023 169.649 365.777 169.361 366.509L168.626 365.68C168.535 364.879 168.949 364.507 169.361 363.832Z"/>
	<path fill="#868485" transform="scale(2 2)" d="M179.418 360.158L179.418 360.158C180.051 360.858 180.528 361.577 180.835 362.479C181.087 363.392 181.295 364.139 181.227 365.091L180.934 365.457L181.024 365.441L180.182 365.26C180.48 364.576 180.871 363.792 180.624 363.049L179.418 362.479C178.796 364.073 178.246 366.396 178.592 368.091L178.005 368.091C177.375 366.414 176.132 364.894 175.925 363.1L176.353 362.774C176.934 363.196 177.025 364.112 177.223 364.804C177.755 364.867 178.714 362.875 179.418 362.479L179.418 360.158Z"/>
	<path fill="#686667" transform="scale(2 2)" d="M174.834 356.706L174.834 356.706C174.485 358.19 175.647 358.659 176.973 358.854L177.582 358.854C176.208 358.612 174.356 358.724 173.092 359.342L172.845 359.707C173.408 361.846 176.126 359.795 177.555 361.173C176.929 362.389 175.339 361.845 174.22 361.744C173.315 361.246 172.19 360.418 171.138 360.466L170.743 360.832C170.834 363.9 173.169 362.084 168.799 361.744C168.951 361.208 169.17 360.682 169.361 360.158C170.836 360.137 174.433 358.343 174.834 356.706Z"/>
	<path fill="#AFADAD" transform="scale(2 2)" d="M180.835 362.479C181.713 362.399 182.825 362.265 183.356 361.476L183.202 360.996C182.48 360.627 181.793 360.449 181.889 359.565C183.397 359.521 184.669 360.921 185.869 361.744C186.02 362.449 186.188 363.137 186.383 363.832C186.791 365.706 185.995 366.379 185.869 368.091C183.405 368.121 181.077 367.957 178.592 368.091C178.246 366.396 178.796 364.073 179.418 362.479L180.624 363.049C180.871 363.792 180.48 364.576 180.182 365.26L181.024 365.441L180.934 365.457L181.227 365.091C181.295 364.139 181.087 363.392 180.835 362.479Z"/>
	<path fill="#F7F7F7" transform="scale(2 2)" d="M154.331 366.509C172.198 375.109 200.82 367.819 220.605 368.091C218.351 373.22 217.286 378.345 213.275 382.503C199.71 399.049 159.92 392.958 154.331 366.509Z"/>
</svg>
