<?xml version="1.0" encoding="utf-8" ?>
<svg xmlns="http://www.w3.org/2000/svg" xmlns:xlink="http://www.w3.org/1999/xlink" width="1024" height="1024">
	<path fill="#FCFCFC" transform="scale(2 2)" d="M392.441 290.834C395.667 292.495 398.433 295.991 399.385 299.488C396.534 298.482 393.363 293.57 392.441 290.834Z"/>
	<path fill="#A9A8A8" transform="scale(2 2)" d="M351.667 290.834C354.413 290.957 361.752 292.741 363.704 294.458L364.139 294.712C365.734 295.636 365.153 295.12 363.704 294.996C361.866 294.89 353.394 292.028 350.885 291.392L351.667 290.834Z"/>
	<defs>
		<linearGradient id="gradient_0" gradientUnits="userSpaceOnUse" x1="366.43231" y1="302.48117" x2="389.01926" y2="300.27356">
			<stop offset="0" stop-color="#BFBABB"/>
			<stop offset="1" stop-color="#E7E9E8"/>
		</linearGradient>
	</defs>
	<path fill="url(#gradient_0)" transform="scale(2 2)" d="M363.704 294.458C369.807 295.399 386.475 302.471 390.143 307.71C391.376 309.471 387.902 307.323 387.495 307.051C378.777 301.205 372.028 299.516 363.704 294.996C365.153 295.12 365.734 295.636 364.139 294.712L363.704 294.458Z"/>
	<path fill="#FCFCFC" transform="scale(2 2)" d="M361.976 312.836C366.081 311.834 383.16 309.574 386.493 310.806L386.806 311.146C385.911 312.599 370.172 313.591 367.833 313.753C364.471 313.985 362.031 312.776 361.976 316.023C361.846 314.992 361.954 313.876 361.976 312.836Z"/>
	<path fill="#F7F7F7" transform="scale(2 2)" d="M361.976 317.701C362.568 320.587 364.343 319.41 366.725 319.481C359.808 335.904 339.986 334.226 325.133 334.127C309.002 334.019 296.344 333.084 279.622 335.486C268.137 337.135 258.984 339.351 247.013 340.166C237.208 340.833 227.423 339.36 217.633 339.517L164.181 339.891C153.425 340.017 141.084 342.825 130.912 338.412C127.886 337.1 121.342 335.964 120.584 333.98C119.124 330.156 123.049 327.737 126.058 326.739C131.67 325.747 137.793 325.606 143.5 325.554C143.418 324.461 143.429 323.421 143.5 322.327C143.783 323.624 143.919 325.511 145.486 324.181L145.575 324.582C146.841 325.962 171.986 323.979 175.709 324.181L177.567 324.28C175.805 324.377 171.216 324.204 169.917 324.897L169.97 325.277C171.47 326.093 175.244 325.02 177.607 325.554C185.536 326.298 218.241 325.617 226.293 324.181C227.757 325.704 229.254 327.586 231.037 328.724C235.864 331.03 243.695 332.371 249.136 332.773C254.223 334.89 271.643 331.565 273.435 323.329C289.758 324.899 307.059 322.264 323.955 322.327C326.602 324.956 329.343 326.121 332.971 326.739C340.916 329.473 362.279 328.849 361.976 317.701Z"/>
	<path fill="#4B4A4A" transform="scale(2 2)" d="M143.5 325.554C143.418 324.461 143.429 323.421 143.5 322.327C143.783 323.624 143.919 325.511 145.486 324.181L145.575 324.582C146.841 325.962 171.986 323.979 175.709 324.181L177.567 324.28C175.805 324.377 171.216 324.204 169.917 324.897L169.97 325.277C171.47 326.093 175.244 325.02 177.607 325.554C161.705 326.859 142.489 327.466 126.357 327.14C126.056 326.809 126.104 326.969 126.058 326.739C131.67 325.747 137.793 325.606 143.5 325.554Z"/>
	<path fill="#FCFCFC" transform="scale(2 2)" d="M296.468 201.473C299.589 199.454 302.132 196.157 304.992 193.729C313.999 186.084 342.114 170.716 354.231 178.029C368.685 186.753 368.867 225.826 365.265 239.957C363.144 248.274 358.195 255.904 360.396 264.724C365.809 270.948 383.863 273.966 385.033 282.227C384.605 284.547 384.755 284.162 385.033 286.584C379.978 287.286 362.954 281.204 351.667 282.227C350.846 285.012 349.991 287.508 348.532 290.028L351.667 290.834L350.885 291.392C347.11 290.533 347.131 294.027 345.278 296.532C354.788 298.599 359.37 303.889 361.976 312.836C361.954 313.876 361.846 314.992 361.976 316.023L361.976 317.701C362.279 328.849 340.916 329.473 332.971 326.739C329.343 326.121 326.602 324.956 323.955 322.327C307.059 322.264 289.758 324.899 273.435 323.329C271.643 331.565 254.223 334.89 249.136 332.773C243.695 332.371 235.864 331.03 231.037 328.724C229.254 327.586 227.757 325.704 226.293 324.181C218.241 325.617 185.536 326.298 177.607 325.554C175.244 325.02 171.47 326.093 169.97 325.277L169.917 324.897C171.216 324.204 175.805 324.377 177.567 324.28L175.709 324.181C171.986 323.979 146.841 325.962 145.575 324.582L145.486 324.181C143.919 325.511 143.783 323.624 143.5 322.327C143.796 320.957 144.198 319.618 144.591 318.273C143.99 314.071 145.291 309.117 145.87 304.918L145.635 304.37C143.724 311.438 144.584 318.535 143.289 324.706C140.81 325.9 131.112 325.404 127.272 326.326L127.052 326.11C128.132 323.977 130.182 323.106 132.37 322.545L132.062 322.327C126.054 323.34 111.217 323.603 104.591 323.444L104.464 323.292C104.544 323.205 130.625 318.472 132.062 318.273C133.405 312.924 133.902 307.389 135.018 301.992C142.916 263.783 158.07 223.123 202.652 217.393C202.476 215.709 204.681 207.773 205.315 205.413C207.792 196.193 212.207 183.666 223.739 183.635C231.738 183.612 250.212 193.854 257.326 198.357C270.712 206.829 263.8 203.021 280.407 201.8C285.695 201.411 291.171 201.242 296.468 201.473Z"/>
	<path fill="#A9A8A8" transform="scale(2 2)" d="M350.002 276.854C350.13 273.942 349.568 265.662 350.002 263.573C351.396 268.858 352.658 275.031 351.667 280.497C351.304 277.632 352.049 274.502 351.151 271.714L350.806 271.805C350.23 272.658 350.47 275.271 350.29 276.451L350.002 276.854Z"/>
	<defs>
		<linearGradient id="gradient_1" gradientUnits="userSpaceOnUse" x1="296.50287" y1="302.97696" x2="292.14441" y2="296.77075">
			<stop offset="0" stop-color="#383636"/>
			<stop offset="1" stop-color="#6B6768"/>
		</linearGradient>
	</defs>
	<path fill="url(#gradient_1)" transform="scale(2 2)" d="M289.788 297.676C290.93 297.891 290.794 297.548 290.386 296.696L290.761 296.532C291.685 298.04 292.561 299.66 293.747 300.977C295.156 301.229 298.234 300.903 299.168 301.89C296.727 304.713 291.349 300.531 289.788 297.676Z"/>
	<path fill="#F7F7F7" transform="scale(2 2)" d="M307.718 279.425C311.439 279.907 314.423 279.396 317.719 277.585C316.924 281.313 308.814 283.401 307.718 279.425Z"/>
	<path fill="#A9A8A8" transform="scale(2 2)" d="M341.437 297.676C337.015 294.873 326.842 295.7 321.625 295.68C323.525 294.1 339.191 295.447 342.538 295.718L341.437 297.676Z"/>
	<defs>
		<linearGradient id="gradient_2" gradientUnits="userSpaceOnUse" x1="211.06729" y1="208.45352" x2="221.00233" y2="205.44984">
			<stop offset="0" stop-color="#343233"/>
			<stop offset="1" stop-color="#6D6D6D"/>
		</linearGradient>
	</defs>
	<path fill="url(#gradient_2)" transform="scale(2 2)" d="M218.203 196.28C218.713 198.144 218.553 197.357 219.997 197.787C216.82 204.859 216.372 208.736 214.778 216.105C214.483 217.753 215.018 219.329 214.807 220.944C214.751 218.015 214.17 212.648 213.333 219.441L213.067 217.393C213.448 210.299 215.022 202.651 218.203 196.28Z"/>
	<defs>
		<linearGradient id="gradient_3" gradientUnits="userSpaceOnUse" x1="314.70566" y1="278.62936" x2="310.72464" y2="272.30426">
			<stop offset="0" stop-color="#292829"/>
			<stop offset="1" stop-color="#555556"/>
		</linearGradient>
	</defs>
	<path fill="url(#gradient_3)" transform="scale(2 2)" d="M319.934 268.527L319.934 267.762C321.605 271.645 320.415 274.643 317.719 277.585C314.423 279.396 311.439 279.907 307.718 279.425C306.779 278.613 305.935 277.761 305.093 276.854C305.835 275.328 306.677 275.884 307.718 276.854C309.791 276.644 311.899 276.915 313.98 276.854C315.351 276.154 316.517 274.633 316.949 273.167C318.001 273.054 318.888 272.98 319.934 273.167C320.357 271.573 320.148 270.126 319.934 268.527Z"/>
	<path fill="#F7F7F7" transform="scale(2 2)" d="M307.718 276.854C309.791 276.644 311.899 276.915 313.98 276.854C313.937 277.14 313.84 277.323 313.98 277.585C311.59 278.033 309.865 278.254 307.718 276.854Z"/>
	<path fill="#F7F7F7" transform="scale(2 2)" d="M316.949 273.167C318.001 273.054 318.888 272.98 319.934 273.167C318.158 275.202 316.618 276.703 313.98 277.585C313.84 277.323 313.937 277.14 313.98 276.854C315.351 276.154 316.517 274.633 316.949 273.167Z"/>
	<path fill="#2A292A" transform="scale(2 2)" d="M262.531 216.105C267.375 210.15 294.544 210.618 301.223 211.914L301.245 212.169C300.403 212.587 268.426 214.836 262.531 216.105L262.531 216.105Z"/>
	<path fill="#747273" transform="scale(2 2)" d="M277.946 305.582C281.09 303.383 288.76 300.257 287.898 295.224C287.428 292.479 279.897 289.858 282.049 288.171C283.644 286.921 294.352 284.918 296.142 286.944C296.449 290.957 288.482 291.334 290.625 296.229L290.761 296.532L290.386 296.696C290.794 297.548 290.93 297.891 289.788 297.676L289.415 297.237C286.658 298.884 287.943 304.22 277.946 305.582Z"/>
	<path fill="#A9A8A8" transform="scale(2 2)" d="M285.733 288.978C287.892 288.861 290.469 288.113 290.761 290.834C289.154 290.931 286.564 290.556 285.733 288.978Z"/>
	<path fill="#747273" transform="scale(2 2)" d="M347.18 188.104C351.633 187.338 345.245 189.831 344.133 190.342C328.512 197.516 320.092 203.234 306.077 213.713C305.634 214.073 305.358 214.248 304.801 214.382L304.53 214.07C306.197 204.878 338.358 189.009 347.18 188.104Z"/>
	<path fill="#747273" transform="scale(2 2)" d="M351.667 191.148C354.063 193.466 355.32 201.611 355.831 204.904C358.738 223.624 354.177 238.913 348.532 256.202C348.399 256.481 348.242 256.655 348.042 256.888C343.331 253.522 358.526 234.097 353.803 201.356C353.309 197.928 352.442 194.523 351.667 191.148Z"/>
	<path fill="#747273" transform="scale(2 2)" d="M218.203 196.28C226.063 187.325 257.522 207.747 261.902 216.015C262.102 216.049 262.329 216.11 262.531 216.105L262.531 216.105C259.736 216.605 223.815 189.387 219.997 197.787C218.553 197.357 218.713 198.144 218.203 196.28Z"/>
	<path fill="#4B4A4A" transform="scale(2 2)" d="M305.093 276.854C299.586 266.353 316.378 258.233 319.934 267.762L319.934 268.527C320.148 270.126 320.357 271.573 319.934 273.167C318.888 272.98 318.001 273.054 316.949 273.167C316.517 274.633 315.351 276.154 313.98 276.854C311.899 276.915 309.791 276.644 307.718 276.854C306.677 275.884 305.835 275.328 305.093 276.854Z"/>
	<path fill="#FCFCFC" transform="scale(2 2)" d="M316.949 273.167C309.102 266.736 316.83 262.641 319.934 268.527C320.148 270.126 320.357 271.573 319.934 273.167C318.888 272.98 318.001 273.054 316.949 273.167Z"/>
	<path fill="#F7F7F7" transform="scale(2 2)" d="M249.136 226.72L249.53 227.009C249.19 227.907 231.2 241.419 228.085 244.257C231.343 240.34 235.283 237.672 239.138 234.427L239.023 234.208L238.327 234.112C236.888 232.764 234.879 235.298 233.356 236.576C229.601 239.726 228.642 236.383 234.775 232.926C233.351 232.84 231.532 232.617 230.832 231.136C232.367 229.812 235.13 230.967 236.394 229.75L236.3 229.457C233.951 229.247 227.255 227.33 225.269 225.735L225.351 225.446C226.477 224.992 236.391 228.246 237.813 228.785C240.54 229.819 239.263 229.514 241.76 228.289L242.16 228.098C241.723 226.833 240.76 227.646 240.091 226.749C240.267 220.076 225.204 221.775 223.748 217.35L224.079 216.966C228.13 216.55 238.594 223.584 241.614 222.805C241.727 222.167 241.873 221.561 242.043 220.936C237.964 213.085 221.965 209.048 225.843 207.044L226.055 206.335L226.26 206.355L226.293 207.086C235.613 211.54 243.345 218.135 249.136 226.72Z"/>
	<path fill="#A9A8A8" transform="scale(2 2)" d="M242.428 229.142C240.502 230.634 232.699 237.204 230.871 237.039L230.913 236.609C233.938 233.979 238.358 229.565 242.428 229.142L242.428 229.142Z"/>
	<defs>
		<linearGradient id="gradient_4" gradientUnits="userSpaceOnUse" x1="237.00708" y1="213.64877" x2="234.45576" y2="216.14313">
			<stop offset="0" stop-color="#747171"/>
			<stop offset="1" stop-color="#939293"/>
		</linearGradient>
	</defs>
	<path fill="url(#gradient_4)" transform="scale(2 2)" d="M226.293 207.086C235.613 211.54 243.345 218.135 249.136 226.72L248.853 226.748C246.341 226.975 244.631 227.929 242.428 229.142L242.428 229.142C244.112 227.54 245.704 226.641 247.797 225.705C243.357 221.798 239.681 217.243 234.86 213.714C233.374 212.626 226.296 208.828 225.847 207.659L226.293 207.086Z"/>
	<path fill="#4B4A4A" transform="scale(2 2)" d="M262.531 268.527C274.769 267.894 276.442 282.495 266.13 284.421C256.257 285.468 251.4 271.693 262.531 268.527Z"/>
	<path fill="#F7F7F7" transform="scale(2 2)" d="M271.108 278.18L271.427 278.62C270.36 283.189 264.452 283.827 260.669 281.08C258.32 279.428 265.486 281.993 266.13 282.227C267.92 281.098 269.507 279.561 271.108 278.18Z"/>
	<path fill="#FCFCFC" transform="scale(2 2)" d="M260.669 270.509C265.719 270.675 263.997 276.092 260.669 277.585C255.203 276.585 256.28 271.902 260.669 270.509Z"/>
	<path fill="#F7F7F7" transform="scale(2 2)" d="M346.07 202.17C350.032 202.951 348.616 219.587 348.255 222.695C347.404 230.038 344.878 236.373 342.538 243.306C340.224 238.525 336.916 234.94 333.035 231.388C330.263 228.852 323.04 225.262 323.955 221.763C332.713 214.114 332.994 209.945 346.07 202.17Z"/>
	<path fill="#A9A8A8" transform="scale(2 2)" d="M337.258 212.563C339.824 212.653 343.996 213.76 346.07 215.258C343.459 215.829 339.321 214.124 337.258 212.563Z"/>
	<path fill="#A9A8A8" transform="scale(2 2)" d="M331.949 225.135C335.949 226.312 338.701 228.095 339.969 232.069C340.817 232.713 342.006 233.479 342.252 234.572L341.961 234.862C341.809 234.843 332.812 226.487 331.949 225.705L331.949 225.135Z"/>
	<defs>
		<linearGradient id="gradient_5" gradientUnits="userSpaceOnUse" x1="333.43689" y1="213.76942" x2="332.18225" y2="212.6367">
			<stop offset="0" stop-color="#767576"/>
			<stop offset="1" stop-color="#8E8C8D"/>
		</linearGradient>
	</defs>
	<path fill="url(#gradient_5)" transform="scale(2 2)" d="M346.07 202.17C345.921 202.814 333.447 212.871 331.623 214.917C329.663 217.113 327.928 219.762 325.802 221.763C328.266 222.504 329.916 223.592 331.949 225.135L331.949 225.705C329.727 223.714 326.73 222.693 323.955 221.763C332.713 214.114 332.994 209.945 346.07 202.17Z"/>
	<defs>
		<linearGradient id="gradient_6" gradientUnits="userSpaceOnUse" x1="177.02464" y1="335.42688" x2="340.47375" y2="222.60526">
			<stop offset="0" stop-color="#575556"/>
			<stop offset="1" stop-color="#747373"/>
		</linearGradient>
	</defs>
	<path fill="url(#gradient_6)" transform="scale(2 2)" d="M213.067 217.393L213.333 219.441C214.17 212.648 214.751 218.015 214.807 220.944C215.018 219.329 214.483 217.753 214.778 216.105C215.544 224.27 216.097 232.114 217.75 240.182C220.196 252.122 221.443 248.429 220.259 260.876C219.289 271.082 220.267 281.636 225.114 290.834C233.564 289.662 243.145 287.999 251.638 289.263C242.777 289.911 233.948 290.394 225.114 291.392C226.396 294.404 227.944 296.911 229.961 299.488C236.036 296.417 244.04 295.371 250.756 295.106L250.609 295.193L251.137 295.161C246.36 296.9 235.8 297.994 229.961 299.488C232.926 302.617 235.788 305.262 239.374 307.679C252.193 304.858 268.087 307.022 273.435 320.748C295.424 325.285 328.594 318.02 341.437 297.676L342.538 295.718C343.53 294.118 344.446 292.524 345.278 290.834C337.742 288.89 325.563 291.465 322.992 290.73C331.044 288.965 337.935 289.323 346.07 289.263C347.333 286.853 348.143 284.926 348.532 282.227C338.629 281.408 332.593 284.083 323.729 285.817L323.539 286.181L323.738 285.794L323.331 285.842C332.147 282.135 340.555 281.022 350.002 280.497L350.002 276.854L350.29 276.451C350.47 275.271 350.23 272.658 350.806 271.805L351.151 271.714C352.049 274.502 351.304 277.632 351.667 280.497C358.969 280.307 378.492 282.69 385.033 286.584C379.978 287.286 362.954 281.204 351.667 282.227C350.846 285.012 349.991 287.508 348.532 290.028L351.667 290.834L350.885 291.392C347.11 290.533 347.131 294.027 345.278 296.532C354.788 298.599 359.37 303.889 361.976 312.836C361.954 313.876 361.846 314.992 361.976 316.023L361.976 317.701C362.279 328.849 340.916 329.473 332.971 326.739C329.343 326.121 326.602 324.956 323.955 322.327C307.059 322.264 289.758 324.899 273.435 323.329C271.643 331.565 254.223 334.89 249.136 332.773C243.695 332.371 235.864 331.03 231.037 328.724C229.254 327.586 227.757 325.704 226.293 324.181C218.241 325.617 185.536 326.298 177.607 325.554C175.244 325.02 171.47 326.093 169.97 325.277L169.917 324.897C171.216 324.204 175.805 324.377 177.567 324.28L175.709 324.181C184.959 321.903 200.71 323.599 212.06 321.503C211.461 321.335 211.689 321.485 211.332 321.129L212.039 320.492C214.607 318.202 215.984 307.279 214.289 305.582C212.455 306.316 210.623 307.029 208.757 307.679C210.745 306.51 212.592 305.654 214.778 304.918C213.359 303.579 213.53 297.399 213.067 294.996C211.228 295.46 205.571 297.491 204.467 297.598C206.601 296.162 209.633 295.379 212.06 294.458C215.387 292.796 219.715 291.939 223.347 291.392C218.273 282.719 215.708 263.058 219.997 254.726C215.147 245.272 214.374 236.922 213.067 226.72C199.107 227.809 184.304 233.612 174.159 243.306C163.342 253.581 162.128 260.477 155.856 272.022C154.765 275.018 153.592 278.016 152.711 281.08C152.444 280.604 152.304 280.338 151.878 279.982L151.081 280.497C152.117 277.161 153.077 273.767 154.336 270.509C154.899 265.331 163.56 250.991 166.983 246.874C179.2 232.178 194.578 226.812 213.067 225.135C212.996 222.594 212.747 219.918 213.067 217.393Z"/>
	<path fill="#F7F7F7" transform="scale(2 2)" d="M256.084 308.52C265.17 311.119 278.288 321.666 264.775 328.724C264.725 325.051 264.143 322.404 260.669 320.748C271.401 318.338 256.312 312.098 256.084 308.52Z"/>
	<path fill="#F7F7F7" transform="scale(2 2)" d="M213.067 294.996C216.234 293.576 219.905 292.607 223.347 292.095C224.926 294.777 226.377 297.195 228.518 299.488C223.585 300.676 219.036 302.062 214.778 304.918C213.359 303.579 213.53 297.399 213.067 294.996Z"/>
	<path fill="#F7F7F7" transform="scale(2 2)" d="M218.203 296.532C219.209 296.488 220.186 296.359 221.154 296.696L221.304 297.11L220.827 297.676C218.992 298.697 217.976 298.874 218.203 296.532Z"/>
	<path fill="#F7F7F7" transform="scale(2 2)" d="M343.745 297.676C345.9 298.676 348.014 299.661 350.002 300.977C341.885 302.413 339.172 308.678 334.29 314.396C332.36 316.657 329.912 318.1 328.377 320.748C329.929 321.856 332.316 323.7 334.146 324.181C334.668 324.45 335.173 324.732 335.68 325.027L335.68 325.554C335.17 325.53 334.657 325.549 334.146 325.554C328.908 324.664 325.286 323.981 323.955 318.273C331.396 311.757 339.855 308.999 343.745 297.676Z"/>
	<path fill="#F7F7F7" transform="scale(2 2)" d="M228.518 300.119C230.818 303.263 233.732 306.241 236.893 308.52C231.341 311.665 228.097 314.456 226.293 320.748C221.616 320.939 216.718 321.939 212.06 321.503C211.461 321.335 211.689 321.485 211.332 321.129L212.039 320.492C214.607 318.202 215.984 307.279 214.289 305.582C217.267 303.532 224.876 301.061 228.518 300.119Z"/>
	<path fill="#FCFCFC" transform="scale(2 2)" d="M231.037 326.739C220.783 314.018 244.331 305.612 256.084 308.52C256.312 312.098 271.401 318.338 260.669 320.748L260.199 320.836C260.437 324.115 266.283 326.615 261.52 329.946C260.536 331.153 255.042 331.661 253.147 331.459C252.28 331.236 251.377 331.14 250.492 331.008C243.798 330.714 237.068 329.813 231.037 326.739Z"/>
	<path fill="#070707" transform="scale(2 2)" d="M240.193 321.503C241.859 321.753 242.325 328.245 242.428 329.946C239.827 328.621 239.744 323.95 240.193 321.503Z"/>
	<path fill="#4B4A4A" transform="scale(2 2)" d="M253.91 331.008C253.058 327.943 250.807 324.874 250.446 321.861L250.75 321.652C254.951 322.359 254.992 327.711 254.958 331.008C257.121 330.767 259.391 329.982 261.52 329.946C260.536 331.153 255.042 331.661 253.147 331.459C252.28 331.236 251.377 331.14 250.492 331.008L253.91 331.008Z"/>
	<path fill="#FCFCFC" transform="scale(2 2)" d="M343.745 297.676C344.164 296.98 344.565 296.811 345.278 296.532C354.788 298.599 359.37 303.889 361.976 312.836C361.954 313.876 361.846 314.992 361.976 316.023L361.976 317.701C362.279 328.849 340.916 329.473 332.971 326.739L333.035 326.423C331.129 325.923 329.436 325.323 327.66 324.468C329.551 325.203 332.129 326.176 334.146 325.554C334.657 325.549 335.17 325.53 335.68 325.554L335.68 325.027C335.173 324.732 334.668 324.45 334.146 324.181C332.316 323.7 329.929 321.856 328.377 320.748C329.912 318.1 332.36 316.657 334.29 314.396C339.172 308.678 341.885 302.413 350.002 300.977C348.014 299.661 345.9 298.676 343.745 297.676Z"/>
	<path fill="#747273" transform="scale(2 2)" d="M343.745 316.023C346.877 317.063 346.01 321.771 345.278 324.181L344.531 324.758L344.074 324.685C343.123 322.929 343.796 318.202 343.745 316.023Z"/>
	<path fill="#747273" transform="scale(2 2)" d="M334.146 324.181C333.306 321.227 333.508 318.405 334.772 315.595L335.169 315.3C336.437 316.803 335.589 322.896 335.68 325.027C335.173 324.732 334.668 324.45 334.146 324.181Z"/>
	<path fill="#747273" transform="scale(2 2)" d="M343.745 297.676C344.164 296.98 344.565 296.811 345.278 296.532C354.788 298.599 359.37 303.889 361.976 312.836C361.954 313.876 361.846 314.992 361.976 316.023L361.976 317.701C362.279 328.849 340.916 329.473 332.971 326.739L333.035 326.423C331.129 325.923 329.436 325.323 327.66 324.468C329.551 325.203 332.129 326.176 334.146 325.554C334.657 325.549 335.17 325.53 335.68 325.554C339.088 326.097 348.765 326.748 350.885 325.027C352.249 322.6 353.38 320.505 353.761 317.701C352.88 316.45 351.368 315.117 350.802 313.765L350.928 313.449C353.236 313.411 354.423 314.763 355.466 316.553C355.633 320.244 354.395 323.076 351.667 325.554C354.233 325.189 356.708 324.188 358.905 322.835C359.982 315.25 357.301 304.725 350.002 300.977C348.014 299.661 345.9 298.676 343.745 297.676Z"/>
	<path fill="#FCFCFC" transform="scale(2 2)" d="M174.159 243.306C184.304 233.612 199.107 227.809 213.067 226.72C214.374 236.922 215.147 245.272 219.997 254.726C215.708 263.058 218.273 282.719 223.347 291.392C219.715 291.939 215.387 292.796 212.06 294.458C209.633 295.379 206.601 296.162 204.467 297.598C205.571 297.491 211.228 295.46 213.067 294.996C213.53 297.399 213.359 303.579 214.778 304.918C212.592 305.654 210.745 306.51 208.757 307.679C210.623 307.029 212.455 306.316 214.289 305.582C215.984 307.279 214.607 318.202 212.039 320.492L211.332 321.129C211.689 321.485 211.461 321.335 212.06 321.503C200.71 323.599 184.959 321.903 175.709 324.181C171.986 323.979 146.841 325.962 145.575 324.582L145.486 324.181C143.919 325.511 143.783 323.624 143.5 322.327C143.796 320.957 144.198 319.618 144.591 318.273C143.99 314.071 145.291 309.117 145.87 304.918C147.71 299.748 149.132 287.396 151.081 280.497L151.878 279.982C152.304 280.338 152.444 280.604 152.711 281.08C153.592 278.016 154.765 275.018 155.856 272.022C162.128 260.477 163.342 253.581 174.159 243.306Z"/>
	<path fill="#2A292A" transform="scale(2 2)" d="M144.591 318.273C145.599 322.118 143.725 320.526 145.486 318.273C145.507 320.216 145.634 322.248 145.486 324.181C143.919 325.511 143.783 323.624 143.5 322.327C143.796 320.957 144.198 319.618 144.591 318.273Z"/>
	<path fill="#070707" transform="scale(2 2)" d="M151.081 280.497L151.878 279.982C152.304 280.338 152.444 280.604 152.711 281.08C148.495 294.558 148.062 305.375 145.486 318.273C143.725 320.526 145.599 322.118 144.591 318.273C143.99 314.071 145.291 309.117 145.87 304.918C147.71 299.748 149.132 287.396 151.081 280.497Z"/>
	<path fill="#F7F7F7" transform="scale(2 2)" d="M174.159 243.306C184.304 233.612 199.107 227.809 213.067 226.72C214.374 236.922 215.147 245.272 219.997 254.726C215.708 263.058 218.273 282.719 223.347 291.392C219.715 291.939 215.387 292.796 212.06 294.458C210.009 289.618 209.829 283.361 210.105 278.18C211.105 278.562 212.083 279.003 213.067 279.425C209.133 263.435 213.405 248.998 201.759 232.952C188.201 236.681 178.167 245.125 168.304 254.726C169.768 252.819 175.652 245.47 174.159 243.306Z"/>
</svg>
