<?xml version="1.0" encoding="utf-8" ?>
<svg xmlns="http://www.w3.org/2000/svg" xmlns:xlink="http://www.w3.org/1999/xlink" width="1024" height="1024">
	<path fill="#584E4E" transform="scale(2 2)" d="M212.553 141.916C212.57 142.766 212.56 142.751 212.025 143.415C211.639 143.822 211.27 144.209 210.842 144.574C210.615 144.021 210.714 143.973 210.842 143.415L212.553 141.916Z"/>
	<path fill="#6D6464" transform="scale(2 2)" d="M203.918 146.622C204.958 146.46 206.024 146.244 207.03 146.622C206.295 147.081 205.8 147.587 204.921 147.557L203.918 146.622Z"/>
	<path fill="#1D1919" transform="scale(2 2)" d="M236.496 254.789L237.333 255.777C236.518 256.071 235.637 256.486 234.787 256.631L233.953 255.777L236.496 254.789Z"/>
	<path fill="#8C8888" transform="scale(2 2)" d="M170.334 155.932C170.412 157.101 170.41 158.219 170.334 159.387C170.146 159.944 170.03 160.467 169.993 161.059L169.752 160.831C169.697 159.189 169.668 157.573 169.752 155.932L170.334 155.932Z"/>
	<path fill="#6D6464" transform="scale(2 2)" d="M324.588 249.305C324.821 250.192 324.998 251.163 325.318 252.018L324.588 252.018C324.152 251.095 323.592 250.199 323.096 249.305C323.636 249.192 324.048 249.251 324.588 249.305Z"/>
	<path fill="#584E4E" transform="scale(2 2)" d="M212.553 250.812L216.033 251.563C215.761 252.389 215.619 252.552 214.803 252.828C213.87 252.603 212.946 252.29 212.025 252.018C212.254 251.636 212.391 251.227 212.553 250.812Z"/>
	<path fill="#1D1919" transform="scale(2 2)" d="M255.555 205.437C255.949 205.453 256.473 205.545 256.847 205.437C257.023 206.664 257.237 207.574 257.785 208.693L256.847 208.693L256.6 208.411C256.269 208.834 256.223 208.985 256.098 209.488L255.555 208.693C255.724 207.556 255.687 206.577 255.555 205.437Z"/>
	<path fill="#6D6464" transform="scale(2 2)" d="M210.842 143.415C210.714 143.973 210.615 144.021 210.842 144.574C210.013 144.841 209.194 145.339 208.71 146.077C207.675 145.794 207.426 145.614 207.03 144.574C208.275 144.037 209.526 143.709 210.842 143.415Z"/>
	<path fill="#6D6464" transform="scale(2 2)" d="M286.152 257.617C287.176 258.439 288.278 259.186 288.96 260.328L288.948 260.846C287.957 261.245 286.459 260.458 285.517 260.117C285.901 259.323 286.002 258.478 286.152 257.617Z"/>
	<path fill="#373334" transform="scale(2 2)" d="M336.409 330.827C336.933 330.71 337.091 330.729 337.599 330.827C337.438 332.37 337.201 335.888 336.409 337.186C335.982 336.656 336.401 335.488 336.399 334.774C336.381 335.777 336.329 336.391 335.715 337.186C335.867 335.067 336.232 332.952 336.409 330.827Z"/>
	<path fill="#6D6464" transform="scale(2 2)" d="M216.033 251.563C218.456 251.797 221.015 252.143 223.358 252.828C220.541 253.127 217.638 252.776 214.803 252.828C215.619 252.552 215.761 252.389 216.033 251.563Z"/>
	<path fill="#584E4E" transform="scale(2 2)" d="M293.497 251.563C295.8 252.281 297.028 253.824 298.316 255.777C297.928 255.766 297.447 255.694 297.072 255.777C295.691 254.572 294.439 253.584 292.765 252.828C293.268 252.439 293.283 252.139 293.497 251.563Z"/>
	<path fill="#8C8888" transform="scale(2 2)" d="M247.319 137.379C249.475 139.831 250.225 144.984 250.277 148.145C249.038 147.257 247.651 139.208 247.319 137.379Z"/>
	<path fill="#8C8888" transform="scale(2 2)" d="M170.334 159.387C170.84 162.623 171.265 165.815 172.158 168.976L170.852 169.825C170.459 166.841 169.839 163.842 169.752 160.831L169.993 161.059C170.03 160.467 170.146 159.944 170.334 159.387Z"/>
	<path fill="#6D6464" transform="scale(2 2)" d="M172.158 192.965C172.576 193.342 172.944 193.65 173.258 194.124C172.804 196.869 172.481 199.624 172.158 202.387L170.852 202.387C171.551 199.329 171.768 196.077 172.158 192.965Z"/>
	<defs>
		<linearGradient id="gradient_0" gradientUnits="userSpaceOnUse" x1="279.75372" y1="389.12183" x2="281.33386" y2="395.48065">
			<stop offset="0" stop-color="#3D2E30"/>
			<stop offset="1" stop-color="#55504E"/>
		</linearGradient>
	</defs>
	<path fill="url(#gradient_0)" transform="scale(2 2)" d="M279.327 395.288C279.729 393.432 280.018 389.864 281.114 388.398L281.584 388.226C282.311 389.216 281.254 394.735 281.357 396.397C280.366 396.354 279.938 396.066 279.327 395.288Z"/>
	<path fill="#373334" transform="scale(2 2)" d="M312.739 149.056C312.866 148.101 312.831 147.238 313.12 146.301L313.665 146.077C313.703 148.785 313.086 157.108 313.392 158.799C313.748 160.763 314.803 162.548 315.259 164.483L315.259 164.483C312.336 158.513 312.664 155.58 312.739 149.056Z"/>
	<path fill="#1D1919" transform="scale(2 2)" d="M257.785 208.693C262.207 217.008 267.54 208.251 268.192 208.278C268.545 212.692 259.263 215.906 256.847 208.693L257.785 208.693Z"/>
	<path fill="#8C8888" transform="scale(2 2)" d="M176.139 180.9C176.132 181.16 176.088 181.489 176.139 181.743C174.963 185.849 173.844 189.88 173.258 194.124C172.944 193.65 172.576 193.342 172.158 192.965C172.402 188.916 173.949 184.306 176.139 180.9Z"/>
	<path fill="#1D1919" transform="scale(2 2)" d="M255.555 208.693L256.098 209.488C253.665 214.779 244.691 215.977 243.112 209.776L243.343 209.47C247.678 213.506 252.739 215.039 255.555 208.693Z"/>
	<defs>
		<linearGradient id="gradient_1" gradientUnits="userSpaceOnUse" x1="317.16483" y1="213.06786" x2="316.14041" y2="208.66928">
			<stop offset="0" stop-color="#7C7479"/>
			<stop offset="1" stop-color="#898987"/>
		</linearGradient>
	</defs>
	<path fill="url(#gradient_1)" transform="scale(2 2)" d="M307.48 208.693C312.744 209.057 317.997 210.47 323.096 211.745L323.096 211.745C322.864 212.029 322.595 212.293 322.452 212.633C317.931 212.3 311.576 210.518 307.48 208.693Z"/>
	<path fill="#584E4E" transform="scale(2 2)" d="M236.496 396.397C236.54 393.693 236.013 390.667 236.559 388.029C239.222 386.246 238.196 395.105 238.261 396.046L238.287 396.397L238.287 397.536L237.333 397.536L236.496 396.397Z"/>
	<path fill="#373334" transform="scale(2 2)" d="M305.309 378.961L305.891 379.269L306.876 378.961C303.94 383.35 302.673 389.343 298.316 392.733C298.455 392.183 298.794 391.873 299.166 391.466L299.341 391.276L298.316 391.662C301.167 387.602 302.88 383.661 305.109 379.346L305.309 378.961Z"/>
	<path fill="#584E4E" transform="scale(2 2)" d="M172.158 168.976C172.791 172.02 177.003 179.455 176.139 181.743C176.088 181.489 176.132 181.16 176.139 180.9C172.794 176.648 172.566 175.089 170.852 169.825L172.158 168.976Z"/>
	<path fill="#6D6464" transform="scale(2 2)" d="M312.739 149.056C311.259 139.906 311.848 133.789 308.431 124.042C308.284 123.623 308.205 123.426 308.326 122.978C310.576 127.622 313.395 140.756 313.665 146.077L313.12 146.301C312.831 147.238 312.866 148.101 312.739 149.056Z"/>
	<path fill="#373334" transform="scale(2 2)" d="M258.799 134.482C264.542 136.311 272.924 136.156 277.561 140.224C271.551 137.677 264.201 136.837 257.785 135.729L259.721 135.438L259.775 135.147L258.958 134.915L258.799 134.482Z"/>
	<defs>
		<linearGradient id="gradient_2" gradientUnits="userSpaceOnUse" x1="223.01479" y1="135.30661" x2="216.60449" y2="144.03104">
			<stop offset="0" stop-color="#1E1612"/>
			<stop offset="1" stop-color="#524142"/>
		</linearGradient>
	</defs>
	<path fill="url(#gradient_2)" transform="scale(2 2)" d="M212.553 141.916C217.1 139.238 222.042 137.731 227.283 137.379L226.798 137.714L227.283 138.103C222.116 139.083 216.694 141.042 212.025 143.415C212.56 142.751 212.57 142.766 212.553 141.916Z"/>
	<path fill="#1D1919" transform="scale(2 2)" d="M328.269 292.887C325.09 299.497 318.035 305.639 310.43 306.045L310.334 305.873C312.666 305.228 309.511 305.311 308.838 305.339C309.397 305.346 309.901 305.374 310.43 305.17C320.947 303.358 321.335 298.763 328.269 292.887Z"/>
	<path fill="#6D6464" transform="scale(2 2)" d="M182.692 209.488C184.176 209.388 189.431 208.347 190.522 209.008C188.436 210.391 185.096 210.846 182.692 211.745C179.1 212.208 175.664 213.07 172.158 213.952L172.158 212.633C175.776 211.946 179.362 211.09 182.692 209.488Z"/>
	<path fill="#1D1919" transform="scale(2 2)" d="M311.711 360.509C311.448 362.01 310.797 363.519 310.405 365.007L307.48 376.437C308.853 375.81 310.269 375.391 311.711 374.956C312.082 375.449 312.162 375.343 312.739 375.46C310.652 376.35 308.289 377.079 306.876 378.961L305.891 379.269L305.309 378.961C307.618 372.824 308.602 366.308 311.711 360.509Z"/>
	<path fill="#373334" transform="scale(2 2)" d="M246.498 285.523L246.642 285.733L246.279 286.297L246.085 286.004L246.286 286.24L246.456 285.786L247.085 285.352L247.319 285.523C243.43 290.753 236.002 299.052 229.996 301.414L229.996 301.414C232.151 299.312 245.272 286.006 246.498 285.523Z"/>
	<path fill="#F7F7F7" transform="scale(2 2)" d="M163.339 233.972C164.374 234.872 165.756 238.015 166.726 239.36C164.979 240.106 163.215 240.814 161.454 241.528C154.799 241.599 161.431 235.553 163.339 233.972Z"/>
	<path fill="#F7F7F7" transform="scale(2 2)" d="M159.504 224.231C162.42 224.09 157.479 227.587 156.404 228.879C154.471 231.202 152.985 233.878 151.204 236.322C151.076 236.537 150.91 236.676 150.731 236.848L150.558 236.465C150.864 230.737 154.041 226.293 159.504 224.231Z"/>
	<defs>
		<linearGradient id="gradient_3" gradientUnits="userSpaceOnUse" x1="299.14743" y1="390.11057" x2="287.02631" y2="393.3027">
			<stop offset="0" stop-color="#1F1917"/>
			<stop offset="1" stop-color="#584C4C"/>
		</linearGradient>
	</defs>
	<path fill="url(#gradient_3)" transform="scale(2 2)" d="M287.935 396.397C287.949 394.074 287.744 390.083 289.439 388.271L289.771 388.384C290.527 391.096 289.631 393.752 288.989 396.397C292.15 395.071 295.063 392.614 298.316 391.662L299.341 391.276L299.166 391.466C298.794 391.873 298.455 392.183 298.316 392.733C295.39 395.205 291.661 396.787 287.935 397.536L287.755 397.322L287.935 396.397Z"/>
	<defs>
		<linearGradient id="gradient_4" gradientUnits="userSpaceOnUse" x1="189.03499" y1="138.42064" x2="206.57236" y2="146.15292">
			<stop offset="0" stop-color="#423633"/>
			<stop offset="1" stop-color="#696262"/>
		</linearGradient>
	</defs>
	<path fill="url(#gradient_4)" transform="scale(2 2)" d="M188.953 138.103C194.48 139.575 201.896 144.513 207.03 144.574C207.426 145.614 207.675 145.794 208.71 146.077C208.157 146.275 207.606 146.509 207.03 146.622C206.024 146.244 204.958 146.46 203.918 146.622C198.88 144.24 193.972 141.437 188.953 138.97C189.058 138.614 189.014 138.461 188.953 138.103Z"/>
	<path fill="#373334" transform="scale(2 2)" d="M169.752 155.932C169.502 134.542 167.807 128.907 188.953 138.103C189.014 138.461 189.058 138.614 188.953 138.97C183.863 137.331 177.428 134.876 172.158 134.482C171.124 141.455 169.943 148.875 170.334 155.932L169.752 155.932Z"/>
	<path fill="#FCFCFC" transform="scale(2 2)" d="M246.498 303.673C254.833 302.66 262.256 306.675 270.314 308.155L270.281 308.28L269.793 308.281C265.836 308.44 261.722 307.604 257.785 307.193C256.685 307.62 255.71 308.238 254.702 308.841C254.528 307.609 254.287 306.392 254.053 305.17C252.649 304.702 247.114 304.397 246.498 303.673Z"/>
	<path fill="#373334" transform="scale(2 2)" d="M170.334 203.67C160.574 203.916 155.293 207.486 148.821 208.193C154.835 204.263 163.791 202.943 170.852 202.387L172.158 202.387C176.718 202.363 189.065 202.178 192.728 203.749L192.114 203.705L192.086 204.501L191.497 203.671L191.613 203.806C188.476 203.748 185.336 203.66 182.198 203.67C180.114 203.217 174.512 203.512 172.158 203.67C171.556 203.611 170.901 203.442 170.334 203.67Z"/>
	<path fill="#1D1919" transform="scale(2 2)" d="M227.283 137.379C232.692 133.618 252.009 134.531 258.799 134.482L258.958 134.915L259.775 135.147L259.721 135.438L257.785 135.729C254.508 136.431 249.157 135.683 245.619 135.706C239.391 135.746 233.332 136.682 227.283 138.103L226.798 137.714L227.283 137.379Z"/>
	<path fill="#1D1919" transform="scale(2 2)" d="M229.996 301.414C216.604 311.925 198.735 313.369 186.844 300.069C203.322 311.906 211.462 310.504 229.996 301.414L229.996 301.414Z"/>
	<path fill="#8C8888" transform="scale(2 2)" d="M368.744 254.095C366.116 250.293 364.073 244.085 362.157 239.724C358.365 231.097 349.293 213.961 355.616 204.659L355.739 204.761C355.653 205.403 355.495 205.896 355.271 206.503C350.106 220.557 364.772 239.835 368.744 254.095L368.744 254.095Z"/>
	<defs>
		<linearGradient id="gradient_5" gradientUnits="userSpaceOnUse" x1="308.77841" y1="265.97684" x2="305.62576" y2="268.60199">
			<stop offset="0" stop-color="#3F322F"/>
			<stop offset="1" stop-color="#5F504D"/>
		</linearGradient>
	</defs>
	<path fill="url(#gradient_5)" transform="scale(2 2)" d="M297.072 255.777C297.447 255.694 297.928 255.766 298.316 255.777C301.697 259.574 303.578 264.611 307.094 268.092C311.013 271.972 315.262 272.618 318.78 277.524C302.738 269.555 306.231 267.389 297.072 255.777Z"/>
	<path fill="#373334" transform="scale(2 2)" d="M255.555 205.437C254.638 203.491 250.659 202.47 250.421 200.802C252.035 199.078 259.034 196.716 261.171 198.765C261.988 202.079 256.665 202.304 256.847 205.437C256.473 205.545 255.949 205.453 255.555 205.437Z"/>
	<path fill="#F7F7F7" transform="scale(2 2)" d="M145.667 204.6C147.394 211.519 140.855 207.339 150.304 215.558C149.052 215.901 147.82 216.117 146.538 216.312C139.187 215.439 140.235 207.283 145.667 204.6Z"/>
	<path fill="#584E4E" transform="scale(2 2)" d="M251.759 250.812C252.714 251.355 253.333 252.008 254.053 252.828C253.913 255.496 253.888 255.529 256.098 256.631C256.935 258.062 257.56 259.261 257.785 260.935C257.606 262.96 257.068 264.381 256.098 266.153C256.727 269.776 255.756 272.826 254.053 276.045C253.802 275.588 254.097 274.873 254.199 274.36L254.038 274.225L253.318 275.081L252.849 274.967C255.422 270.475 258.752 264.656 250.277 267.144C251.758 266.102 261.289 261.015 253.975 258.153C252.145 257.437 249.677 259.415 248.03 260.117C250.563 257.689 254.935 254.713 250.277 252.018C252.144 252.101 252.24 253.197 253.601 254.014L253.656 253.522C253.155 252.472 252.358 251.781 251.759 250.812Z"/>
	<defs>
		<linearGradient id="gradient_6" gradientUnits="userSpaceOnUse" x1="312.96146" y1="221.83363" x2="318.66641" y2="224.21986">
			<stop offset="0" stop-color="#272729"/>
			<stop offset="1" stop-color="#5F5B5C"/>
		</linearGradient>
	</defs>
	<path fill="url(#gradient_6)" transform="scale(2 2)" d="M323.096 211.745C322.897 212.512 322.791 212.633 323.096 213.392C322.765 219.571 317.089 225.139 313.665 229.94C314.872 231.19 315.852 232.561 316.859 233.972L316.859 235.063C315.402 233.423 314.487 231.974 313.665 229.94C309.352 233.014 305.015 235.942 300.51 238.732L300.51 237.856C307.665 232.312 321.919 222.049 322.452 212.633C322.595 212.293 322.864 212.029 323.096 211.745Z"/>
	<path fill="#1D1919" transform="scale(2 2)" d="M335.715 337.186C336.329 336.391 336.381 335.777 336.399 334.774C336.401 335.488 335.982 336.656 336.409 337.186C335.588 352.835 326.565 368.053 312.739 375.46C312.162 375.343 312.082 375.449 311.711 374.956C328.111 366.177 331.279 353.242 335.715 337.186Z"/>
	<defs>
		<linearGradient id="gradient_7" gradientUnits="userSpaceOnUse" x1="224.36139" y1="269.65149" x2="218.10771" y2="264.94934">
			<stop offset="0" stop-color="#160C06"/>
			<stop offset="1" stop-color="#6E6667"/>
		</linearGradient>
	</defs>
	<path fill="url(#gradient_7)" transform="scale(2 2)" d="M225.691 260.117C228.265 258.378 231.107 257.004 233.953 255.777L234.787 256.631C232.609 257.697 230.608 258.996 228.475 260.117C220.844 265.625 214.222 272.421 208.71 280.037C212.126 271.684 217.908 264.705 225.691 260.117Z"/>
	<path fill="#584E4E" transform="scale(2 2)" d="M164.278 306.045C165.134 306.134 165.871 306.141 166.726 306.045C164.645 321.724 170.544 331.986 170.852 344.234L170.852 344.234C166.183 336.609 164.517 316.105 164.278 306.045Z"/>
	<defs>
		<linearGradient id="gradient_8" gradientUnits="userSpaceOnUse" x1="170.31645" y1="213.14915" x2="173.60298" y2="212.36995">
			<stop offset="0" stop-color="#41383B"/>
			<stop offset="1" stop-color="#525453"/>
		</linearGradient>
	</defs>
	<path fill="url(#gradient_8)" transform="scale(2 2)" d="M170.334 203.67C170.901 203.442 171.556 203.611 172.158 203.67C172.134 206.643 172.008 209.666 172.158 212.633L172.158 213.952C172.291 216.72 172.658 219.39 173.258 222.096C176.387 219.605 179.767 217.917 183.411 216.312C186.449 214.98 191.354 212.022 194.696 212.534C194.262 213.658 188.563 214.74 187.185 215.527C182.831 218.013 177.78 219.851 173.258 222.096C172.886 222.733 172.803 222.812 172.158 223.17C170.065 224.186 164.943 227.617 163.748 228.041L163.676 227.911C165.204 225.831 169.822 223.348 172.158 222.096C171.467 219.464 171.23 216.646 170.852 213.952C166.008 215.694 161.652 217.515 157.415 220.49C159.313 216.864 167.125 214.509 170.852 213.392C170.854 211.58 171.204 204.806 170.334 203.67Z"/>
	<path fill="#373334" transform="scale(2 2)" d="M240.212 252.828C240.186 247.02 238.662 237.672 244.592 234.16C254.138 228.508 275.229 230.7 285.517 233.406L285.517 233.972C275.416 231.041 254.583 229.706 245.097 234.86C240.152 237.546 242.225 243.184 241.818 247.744C241.535 249.837 241.692 251.992 241.818 254.095C240.255 254.562 238.783 255.02 237.333 255.777L236.496 254.789C237.674 254.004 238.935 253.429 240.212 252.828Z"/>
	<path fill="#F7F7F7" transform="scale(2 2)" d="M172.158 213.952C175.664 213.07 179.1 212.208 182.692 211.745C182.923 213.244 182.999 214.856 183.411 216.312C179.767 217.917 176.387 219.605 173.258 222.096C172.658 219.39 172.291 216.72 172.158 213.952Z"/>
	<path fill="#584E4E" transform="scale(2 2)" d="M285.517 233.406C287.699 234.137 289.312 234.838 291.096 236.322C291.904 237.989 292.432 239.707 292.765 241.528C295.123 240.34 297.998 238.512 300.51 237.856L300.51 238.732C298.055 240.257 295.337 241.196 292.765 242.48C292.772 244.081 292.582 250.364 293.259 251.458L293.497 251.563C293.283 252.139 293.268 252.439 292.765 252.828C291.542 254.614 292.66 255.875 293.497 257.617C291.056 256.147 281.534 252.552 286.152 257.617C286.002 258.478 285.901 259.323 285.517 260.117C284.576 259.507 283.606 259.037 282.594 258.564L282.594 255.777C284.838 252.624 286.915 252.801 290.327 254.095C292.061 248.333 290.921 242.199 290.327 236.322C288.862 235.382 287.147 234.58 285.517 233.972L285.517 233.406Z"/>
	<path fill="#584E4E" transform="scale(2 2)" d="M279.327 180.9C282.991 180.323 285.76 181.353 288.989 182.884C289.969 182.141 290.946 181.51 292.011 180.9C290.964 181.96 289.969 183.05 288.989 184.172C293.17 188.858 283.882 184.397 281.721 184.202L281.357 184.172C278.551 183.876 275.315 184.388 273.018 186.096C265.001 192.057 267.903 181.689 279.327 180.9Z"/>
	<path fill="#F7F7F7" transform="scale(2 2)" d="M172.158 203.67C174.512 203.512 180.114 203.217 182.198 203.67C181.7 205.446 182.355 207.714 182.692 209.488C179.362 211.09 175.776 211.946 172.158 212.633C172.008 209.666 172.134 206.643 172.158 203.67Z"/>
	<path fill="#584E4E" transform="scale(2 2)" d="M224.759 185.29C228.696 184.972 234.634 185.627 237.286 188.72C241.391 193.51 228.69 187.392 223.701 189.329L223.358 189.466C221.317 190.173 219.583 190.931 217.667 191.916C214.351 193.621 212.901 191.344 216.033 189.466C208.945 187.126 216.616 187.833 218.202 187.576C220.432 187.214 222.471 185.733 224.759 185.29Z"/>
	<defs>
		<linearGradient id="gradient_9" gradientUnits="userSpaceOnUse" x1="197.11508" y1="233.52316" x2="186.45119" y2="242.62784">
			<stop offset="0" stop-color="#50433E"/>
			<stop offset="1" stop-color="#675B5A"/>
		</linearGradient>
	</defs>
	<path fill="url(#gradient_9)" transform="scale(2 2)" d="M172.158 223.17C172.803 222.812 172.886 222.733 173.258 222.096C181.033 238.132 195.723 246.548 212.553 250.812C212.391 251.227 212.254 251.636 212.025 252.018C200.375 249.239 192.503 245.472 182.692 238.732C181.743 240.248 181.124 241.938 180.136 243.448C180.047 241.662 181.811 240.569 180.458 242.116L180.136 242.48C180.671 240.803 181.233 239.337 182.198 237.856C177.672 233.756 174.931 228.496 172.158 223.17Z"/>
	<defs>
		<linearGradient id="gradient_10" gradientUnits="userSpaceOnUse" x1="224.07492" y1="368.72275" x2="214.44759" y2="389.09576">
			<stop offset="0" stop-color="#4D3A2F"/>
			<stop offset="1" stop-color="#6C5A58"/>
		</linearGradient>
	</defs>
	<path fill="url(#gradient_10)" transform="scale(2 2)" d="M213.516 381.099L214.884 381.292L215.108 381.036C213.431 377.237 202.629 360.24 202.913 358.021C205.592 358.967 215.407 377.513 217.121 380.492C222.595 390.008 224.033 395.673 236.496 396.397L237.333 397.536C225.595 397.175 221.662 392.853 216.033 382.563C215.209 382.625 214.344 382.567 213.516 382.563C214.237 381.903 214.726 382.723 215.409 382.271C215.021 381.789 214.564 381.721 213.994 381.562L213.735 381.492L213.516 381.099Z"/>
	<path fill="#584E4E" transform="scale(2 2)" d="M170.852 344.234L170.852 344.234L172.01 346.004C182.488 361.965 185.847 370.338 206.09 378.942C208.488 379.961 211.168 380.114 213.516 381.099L213.735 381.492L213.994 381.562C214.564 381.721 215.021 381.789 215.409 382.271C214.726 382.723 214.237 381.903 213.516 382.563C194.082 381.056 177.125 361.673 170.852 344.234Z"/>
	<path fill="#584E4E" transform="scale(2 2)" d="M315.259 164.483C319.334 171.481 323.868 186.049 325.318 194.124C330.042 194.053 334.76 194.178 339.482 194.124C342.719 189.66 346.384 185.86 351.33 183.302C347.806 186.904 342.788 189.137 340.579 194.103L340.603 194.538C341.326 194.921 341.836 195.037 342.224 195.772L342.016 196.132L339.482 195.775C338.822 196.914 338.135 198.037 337.599 199.241L337.599 198.485C337.968 197.349 338.27 196.099 338.763 195.016C334.292 194.866 329.792 194.995 325.318 195.016C325.689 197.323 325.48 202.334 326.18 204.027L327.175 204.6L327.175 205.437L325.933 205.186C325.096 206.832 324.989 209.855 324.588 211.745C326.21 212.598 327.839 213.295 329.55 213.952L328.269 213.952C326.647 213.821 324.66 212.973 323.096 213.392C322.791 212.633 322.897 212.512 323.096 211.745L323.096 211.745C323.774 209.397 324.318 207.031 324.588 204.6C318.115 203.027 312.849 204.488 306.876 203.67C312.912 202.126 319.235 202.549 325.318 203.67C325.344 200.694 325.412 197.908 324.588 195.016C318.229 196.392 311.118 197.982 304.801 199.241L304.801 199.241C309.841 195.213 318.41 195.139 324.588 194.124C322.985 183.375 318.917 174.556 315.259 164.483L315.259 164.483Z"/>
	<path fill="#FCFCFC" transform="scale(2 2)" d="M325.318 195.016C329.792 194.995 334.292 194.866 338.763 195.016C338.27 196.099 337.968 197.349 337.599 198.485C335.921 201.305 334.944 203.941 334.061 207.097C331.784 206.258 329.496 205.302 327.175 204.6L326.18 204.027C325.48 202.334 325.689 197.323 325.318 195.016Z"/>
	<path fill="#584E4E" transform="scale(2 2)" d="M180.136 242.48L180.458 242.116C181.811 240.569 180.047 241.662 180.136 243.448C178.88 248.488 175.546 253.3 173.773 258.237C169.61 269.831 165.46 294.906 166.726 306.045C165.871 306.141 165.134 306.134 164.278 306.045C160.973 295.209 172.971 247.869 180.136 242.48Z"/>
	<path fill="#F7F7F7" transform="scale(2 2)" d="M167.1 131.236C167.221 131.808 165.257 139.978 165.044 141.391C163.285 153.009 161.536 167.601 166.568 178.75C167.345 180.472 170.891 184.931 170.694 186.344L169.752 186.661C155.935 181.61 160.754 140.67 167.1 131.236Z"/>
	<path fill="#FCFCFC" transform="scale(2 2)" d="M337.599 198.485L337.599 199.241C336.315 201.796 335.561 204.338 334.826 207.097C336.326 207.699 337.695 208.212 338.763 209.488C338.483 212.689 338.855 215.328 339.482 218.456L340.566 219.45L340.548 219.638C340.178 219.605 339.843 219.577 339.482 219.486C337.546 218.266 335.466 217.236 333.375 216.312C333.715 218.459 333.903 221.215 334.826 223.17L334.061 223.17C333.385 220.718 333.159 218.853 333.375 216.312C331.619 215.672 329.945 214.776 328.269 213.952L329.55 213.952C327.839 213.295 326.21 212.598 324.588 211.745C324.989 209.855 325.096 206.832 325.933 205.186L327.175 205.437L327.175 204.6C329.496 205.302 331.784 206.258 334.061 207.097C334.944 203.941 335.921 201.305 337.599 198.485Z"/>
	<path fill="#1D1919" transform="scale(2 2)" d="M337.599 198.485L337.599 199.241C336.315 201.796 335.561 204.338 334.826 207.097C336.326 207.699 337.695 208.212 338.763 209.488C337.423 209.31 336.138 209.012 334.826 208.693C333.819 211.069 333.488 212.985 333.375 215.558C335.426 216.495 337.457 217.465 339.482 218.456L340.566 219.45L340.548 219.638C340.178 219.605 339.843 219.577 339.482 219.486C337.546 218.266 335.466 217.236 333.375 216.312C333.715 218.459 333.903 221.215 334.826 223.17L334.061 223.17C333.385 220.718 333.159 218.853 333.375 216.312C331.619 215.672 329.945 214.776 328.269 213.952L329.55 213.952L333.375 215.558C332.843 212.372 333.239 210.17 334.061 207.097C331.66 206.754 329.487 206.154 327.175 205.437L327.175 204.6C329.496 205.302 331.784 206.258 334.061 207.097C334.944 203.941 335.921 201.305 337.599 198.485Z"/>
	<path fill="#F7F7F7" transform="scale(2 2)" d="M334.826 208.693C336.138 209.012 337.423 209.31 338.763 209.488C338.483 212.689 338.855 215.328 339.482 218.456C337.457 217.465 335.426 216.495 333.375 215.558C333.488 212.985 333.819 211.069 334.826 208.693Z"/>
	<path fill="#F7F7F7" transform="scale(2 2)" d="M255.555 392.733C258.969 392.07 262.544 392.232 266 391.662C275.181 407.156 284.771 408.621 300.51 398.322C289.794 409.794 269.723 410.654 261.686 396.397C260.546 395.992 256.532 393.918 256.235 393.854L256.098 395.288C255.999 394.39 255.828 393.594 255.555 392.733Z"/>
	<path fill="#F7F7F7" transform="scale(2 2)" d="M300.51 132.043L300.927 132.085C305.969 137.062 304.904 147.47 302.696 153.474C300.57 152.319 298.339 151.311 296.166 150.243C294.279 149.174 289.177 146.096 289.545 143.471C289.956 140.541 297.791 133.696 300.51 132.043Z"/>
	<defs>
		<linearGradient id="gradient_11" gradientUnits="userSpaceOnUse" x1="315.82855" y1="301.56952" x2="373.27716" y2="261.01767">
			<stop offset="0" stop-color="#4A3D3B"/>
			<stop offset="1" stop-color="#8B8C8F"/>
		</linearGradient>
	</defs>
	<path fill="url(#gradient_11)" transform="scale(2 2)" d="M325.318 252.018C328.057 257.328 330.374 263.29 331.796 269.089C335.959 281.282 335.641 288.713 337.599 300.069L337.229 300.704C337.336 301.001 337.391 301.17 337.599 301.414C337.337 308.237 338.049 315.098 337.599 321.913C344.977 318.08 350.25 313.134 356.707 308.281C366.757 293.81 372.607 286.257 370.629 266.468C370.229 262.465 369.053 258.581 368.774 254.564L368.744 254.095L368.744 254.095C373.338 268.171 372.733 283.307 365.935 296.564C360.885 306.414 348.451 320.428 337.599 324.063C337.546 326.321 337.557 328.569 337.599 330.827C337.091 330.729 336.933 330.71 336.409 330.827C335.675 317.667 337.04 305.369 335.17 291.682C334.114 283.952 331.689 276.56 329.55 269.089C327.985 263.508 325.961 257.419 324.588 252.018L325.318 252.018Z"/>
	<path fill="#F7F7F7" transform="scale(2 2)" d="M304.801 199.241C308.458 209.423 298.4 215.918 290.216 209.807C282.898 204.343 291.99 188.223 304.801 199.241L304.801 199.241Z"/>
	<path fill="#F7F7F7" transform="scale(2 2)" d="M205.104 199.241C215.392 199.33 220.184 199.674 219.445 210.846C217.953 213.307 216.132 214.526 213.516 215.558C200.507 218.912 193.677 205.228 205.104 199.241Z"/>
	<defs>
		<linearGradient id="gradient_12" gradientUnits="userSpaceOnUse" x1="277.65189" y1="301.43475" x2="284.12958" y2="257.06088">
			<stop offset="0" stop-color="#463531"/>
			<stop offset="1" stop-color="#6A5857"/>
		</linearGradient>
	</defs>
	<path fill="url(#gradient_12)" transform="scale(2 2)" d="M276.197 273.831C275.139 270.837 274.474 268.419 276.797 265.907C277.287 265.378 274.138 262.083 282.594 255.777L282.594 258.564C279.484 258.78 278.963 261.417 278.52 264.047C280.239 264.329 281.57 264.749 282.999 265.798L283.103 266.182C282.035 267.079 280.528 266.376 279.327 267.144C278.349 268.823 278.408 270.758 277.561 272.308C277.838 273.219 278.151 274.089 278.52 274.967C281.154 274.811 284.431 273.69 282.594 277.524C285.647 289.174 295.098 302.996 307.877 304.814C308.695 304.931 309.643 304.942 310.43 305.17C309.901 305.374 309.397 305.346 308.838 305.339C309.511 305.311 312.666 305.228 310.334 305.873L310.43 306.045C298.903 310.144 286.727 290.75 282.594 282.762C268.127 289.432 262.267 283.292 250.63 282.774L250.277 282.762L247.319 285.523L247.085 285.352L246.456 285.786L246.286 286.24L246.085 286.004L246.279 286.297L246.642 285.733L246.498 285.523C248.313 281.88 250.752 278.462 252.849 274.967L253.318 275.081L254.038 274.225L254.199 274.36C254.097 274.873 253.802 275.588 254.053 276.045C255.756 272.826 256.727 269.776 256.098 266.153C257.068 264.381 257.606 262.96 257.785 260.935C259.194 266.9 260.338 272.601 260.796 278.79C265.692 279.343 274.891 280.086 276.197 273.831Z"/>
	<path fill="#F7F7F7" transform="scale(2 2)" d="M277.561 272.308C276.175 269.8 276.074 267.606 279.327 267.144C278.349 268.823 278.408 270.758 277.561 272.308Z"/>
	<path fill="#F7F7F7" transform="scale(2 2)" d="M257.785 260.935C259.194 266.9 260.338 272.601 260.796 278.79C265.692 279.343 274.891 280.086 276.197 273.831C277.457 276.237 279.662 277.325 280.842 279.944L281.357 281.078C264.402 287.308 264.205 282.156 250.843 281.078C252.112 279.53 253.426 277.975 254.053 276.045C255.756 272.826 256.727 269.776 256.098 266.153C257.068 264.381 257.606 262.96 257.785 260.935Z"/>
	<defs>
		<linearGradient id="gradient_13" gradientUnits="userSpaceOnUse" x1="267.31558" y1="363.46512" x2="262.74466" y2="399.77094">
			<stop offset="0" stop-color="#382926"/>
			<stop offset="1" stop-color="#726261"/>
		</linearGradient>
	</defs>
	<path fill="url(#gradient_13)" transform="scale(2 2)" d="M243.924 395.288C250.036 389.23 248.614 375.397 246.903 367.7C246.542 366.075 243.931 361.248 245.865 360.229C246.782 360.945 247.614 364.865 248.03 366.095C250.817 366.971 255.628 372.879 259.677 374.956C262.851 373.8 268.596 369.993 271.161 369.68C271.701 367.655 272.353 365.873 273.344 364.017L273.323 364.312C272.545 374.176 269.419 384.935 276.68 393.398C277.31 394.132 278.234 395.306 279.187 395.519L279.327 395.288C279.938 396.066 280.366 396.354 281.357 396.397C283.56 396.479 285.733 396.566 287.935 396.397L287.755 397.322L287.935 397.536C276.588 401.336 272.069 391.986 269.793 382.563C262.848 383.624 257.247 383.781 250.277 383.746C249.889 386.694 249.709 389.921 248.741 392.733C251.014 392.769 253.282 392.768 255.555 392.733C255.828 393.594 255.999 394.39 256.098 395.288C253.89 396.286 249.651 396.013 247.319 395.288C244.423 396.478 241.402 397.237 238.287 397.536L238.287 396.397C245.584 396.319 240.183 389.07 243.477 386.073C245.567 387.735 244.212 393.029 243.924 395.288Z"/>
	<path fill="#F7F7F7" transform="scale(2 2)" d="M248.03 366.095C250.817 366.971 255.628 372.879 259.677 374.956C262.851 373.8 268.596 369.993 271.161 369.68C270.255 373.558 269.807 377.124 269.793 381.099C261.556 382.764 258.388 382.033 250.7 382.533L250.277 382.563C249.791 376.976 249.158 371.595 248.03 366.095Z"/>
	<path fill="#F7F7F7" transform="scale(2 2)" d="M173.258 243.448C173.682 244.087 168.483 255.525 167.998 257.106C166.615 261.619 165.823 266.329 164.498 270.872C154.872 303.896 153.418 321.034 167.63 352.708C174.849 368.796 181.425 376.762 197.574 384.33C205.884 388.224 207.74 385.248 213.728 392.89C227.813 410.862 243.42 400.93 245.295 401.846L244.714 402.491C236.004 408.788 219.441 407.293 212.483 399.307C204.336 389.955 206.026 391.986 194.891 387.46C170.734 377.642 161.146 351.375 157.639 327.21C154.724 307.134 160.467 260.574 173.258 243.448Z"/>
	<path fill="#F7F7F7" transform="scale(2 2)" d="M333.375 216.312C335.466 217.236 337.546 218.266 339.482 219.486L338.939 219.685C337.885 222.503 348.346 240.021 350.434 244.449C360.744 266.305 356.683 282.264 347.996 303.673C351.522 305.358 353.694 305.436 356.707 308.281C350.25 313.134 344.977 318.08 337.599 321.913C338.049 315.098 337.337 308.237 337.599 301.414C337.391 301.17 337.336 301.001 337.229 300.704L337.599 300.069C340.092 296.569 342.839 292.953 345.702 289.752C345.967 286.843 348.756 282.247 349.591 278.947C353.669 262.833 348.085 256.874 343.665 243.833L343.537 243.448L343.537 242.48C341.031 235.876 337.135 229.876 334.826 223.17C333.903 221.215 333.715 218.459 333.375 216.312Z"/>
	<path fill="#1D1919" transform="scale(2 2)" d="M345.702 289.752L345.702 290.538C344.276 293.343 340.15 299.89 337.599 301.414C337.391 301.17 337.336 301.001 337.229 300.704L337.599 300.069C340.092 296.569 342.839 292.953 345.702 289.752Z"/>
	<defs>
		<linearGradient id="gradient_14" gradientUnits="userSpaceOnUse" x1="347.43683" y1="267.92123" x2="351.76065" y2="267.6308">
			<stop offset="0" stop-color="#5D585D"/>
			<stop offset="1" stop-color="#958681"/>
		</linearGradient>
	</defs>
	<path fill="url(#gradient_14)" transform="scale(2 2)" d="M343.537 242.48L343.659 242.751C345.045 245.781 346.92 248.576 348.282 251.614C353.522 263.301 353.812 280.009 345.702 290.538L345.702 289.752C345.967 286.843 348.756 282.247 349.591 278.947C353.669 262.833 348.085 256.874 343.665 243.833L343.537 243.448L343.537 242.48Z"/>
	<path fill="#FCFCFC" transform="scale(2 2)" d="M323.096 213.392C324.66 212.973 326.647 213.821 328.269 213.952C329.945 214.776 331.619 215.672 333.375 216.312C333.159 218.853 333.385 220.718 334.061 223.17L334.826 223.17C337.135 229.876 341.031 235.876 343.537 242.48L343.537 243.448L343.665 243.833C348.085 256.874 353.669 262.833 349.591 278.947C348.756 282.247 345.967 286.843 345.702 289.752C342.839 292.953 340.092 296.569 337.599 300.069C335.641 288.713 335.959 281.282 331.796 269.089C330.374 263.29 328.057 257.328 325.318 252.018C324.998 251.163 324.821 250.192 324.588 249.305C324.048 249.251 323.636 249.192 323.096 249.305C321.157 244.557 318.375 239.941 316.859 235.063L316.859 233.972C315.852 232.561 314.872 231.19 313.665 229.94C317.089 225.139 322.765 219.571 323.096 213.392Z"/>
	<path fill="#584E4E" transform="scale(2 2)" d="M316.859 235.063L316.859 233.972C319.193 239.184 321.953 244.239 324.588 249.305C324.048 249.251 323.636 249.192 323.096 249.305C321.157 244.557 318.375 239.941 316.859 235.063Z"/>
	<path fill="#8C8888" transform="scale(2 2)" d="M334.061 223.17L334.826 223.17C337.135 229.876 341.031 235.876 343.537 242.48L343.537 243.448C340.302 240.016 334.917 228.005 334.061 223.17Z"/>
	<path fill="#FCFCFC" transform="scale(2 2)" d="M241.818 247.744C242.225 243.184 240.152 237.546 245.097 234.86C254.583 229.706 275.416 231.041 285.517 233.972C287.147 234.58 288.862 235.382 290.327 236.322C290.921 242.199 292.061 248.333 290.327 254.095C286.915 252.801 284.838 252.624 282.594 255.777C274.138 262.083 277.287 265.378 276.797 265.907C274.474 268.419 275.139 270.837 276.197 273.831C274.891 280.086 265.692 279.343 260.796 278.79C260.338 272.601 259.194 266.9 257.785 260.935C257.56 259.261 256.935 258.062 256.098 256.631C253.888 255.529 253.913 255.496 254.053 252.828C253.333 252.008 252.714 251.355 251.759 250.812C252.358 251.781 253.155 252.472 253.656 253.522L253.601 254.014C252.24 253.197 252.144 252.101 250.277 252.018C246.789 251.467 243.163 255.138 242.125 254.862L241.818 254.095C241.692 251.992 241.535 249.837 241.818 247.744Z"/>
	<path fill="#1D1919" transform="scale(2 2)" d="M241.818 247.744C241.931 249.44 241.863 251.132 241.818 252.828C244.513 251.444 248.769 248.911 251.759 250.812C252.358 251.781 253.155 252.472 253.656 253.522L253.601 254.014C252.24 253.197 252.144 252.101 250.277 252.018C246.789 251.467 243.163 255.138 242.125 254.862L241.818 254.095C241.692 251.992 241.535 249.837 241.818 247.744Z"/>
	<defs>
		<linearGradient id="gradient_15" gradientUnits="userSpaceOnUse" x1="268.55692" y1="237.76772" x2="269.45377" y2="243.2981">
			<stop offset="0" stop-color="#1A1317"/>
			<stop offset="1" stop-color="#523632"/>
		</linearGradient>
	</defs>
	<path fill="url(#gradient_15)" transform="scale(2 2)" d="M245.708 237.856C252.491 241.271 272.75 240.991 281.828 240.433C284.211 240.287 286.664 239.41 288.989 239.36C282.261 244.114 247.027 243.496 245.708 237.856Z"/>
	<path fill="#DC7F79" transform="scale(2 2)" d="M245.708 237.856C251.662 231.908 283.232 232.853 289.007 238.953L288.989 239.36C286.664 239.41 284.211 240.287 281.828 240.433C272.75 240.991 252.491 241.271 245.708 237.856Z"/>
	<path fill="#EAA9AB" transform="scale(2 2)" d="M261.686 235.063C264.287 234.803 278.694 234.067 279.915 236.635C278.839 236.904 277.206 236.821 276.197 236.322C273.169 235.899 270.17 236.676 267.149 236.434L266.605 235.766C265.383 235.247 260.036 235.851 257.553 235.306L261.686 235.063Z"/>
</svg>
