<?xml version="1.0" encoding="utf-8" ?>
<svg xmlns="http://www.w3.org/2000/svg" xmlns:xlink="http://www.w3.org/1999/xlink" width="1024" height="1024">
	<path fill="#262225" transform="scale(2 2)" d="M157.745 151.866C160.402 150.274 164.419 148.651 167.397 150.027L167.148 150.33L166.827 150.246C164.447 149.641 164.543 150.755 166.55 151.605L166.223 151.866C163.206 151.39 161.592 151.51 158.783 152.782L158.598 152.658L158.625 152.38L159.739 151.69L159.531 151.601C158.927 151.76 158.368 151.859 157.745 151.866Z"/>
	<path fill="#F6F3EC" transform="scale(2 2)" d="M177.035 157.008C180.104 158.327 185.14 154.501 187.962 153.155C221.676 137.077 260.145 130.512 297.263 133.42C311.122 134.506 328.818 134.905 339.426 145.427C347.083 153.022 347.151 150.322 355.606 154.846C362.894 158.746 365.99 163.138 371.808 168.045C366.631 160.115 365.961 162.156 361.393 157.545C359.977 156.115 355.646 153.28 355.515 153.11L355.8 152.86C360.853 153.453 369.731 162.551 373.231 166.993C379.679 175.178 390.232 192.422 384.005 203.008L383.801 203.36C383.76 203.43 383.717 203.499 383.675 203.569C392.139 207.982 399.96 216.22 402.831 225.449C406.914 236.699 407.678 243.074 406.126 255.041C402.976 264.059 397.801 266.899 394.375 274.108C393.18 276.622 392.939 279.629 392.159 282.286C389.394 291.707 384.682 299.314 378.483 306.745C373.024 313.288 378.653 309.073 378.109 314.88C377.339 323.097 381.702 328.584 377.65 339.401C374.45 347.943 360.459 358.484 352.627 362.197C352.311 362.346 337.834 366.671 345.262 367.115L345.491 367.128L345.69 367.429C339.988 373.496 322.329 379.782 315.739 379.544C311.762 379.4 304.973 375.104 301.832 378.977C292.495 379.682 274.096 379.865 266.611 376.277C262.444 374.279 263.524 374.264 263.972 370.01C264.086 368.926 266.04 368.77 266.8 368.088C264.056 368.047 261.397 368.747 258.667 368.85C246.662 369.304 231.577 369.691 220.516 365.027C210.135 360.649 205.769 362.332 195.101 361.974C176.082 361.335 142.665 346.7 135.568 327.615C135.281 326.844 132.627 314.642 132.408 313.203C132.145 311.474 133.544 311.961 134.613 311.263L134.616 311.019C124.1 304.221 112.158 303.431 106.278 287.372C103.158 278.851 106.915 261.884 110.509 254.202C115.732 243.042 127.664 227.595 139.112 223.58C140.341 223.925 140.995 224.224 142.163 223.58C133.241 209.539 132.708 189.05 138.692 173.915C141.887 165.833 149.567 155.422 157.745 151.866C158.368 151.859 158.927 151.76 159.531 151.601L159.739 151.69L158.625 152.38L158.598 152.658L158.783 152.782C161.592 151.51 163.206 151.39 166.223 151.866L166.55 151.605C164.543 150.755 164.447 149.641 166.827 150.246L167.148 150.33L167.397 150.027C169.213 150.679 170.59 152.244 171.538 153.878C173.734 154.322 175.63 155.222 177.035 157.008Z"/>
	<path fill="#262225" transform="scale(2 2)" d="M349.296 291.584C353.385 290.963 358.177 290.966 362.265 291.584C362.907 291.792 363.527 291.935 364.037 292.401L363.927 292.781C359.564 293.201 355.812 291.801 349.296 292.905C348.91 292.548 348.985 292.585 348.897 292.111L349.296 291.584Z"/>
	<path fill="#262225" transform="scale(2 2)" d="M354.426 282.988C357.033 282.063 359.517 281.656 362.265 281.39C367.749 281.944 372.349 283.87 375.505 288.428C371.811 286.14 368.724 283.097 364.05 282.988C360.841 282.399 357.517 282.877 354.426 283.841L354.16 283.599L354.426 282.988Z"/>
	<path fill="#262225" transform="scale(2 2)" d="M351.535 297.039C357.086 298.849 366.62 301.553 368.713 307.757C367.924 307.588 361.553 301.996 357.546 300.482C355.636 299.477 353.61 298.845 351.535 298.282C351.487 297.874 351.525 297.448 351.535 297.039Z"/>
	<path fill="#FEFEFE" transform="scale(2 2)" d="M158.783 152.782C161.592 151.51 163.206 151.39 166.223 151.866L167.397 151.866C165.39 151.672 163.103 150.671 163.015 153.303C161.071 155.807 154.943 157.136 152.303 158.938C150.8 159.963 149.531 162.749 147.761 163.147C150.485 159.143 154.998 155.744 158.783 152.782Z"/>
	<path fill="#FEFEFE" transform="scale(2 2)" d="M394.524 223.58C400.173 229.131 400.104 244.851 397.656 252.004L397.048 252.871L396.689 252.911C395.73 251.505 396.546 247.424 396.583 245.638C396.74 238.151 396.485 230.847 394.524 223.58Z"/>
	<path fill="#D5D0C5" transform="scale(2 2)" d="M354.426 283.841C357.517 282.877 360.841 282.399 364.05 282.988C362.701 283.06 361.387 283.042 360.038 282.988C360.761 284.495 361.47 286.008 362.265 287.478C364.475 287.545 375.607 287.764 375.437 290.756C372.195 292.464 362.84 286.755 362.265 291.584C358.177 290.966 353.385 290.963 349.296 291.584C348.774 290.422 350.075 286.144 350.377 284.719C351.72 284.39 353.072 284.116 354.426 283.841Z"/>
	<path fill="#DDD7CD" transform="scale(2 2)" d="M347.162 297.039C348.621 297.566 350.01 297.994 351.535 298.282C353.61 298.845 355.636 299.477 357.546 300.482L357.356 300.801C353.42 307.574 354.034 308.052 347.482 314.363C345.294 316.47 347.024 317.152 348.085 319.459C349.506 322.549 350.103 326.227 352.14 328.993C356.215 334.526 363.809 337.373 359.108 345.949C356.199 351.255 352.28 352.241 346.688 352.298C322.857 352.54 314.533 326.528 292.58 325.116C296.233 330.58 309.243 341.275 307.095 348.683L306.781 348.739C306.745 348.187 306.735 347.967 306.876 347.441C308.413 341.718 294.867 328.892 291.608 325.116C316.33 324.758 327.542 360.211 351.187 349.989C356.232 347.808 362.28 346.811 359.458 338.505C357.527 332.82 350.883 330.667 348.657 322.509C347.943 319.894 345.59 316.34 345.79 315.939C347.455 312.588 357.184 305.53 356.907 300.619C347.356 295.814 347.728 297.55 342.965 302.995C333.85 313.416 336.104 307.255 342.143 320.291C344.716 325.845 343.665 327.56 348.595 331.657C364.533 344.899 342.802 352.944 333.888 346.926C329.903 344.236 318.751 331.156 314.238 326.639C311.523 323.922 310.62 321.771 306.512 322.429C303.408 322.925 282.762 325.272 282.4 320.874C296.191 326.011 307.171 320.451 310.634 321.56L310.634 321.56C317.545 327.244 324.194 333.765 329.69 340.836L330.907 342.193L330.907 343.024C333.828 354.31 370.245 346.219 345.263 329.709C342.811 322.671 339.779 316.331 335.937 309.964C338.687 306.12 343.794 301.26 347.162 297.039Z"/>
	<path fill="#262225" transform="scale(2 2)" d="M310.634 321.56C317.545 327.244 324.194 333.765 329.69 340.836L330.907 342.193L330.907 343.024C327.781 340.399 312.05 324.166 310.634 321.56L310.634 321.56Z"/>
	<path fill="#DDD7CD" transform="scale(2 2)" d="M264.937 195.121L265.015 194.69L264.008 193.856L263.985 193.601C273.579 193.844 292.263 218.34 298.12 225.586C301.384 229.625 305.466 233.333 307.568 238.169C305.595 238.004 303.657 237.818 301.691 238.169C301.041 237.965 300.913 237.593 300.612 237.017C293.327 223.097 277.164 205.987 264.937 195.121Z"/>
	<path fill="#504B48" transform="scale(2 2)" d="M157.745 151.866C158.368 151.859 158.927 151.76 159.531 151.601L159.739 151.69L158.625 152.38L158.598 152.658L158.783 152.782C154.998 155.744 150.485 159.143 147.761 163.147C130.993 180.845 136.337 224.907 160.237 235.08C164.374 238.251 150.476 234.963 142.163 223.58C133.241 209.539 132.708 189.05 138.692 173.915C141.887 165.833 149.567 155.422 157.745 151.866Z"/>
	<path fill="#D5D0C5" transform="scale(2 2)" d="M171.538 153.878C173.734 154.322 175.63 155.222 177.035 157.008C181.116 169.139 169.384 179.897 168.229 192.068L168.229 194.15C167.175 197.712 170.029 206.43 169.26 207.569C168.601 207.691 167.854 207.776 167.397 208.32C168.177 209.004 169.699 211.088 167.713 211.211C166.126 211.31 164.207 209.068 166.223 208.32C166.838 207.361 167.998 207.284 169.068 207.022C169.097 203.188 167.531 199.257 166.839 195.514L167.519 194.595L167.418 194.294L165.415 193.625C165.213 193.19 165.105 192.739 164.999 192.276L164.515 192.029L163.424 193.742C160.449 195.103 162.295 195.977 164.568 195.81C165.689 196.844 165.4 198.554 165.712 199.937C169.869 200.919 164.74 202.804 162.463 201.949C162.468 199.925 163.479 200.556 164.131 199.227L163.038 198.585C157.953 200.039 163.035 208.171 164.964 211.698L165.076 211.901L164.852 212.234C161.603 209.429 160.457 201.512 160.237 197.435C158.004 176.705 175.498 171.345 171.538 153.878Z"/>
	<path fill="#DDD7CD" transform="scale(2 2)" d="M168.229 194.15C167.119 193.826 166.215 193.656 165.541 192.631L165.765 192.212C166.581 191.863 167.369 192.001 168.229 192.068L168.229 194.15Z"/>
	<path fill="#DDD7CD" transform="scale(2 2)" d="M162.463 201.949C163.172 199.482 164.141 199.821 166.223 200.792L166.676 201.007C166.26 202.207 163.534 201.851 162.463 201.949Z"/>
	<path fill="#D5D0C5" transform="scale(2 2)" d="M349.296 229.679C360.787 229.932 358.044 247.928 357.615 257.396C357.488 260.2 356.062 263.836 356.15 265.867C356.376 271.12 359.362 276.13 360.038 281.39C360.713 281.332 361.663 281.113 362.265 281.39C359.517 281.656 357.033 282.063 354.426 282.988C353.051 283.149 351.72 283.511 350.377 283.841C352.357 270.361 345.616 266.903 349.036 251.296C350.653 243.92 350.613 237.093 349.296 229.679Z"/>
	<path fill="#333035" transform="scale(2 2)" d="M166.223 151.866L166.55 151.605C164.543 150.755 164.447 149.641 166.827 150.246L167.148 150.33L167.397 150.027C169.213 150.679 170.59 152.244 171.538 153.878C175.498 171.345 158.004 176.705 160.237 197.435C160.457 201.512 161.603 209.429 164.852 212.234C165.806 213.797 166.683 215.194 167.397 216.892C185.975 178.479 231.935 171.084 264.937 195.121C277.164 205.987 293.327 223.097 300.612 237.017C300.913 237.593 301.041 237.965 301.691 238.169C300.713 238.548 299.106 238.866 298.069 238.764C292.525 231.702 288.019 223.921 282.578 216.774C259.621 186.619 218.452 173 186.765 198.041C174.173 207.992 169.503 221.389 165.218 236.017C164.201 239.491 162.288 242.381 162.463 246.117L162.053 247.868L162.031 247.777C161.965 248.154 161.962 248.44 161.718 248.75C161.465 244.386 161.935 240.272 162.463 235.945C164.306 231.186 164.653 224.547 167.397 217.663L166.722 217.252C159.54 212.79 156.392 203.991 156.214 195.873C155.887 181.06 177.095 157.633 167.397 151.866L166.223 151.866Z"/>
	<path fill="#333035" transform="scale(2 2)" d="M320.17 240.824L320.296 240.02C322.711 237.437 346.696 221.993 349.296 229.679C350.613 237.093 350.653 243.92 349.036 251.296C345.616 266.903 352.357 270.361 350.377 283.841C351.72 283.511 353.051 283.149 354.426 282.988L354.16 283.599L354.426 283.841C353.072 284.116 351.72 284.39 350.377 284.719C350.075 286.144 348.774 290.422 349.296 291.584L348.897 292.111C348.985 292.585 348.91 292.548 349.296 292.905C347.982 293.545 347.684 294.698 347.162 295.977C348.595 296.339 350.08 296.807 351.535 297.039C351.525 297.448 351.487 297.874 351.535 298.282C350.01 297.994 348.621 297.566 347.162 297.039C343.794 301.26 338.687 306.12 335.937 309.964C339.779 316.331 342.811 322.671 345.263 329.709C370.245 346.219 333.828 354.31 330.907 343.024L330.907 342.193L329.69 340.836C324.194 333.765 317.545 327.244 310.634 321.56L310.634 321.56C307.171 320.451 296.191 326.011 282.4 320.874C280.644 320.24 278.879 319.664 277.094 319.115C281.709 323.143 298.657 341.051 299.028 346.512C299.619 355.213 284.912 359.686 277.094 351.429C269.062 351.385 247.992 331.414 245.973 331.124C234.992 333.073 226.583 332.285 217.193 325.985C217.223 329.331 216.908 332.327 216.239 335.603C214.904 336.633 213.347 337.283 211.829 337.995C206.334 344.124 191.812 341.372 186.886 335.891L188.782 335.603C197.191 336.088 210.876 335.391 208.588 323.504C205.61 315.935 200.94 318.561 197.738 315.513C195.951 311.664 197.136 301.218 198.565 297.039C201.285 295.399 203.709 294.061 205.767 291.584C205.985 292.033 206.181 292.43 206.336 292.905C209.672 293.696 235.207 304.024 238.216 305.713C238.23 303.291 237.889 300.666 238.216 298.282C240.815 306.899 240.127 315.866 245.609 323.572C253.672 334.908 266.187 337.222 274.962 344.042C278.118 346.495 278.851 351.72 283.823 352.103C286.305 350.677 282.811 346.185 283.238 344.099C288.789 346.156 285.318 351.444 286.829 352.987C294.678 355.1 293.693 346.188 285.446 340.836C295.321 343.661 291.432 344.975 294.575 349.691L294.895 349.747C296.182 348.256 296.479 346.267 296.497 344.35C294.627 340.491 273.936 318.931 269.787 314.659C270.169 313.95 270.506 313.456 271.06 312.872C288.586 326.185 333.602 318.216 343.009 297.039C338.571 297.159 336.658 298.688 332.744 299.462C336.492 296.718 339.276 296.114 343.832 295.977C345.385 292.822 346.589 289.639 347.162 286.162C341.854 288.368 337.72 292.321 332.744 295.032C335.977 290.312 342.669 287.276 347.701 284.719C348.055 277.721 347.807 270.164 345.263 263.591C345.732 253.348 348.865 244.301 347.701 233.778C347.545 232.077 347.388 230.381 347.162 228.687C341.066 230.577 323.488 240.591 320.17 240.824Z"/>
	<path fill="#F6F3EC" transform="scale(2 2)" d="M229.485 305.154C232.408 305.927 235.293 306.841 238.216 307.615C238.551 310.607 238.897 313.579 239.409 316.546C239.036 317.022 238.693 317.484 238.216 317.863C236.72 314.28 234.871 313.262 231.189 311.97C230.366 309.759 229.896 307.47 229.485 305.154Z"/>
	<path fill="#F6F3EC" transform="scale(2 2)" d="M332.744 312.872L333.469 312.389C336.236 313.204 341.389 327.85 342.293 330.452C347.131 332.163 350.465 334.852 351.535 339.975C351.001 341.68 350.424 342.934 349.296 344.35C349.621 339.58 349.33 336.694 345.263 333.956C347.988 338.961 350.172 344.649 343.009 346.319C344.225 342.922 345.021 336.534 339.962 335.647C339.778 337.413 344.65 342.294 340.914 345.258C338.362 347.282 332.854 343.726 330.907 342.193L329.69 340.836C333.231 337.634 335.113 333.654 339.198 330.452C337.753 324.788 333.412 316.166 332.744 312.872Z"/>
	<defs>
		<linearGradient id="gradient_0" gradientUnits="userSpaceOnUse" x1="313.38181" y1="317.62036" x2="338.23724" y2="330.50681">
			<stop offset="0" stop-color="#8B8A8B"/>
			<stop offset="1" stop-color="#B2B0AF"/>
		</linearGradient>
	</defs>
	<path fill="url(#gradient_0)" transform="scale(2 2)" d="M310.634 321.56C312.139 320.233 319.542 318.711 321.872 317.8C325.578 316.352 329.017 314.302 332.744 312.872C333.412 316.166 337.753 324.788 339.198 330.452C335.113 333.654 333.231 337.634 329.69 340.836C324.194 333.765 317.545 327.244 310.634 321.56Z"/>
	<path fill="#8F8E8E" transform="scale(2 2)" d="M328.778 319.115L328.937 319.745C330.028 320.508 328.248 324.723 327.174 325.116C327.396 324.5 327.887 324.075 328.321 323.593C328.358 322.449 326.53 322.216 327.542 321.111C328.141 320.455 328.5 319.947 328.778 319.115Z"/>
	<path fill="#8F8E8E" transform="scale(2 2)" d="M321.8 328.093C323.409 328.22 328.219 328.441 324.797 330.452C322.975 332.049 320.914 330.109 321.8 328.093Z"/>
	<path fill="#D5D0C5" transform="scale(2 2)" d="M206.336 294.173C212.945 298.433 219.95 301.415 227.175 304.45C227.631 307.512 227.921 310.135 229.485 312.872C234.278 315.853 240.235 319.664 233.324 324.586C233.434 321.617 233.181 317.219 230.029 315.723L229.659 315.907C229.791 320.284 237.386 326.426 221.471 323.504C219.901 322.515 218.088 321.849 216.691 320.596C209.282 313.945 209.743 302.239 206.336 295.032C206.291 294.871 206.333 294.349 206.336 294.173Z"/>
	<path fill="#DDD7CD" transform="scale(2 2)" d="M205.767 291.584C205.985 292.033 206.181 292.43 206.336 292.905L206.058 293.224L206.336 294.173C206.333 294.349 206.291 294.871 206.336 295.032C209.743 302.239 209.282 313.945 216.691 320.596C218.088 321.849 219.901 322.515 221.471 323.504L220.987 323.583C220.415 323.306 219.74 322.787 219.129 322.972C219.711 323.783 220.889 323.667 221.569 324.383L221.471 324.586C226.504 327.353 245.514 326.537 238.216 317.863C238.693 317.484 239.036 317.022 239.409 316.546C241.499 322.729 243.339 326.039 248.264 330.452C258.61 338.964 264.593 340.38 274.777 346.319C275.388 348.172 275.93 349.835 277.094 351.429C269.062 351.385 247.992 331.414 245.973 331.124C234.992 333.073 226.583 332.285 217.193 325.985C217.223 329.331 216.908 332.327 216.239 335.603C214.904 336.633 213.347 337.283 211.829 337.995C206.334 344.124 191.812 341.372 186.886 335.891L188.782 335.603C197.191 336.088 210.876 335.391 208.588 323.504C205.61 315.935 200.94 318.561 197.738 315.513C195.951 311.664 197.136 301.218 198.565 297.039C201.285 295.399 203.709 294.061 205.767 291.584Z"/>
	<path fill="#262225" transform="scale(2 2)" d="M206.336 295.032C209.743 302.239 209.282 313.945 216.691 320.596C218.088 321.849 219.901 322.515 221.471 323.504L220.987 323.583C220.415 323.306 219.74 322.787 219.129 322.972C219.711 323.783 220.889 323.667 221.569 324.383L221.471 324.586C210.864 321.171 206.952 304.743 206.336 295.032Z"/>
	<path fill="#F6F3EC" transform="scale(2 2)" d="M320.17 240.824C323.488 240.591 341.066 230.577 347.162 228.687C347.388 230.381 347.545 232.077 347.701 233.778C348.865 244.301 345.732 253.348 345.263 263.591C347.807 270.164 348.055 277.721 347.701 284.719C342.669 287.276 335.977 290.312 332.744 295.032C337.72 292.321 341.854 288.368 347.162 286.162C346.589 289.639 345.385 292.822 343.832 295.977C339.276 296.114 336.492 296.718 332.744 299.462C336.658 298.688 338.571 297.159 343.009 297.039C333.602 318.216 288.586 326.185 271.06 312.872C270.506 313.456 270.169 313.95 269.787 314.659C268.348 315.753 264.372 321.343 263.279 321.427L263.245 320.992C264.517 318.386 266.874 316.066 268.771 313.88C267.172 312.702 265.989 311.669 264.937 309.964L263.971 309.047C262.086 308.551 258.287 311.835 256.231 312.485L256.06 312.378C256.646 310.791 261.091 309.04 262.578 308.248C261.721 306.921 260.598 305.683 259.605 304.45L257.406 301.552C255.009 302.462 253.486 304.021 251.292 305.154C252.985 303.132 253.698 302.492 255.708 300.754L256.019 300.482C248.596 285.46 249.642 279.504 256.019 265.626C251.283 257.988 251.949 238.303 257.227 231.963C261.364 226.993 279.012 238.137 282.4 241.493C287.548 240.152 292.698 238.626 298.069 238.764C299.106 238.866 300.713 238.548 301.691 238.169C303.657 237.818 305.595 238.004 307.568 238.169C311.009 238.168 317.35 238.498 320.17 240.824Z"/>
	<path fill="#262225" transform="scale(2 2)" d="M314.72 299.907C316.036 300.745 317.506 300.333 318.769 301.028C317.814 302.96 314.981 301.302 313.88 300.482L314.72 299.907Z"/>
	<path fill="#262225" transform="scale(2 2)" d="M264.937 247.865C265.906 248.066 266.959 248.373 267.629 249.134L267.59 249.678L266.828 250.19C263.884 250.87 263.028 250.503 264.937 247.865Z"/>
	<path fill="#262225" transform="scale(2 2)" d="M266.828 255.041C267.508 255.201 267.888 255.382 268.45 255.798L268.457 256.156C267.286 257.127 265.316 257.192 263.846 257.345C263.168 257.406 262.558 257.519 261.969 257.138L262.177 256.747C263.685 255.842 265.125 255.394 266.828 255.041Z"/>
	<path fill="#262225" transform="scale(2 2)" d="M343.009 235.945C341.764 239.483 333.162 244.076 335.937 250.19L335.811 250.623L335.387 250.743C331.456 246.52 339.401 237.619 343.009 235.945Z"/>
	<path fill="#262225" transform="scale(2 2)" d="M316.688 279.366C315.789 274.698 322.012 268.477 326.163 267.666C326.254 268.142 326.164 267.925 326.427 268.319L326.849 268.333C327.186 268.58 327.099 268.423 327.174 268.759C320.164 270.958 320.372 274.265 316.688 279.366Z"/>
	<path fill="#262225" transform="scale(2 2)" d="M263.846 240.824C268.741 242.262 273.195 249.051 274.777 253.853C272.149 252.774 269.471 251.325 269.348 254.886L268.771 255.041C267.802 254.52 266.826 254.456 266.37 253.306L266.664 252.737C268.46 251.682 271.332 251.629 273.345 252.004C270.943 247.356 267.417 244.863 264.135 241.156L263.846 240.824Z"/>
	<path fill="#262225" transform="scale(2 2)" d="M277.094 281.39C279.308 271.083 290.122 266.66 296.497 276.937L295.7 276.937C285.638 264.368 269.955 279.394 285.446 288.428C283.914 289.157 284.835 288.188 285.446 289.604C281.731 287.97 278.821 285.025 277.094 281.39Z"/>
	<path fill="#262225" transform="scale(2 2)" d="M263.846 307.615C268.018 304.587 272.557 302.031 277.778 301.552C275.309 302.693 263.26 306.357 264.937 309.16C266.706 309.797 268.409 311.62 269.787 312.872C273.897 308.754 278.248 305.172 283.975 303.678C279.257 307.259 276.096 308.2 271.06 312.872C270.506 313.456 270.169 313.95 269.787 314.659C268.348 315.753 264.372 321.343 263.279 321.427L263.245 320.992C264.517 318.386 266.874 316.066 268.771 313.88C267.172 312.702 265.989 311.669 264.937 309.964L263.971 309.047C262.086 308.551 258.287 311.835 256.231 312.485L256.06 312.378C256.646 310.791 261.091 309.04 262.578 308.248C261.721 306.921 260.598 305.683 259.605 304.45L260.326 303.678C261.45 305.044 262.627 306.334 263.846 307.615Z"/>
	<defs>
		<linearGradient id="gradient_1" gradientUnits="userSpaceOnUse" x1="322.39139" y1="270.97223" x2="331.71655" y2="281.5097">
			<stop offset="0" stop-color="#2A2828"/>
			<stop offset="1" stop-color="#434242"/>
		</linearGradient>
	</defs>
	<path fill="url(#gradient_1)" transform="scale(2 2)" d="M326.163 267.666C329.808 266.615 333.448 269.455 334.373 272.924C336.284 280.088 326.074 290.194 320.17 284.719C329.037 286.481 321.739 279.339 332.744 273.489C331.54 271.027 329.941 269.432 327.174 268.759C327.099 268.423 327.186 268.58 326.849 268.333L326.427 268.319C326.164 267.925 326.254 268.142 326.163 267.666Z"/>
	<path fill="#333035" transform="scale(2 2)" d="M296.497 276.937C303.152 283.932 292.651 295.132 285.446 289.604C284.835 288.188 283.914 289.157 285.446 288.428C286.862 288.828 288.678 289.436 290.149 289.2L290.326 288.916C287.784 283.245 289.647 278.918 296.011 278.174L296.17 277.916L295.7 276.937L296.497 276.937Z"/>
	<path fill="#333035" transform="scale(2 2)" d="M311.227 295.977C310.162 295.046 303.786 291.348 305.346 289.781C307.231 287.889 315.175 286.115 317.461 288.504C319.023 292.491 310.504 293.791 314.514 299.614L314.72 299.907L313.88 300.482C313.164 299.824 312.66 299.079 312.11 298.282C309.078 304.086 302.526 306.776 302.96 301.699L303.326 301.58C307.912 303.018 309.734 300.02 311.227 295.977Z"/>
	<path fill="#504B48" transform="scale(2 2)" d="M256.019 265.626L256.623 266.44L257.406 265.626C252.867 278.333 251.244 286.21 258.502 299.462C262.898 297.067 273.057 293.785 278.222 295.269C271.849 297.804 267.693 295.421 258.502 300.482C259.104 301.521 259.837 302.586 260.326 303.678L259.605 304.45L257.406 301.552C255.009 302.462 253.486 304.021 251.292 305.154C252.985 303.132 253.698 302.492 255.708 300.754L256.019 300.482C248.596 285.46 249.642 279.504 256.019 265.626Z"/>
	<path fill="#FEFEFE" transform="scale(2 2)" d="M327.174 268.759C329.941 269.432 331.54 271.027 332.744 273.489C321.739 279.339 329.037 286.481 320.17 284.719C317.636 284.499 315.405 281.94 316.688 279.366C320.372 274.265 320.164 270.958 327.174 268.759Z"/>
	<path fill="#FEFEFE" transform="scale(2 2)" d="M285.446 288.428C269.955 279.394 285.638 264.368 295.7 276.937L296.17 277.916L296.011 278.174C289.647 278.918 287.784 283.245 290.326 288.916L290.149 289.2C288.678 289.436 286.862 288.828 285.446 288.428Z"/>
	<path fill="#D5D0C5" transform="scale(2 2)" d="M347.701 233.778C348.865 244.301 345.732 253.348 345.263 263.591C341.78 260.031 341.973 251.303 336.207 250.006L336.021 249.539C337.048 249.323 338.073 250.244 339.198 250.19C338.185 249.58 337.033 249.19 335.937 248.75C335.729 249.335 335.778 249.596 335.937 250.19C333.162 244.076 341.764 239.483 343.009 235.945C344.516 234.914 345.96 234.284 347.701 233.778Z"/>
	<path fill="#262225" transform="scale(2 2)" d="M335.937 248.75C338.51 247.278 341.061 245.462 343.832 244.404C342.462 246.021 340.795 247.365 339.198 248.75C343.031 251.674 343.925 252.038 339.198 250.19C338.185 249.58 337.033 249.19 335.937 248.75Z"/>
	<defs>
		<linearGradient id="gradient_2" gradientUnits="userSpaceOnUse" x1="319.67795" y1="229.94339" x2="251.25854" y2="250.36272">
			<stop offset="0" stop-color="#292828"/>
			<stop offset="1" stop-color="#4D4C4D"/>
		</linearGradient>
	</defs>
	<path fill="url(#gradient_2)" transform="scale(2 2)" d="M256.019 265.626C251.283 257.988 251.949 238.303 257.227 231.963C261.364 226.993 279.012 238.137 282.4 241.493C287.548 240.152 292.698 238.626 298.069 238.764C299.106 238.866 300.713 238.548 301.691 238.169C303.657 237.818 305.595 238.004 307.568 238.169C311.009 238.168 317.35 238.498 320.17 240.824C321.521 241.437 323.091 241.975 324.236 242.926L324.363 243.275C322.317 244.713 316.007 241.958 313.649 241.649C306.144 240.668 292.772 242.15 285.446 244.404C287.901 253.086 286.858 249.962 281.982 246.2C277.848 243.011 264.573 232.737 259.605 233.778C252.568 244.512 257.425 255.568 257.406 265.626L256.623 266.44L256.019 265.626Z"/>
	<path fill="#F6F3EC" transform="scale(2 2)" d="M162.463 246.117C162.288 242.381 164.201 239.491 165.218 236.017C169.503 221.389 174.173 207.992 186.765 198.041C218.452 173 259.621 186.619 282.578 216.774C288.019 223.921 292.525 231.702 298.069 238.764C292.698 238.626 287.548 240.152 282.4 241.493C279.012 238.137 261.364 226.993 257.227 231.963C251.949 238.303 251.283 257.988 256.019 265.626C249.642 279.504 248.596 285.46 256.019 300.482L255.708 300.754C253.698 302.492 252.985 303.132 251.292 305.154C253.486 304.021 255.009 302.462 257.406 301.552L259.605 304.45C260.598 305.683 261.721 306.921 262.578 308.248C261.091 309.04 256.646 310.791 256.06 312.378L256.231 312.485C258.287 311.835 262.086 308.551 263.971 309.047L264.937 309.964C265.989 311.669 267.172 312.702 268.771 313.88C266.874 316.066 264.517 318.386 263.245 320.992L263.279 321.427C264.372 321.343 268.348 315.753 269.787 314.659C273.936 318.931 294.627 340.491 296.497 344.35C296.479 346.267 296.182 348.256 294.895 349.747L294.575 349.691C291.432 344.975 295.321 343.661 285.446 340.836C293.693 346.188 294.678 355.1 286.829 352.987C285.318 351.444 288.789 346.156 283.238 344.099C282.811 346.185 286.305 350.677 283.823 352.103C278.851 351.72 278.118 346.495 274.962 344.042C266.187 337.222 253.672 334.908 245.609 323.572C240.127 315.866 240.815 306.899 238.216 298.282C237.889 300.666 238.23 303.291 238.216 305.713C235.207 304.024 209.672 293.696 206.336 292.905C206.181 292.43 205.985 292.033 205.767 291.584C203.709 294.061 201.285 295.399 198.565 297.039C197.136 301.218 195.951 311.664 197.738 315.513C200.94 318.561 205.61 315.935 208.588 323.504C210.876 335.391 197.191 336.088 188.782 335.603C184.913 334.89 181.27 333.653 178.748 330.452C167.849 320.28 155.301 259.282 161.718 248.75C161.962 248.44 161.965 248.154 162.031 247.777L162.053 247.868L162.463 246.117Z"/>
	<path fill="#504B48" transform="scale(2 2)" d="M161.718 248.75C161.962 248.44 161.965 248.154 162.031 247.777L162.053 247.868L162.463 246.117C161.49 264.375 170.495 311.818 178.748 330.452C167.849 320.28 155.301 259.282 161.718 248.75Z"/>
	<path fill="#504B48" transform="scale(2 2)" d="M175.539 288.428C178.468 289.8 180.626 292.316 183.731 293.472C195.026 297.676 205.262 291.773 209.043 280.721C212.136 271.681 208.231 261.961 204.33 253.853C212.866 265.226 218.717 280.531 205.767 291.584C203.709 294.061 201.285 295.399 198.565 297.039C197.136 301.218 195.951 311.664 197.738 315.513C200.94 318.561 205.61 315.935 208.588 323.504C210.876 335.391 197.191 336.088 188.782 335.603C184.913 334.89 181.27 333.653 178.748 330.452C186.107 333.005 200.291 337.093 192.59 324.244C195.24 321.234 197.489 330.579 197.013 333.956C198.397 333.398 199.758 332.748 201.124 332.144C203.226 327.338 201.819 325.45 198.565 321.56C206.954 324.288 202.447 327.144 204.859 330.154C207.279 328.858 206.154 324.529 205.117 322.711C203.382 319.671 198.697 318.652 195.556 317.863C193.753 310.962 193.979 304.111 194.046 297.039C186.441 298.035 180.318 294.225 175.539 288.428Z"/>
</svg>
