<?xml version="1.0" encoding="utf-8" ?>
<svg xmlns="http://www.w3.org/2000/svg" xmlns:xlink="http://www.w3.org/1999/xlink" width="1024" height="1024">
	<defs>
		<linearGradient id="gradient_0" gradientUnits="userSpaceOnUse" x1="132.02762" y1="292.9173" x2="131.20026" y2="290.26172">
			<stop offset="0" stop-color="#000002"/>
			<stop offset="1" stop-color="#22201B"/>
		</linearGradient>
	</defs>
	<path fill="url(#gradient_0)" transform="scale(2 2)" d="M133.96 289.339C135.369 288.776 136.655 287.992 137.963 287.233L137.963 288.489L133.96 290.585C128.267 294.06 124.099 298.847 119.309 303.336C122.918 297.387 127.889 292.688 133.96 289.339Z"/>
	<defs>
		<linearGradient id="gradient_1" gradientUnits="userSpaceOnUse" x1="113.60669" y1="286.34091" x2="118.77171" y2="271.54114">
			<stop offset="0" stop-color="black"/>
			<stop offset="1" stop-color="#353334"/>
		</linearGradient>
	</defs>
	<path fill="url(#gradient_1)" transform="scale(2 2)" d="M108.627 280.4C115.14 277.334 119.771 275.079 127.256 274.043C127.536 274.492 127.753 274.874 128.147 275.236C121.991 277.431 116.837 277.625 110.519 280.795C109.342 281.386 105.094 284.239 104.27 284.14C103.858 282.273 107.444 281.303 108.627 280.4Z"/>
	<path fill="#504B48" transform="scale(2 2)" d="M130.567 283.319C132.209 281.853 135.047 281.595 137.154 281.161C138.063 282.993 138.997 285.148 140.856 286.198C139.907 286.709 139.008 286.978 137.963 287.233C136.655 287.992 135.369 288.776 133.96 289.339C132.661 287.504 131.756 285.262 130.567 283.319Z"/>
	<path fill="#262225" transform="scale(2 2)" d="M139.457 280.4C142.647 279.495 150.88 277.362 153.827 278.697L153.827 278.967C151.833 279.902 143.142 280.609 140.068 281.161C139.096 281.13 138.124 281.071 137.154 281.161C135.047 281.595 132.209 281.853 130.567 283.319L130.187 283.319C120.599 286.236 118.485 289.469 111.25 295.269L111.392 295.027C115.539 288.085 122.498 283.868 130.187 281.931L130.187 281.931C132.6 281.656 134.626 280.394 137.154 280.4C137.924 280.38 138.687 280.381 139.457 280.4Z"/>
	<path fill="#ECE8E2" transform="scale(2 2)" d="M125.884 334.19C121.187 326.077 128.007 301.423 138.581 297.664C139.676 298.903 140.766 300.099 141.983 301.219C140.974 303.213 139.241 304.683 138.074 306.568C133.874 313.351 129.449 325.444 133.96 333.009C131.539 333.767 130.658 334.001 130.605 336.612L130.567 338.27C129.29 337.134 127.411 334.743 125.884 334.19Z"/>
	<defs>
		<linearGradient id="gradient_2" gradientUnits="userSpaceOnUse" x1="251.05847" y1="356.56219" x2="254.26097" y2="159.49452">
			<stop offset="0" stop-color="#CCC4BE"/>
			<stop offset="1" stop-color="#FBFCFC"/>
		</linearGradient>
	</defs>
	<path fill="url(#gradient_2)" transform="scale(2 2)" d="M228.1 179.163C241.037 170.217 262.721 162.286 277.908 160.84C292.042 159.494 305.035 159.23 318.727 163.606C328.788 166.822 338.097 170.021 347.11 175.852C349.166 177.182 350.696 179.173 352.699 180.556C354.752 181.972 357.223 182.702 359.338 184.015C368.079 189.439 378.994 209.072 384.009 219.497C392.668 237.497 398.501 257.836 398.653 277.878C398.739 289.258 401.153 308.447 399.506 317.45C398.386 323.568 392.336 333.146 387.234 336.661C368.414 349.626 348.723 351.243 327.173 353.998C306.057 356.698 283.12 359.784 262.018 355.732C245.437 352.549 251.289 348.891 246.78 346.465C243.48 346.125 239.778 346.97 236.487 347.355C210.696 350.373 176.602 352.338 151.297 349.826C138.295 348.536 131.73 347.289 125.884 334.19C127.411 334.743 129.29 337.134 130.567 338.27L130.605 336.612C130.658 334.001 131.539 333.767 133.96 333.009C136.483 337.842 140.65 339.69 145.638 341.022C156.407 343.415 174.435 348.755 182.42 338.27C185.088 350.301 208.62 343.631 217.931 342.766C229.032 341.735 240.364 341.476 251.36 339.567C250.381 353.518 266.74 349.785 275.509 348.792C303.251 345.65 331.198 345.144 358.627 339.575C389.756 333.255 399.209 315.036 392.234 285.498C391.847 283.858 391.567 281.883 390.776 280.4C395.843 261.892 386.081 231.025 376.137 215.191C368.275 202.671 341.284 178.324 326.062 174.854C294.47 157.171 254.114 173.13 225.752 189.856C223.495 185.904 221.184 181.862 217.402 179.163C210.795 181.596 198.029 195.709 192.975 201.495C181.114 200.315 161.806 205.798 152.309 212.639C147.112 209.882 120.99 198.158 116.905 206.244C113.995 212.004 119.678 230.252 121.946 236.355C126.022 247.322 126.207 244.497 126.247 256.21C126.267 262.278 126.715 268.134 128.147 274.043L127.256 274.043C119.771 275.079 115.14 277.334 108.627 280.4L108.122 280.188C107.07 280.725 106.109 281.272 105.141 281.956L104.823 281.856C105.672 275.39 114.168 270.489 119.95 269.31C118.236 251.333 119.75 256.044 113.944 238.92C110.903 229.952 106.848 212.686 108.823 204.124C112.53 188.053 143.3 198.72 152.309 202.436L152.646 202.296C155.297 201.184 157.721 199.598 160.368 198.497C170.962 194.091 179.378 195.274 188.956 192.807C196.635 186.648 208.44 168.54 218.077 169.479C222.98 169.956 225.668 175.502 228.1 179.163Z"/>
	<path fill="#FEFEFE" transform="scale(2 2)" d="M180.669 344.727C181.573 344.756 184.041 347.124 184.869 347.778C183.473 347.663 182.068 347.741 180.669 347.778C179.029 347.66 177.487 347.644 175.848 347.778C177.301 346.383 178.881 345.609 180.669 344.727Z"/>
	<path fill="#FEFEFE" transform="scale(2 2)" d="M130.567 338.27L130.605 336.612C130.658 334.001 131.539 333.767 133.96 333.009C136.483 337.842 140.65 339.69 145.638 341.022C141.293 343.443 133.511 342.521 130.567 338.27Z"/>
	<path fill="#ECE8E2" transform="scale(2 2)" d="M225.752 189.856C254.114 173.13 294.47 157.171 326.062 174.854C341.284 178.324 368.275 202.671 376.137 215.191C386.081 231.025 395.843 261.892 390.776 280.4C391.567 281.883 391.847 283.858 392.234 285.498C399.209 315.036 389.756 333.255 358.627 339.575C331.198 345.144 303.251 345.65 275.509 348.792C266.74 349.785 250.381 353.518 251.36 339.567C240.364 341.476 229.032 341.735 217.931 342.766C208.62 343.631 185.088 350.301 182.42 338.27C174.435 348.755 156.407 343.415 145.638 341.022C140.65 339.69 136.483 337.842 133.96 333.009C129.449 325.444 133.874 313.351 138.074 306.568C139.241 304.683 140.974 303.213 141.983 301.219C140.766 300.099 139.676 298.903 138.581 297.664C136.907 295.427 135.193 293.101 133.96 290.585L137.963 288.489L137.963 287.233C139.008 286.978 139.907 286.709 140.856 286.198C138.997 285.148 138.063 282.993 137.154 281.161C138.124 281.071 139.096 281.13 140.068 281.161C143.142 280.609 151.833 279.902 153.827 278.967L153.827 278.697C150.88 277.362 142.647 279.495 139.457 280.4C138.687 280.381 137.924 280.38 137.154 280.4C134.626 280.394 132.6 281.656 130.187 281.931C129.999 280.013 129.066 276.929 128.147 275.236L128.147 275.236C127.753 274.874 127.536 274.492 127.256 274.043L128.147 274.043C126.715 268.134 126.267 262.278 126.247 256.21C126.207 244.497 126.022 247.322 121.946 236.355C119.678 230.252 113.995 212.004 116.905 206.244C120.99 198.158 147.112 209.882 152.309 212.639C161.806 205.798 181.114 200.315 192.975 201.495C198.029 195.709 210.795 181.596 217.402 179.163C221.184 181.862 223.495 185.904 225.752 189.856Z"/>
	<path fill="#979190" transform="scale(2 2)" d="M328.087 330.149C319.358 328.57 332.406 328.333 334.062 331.771C333.51 331.903 332.702 331.42 332.163 331.21C331.185 330.611 329.221 330.283 328.087 330.149Z"/>
	<path fill="#262225" transform="scale(2 2)" d="M196.58 339.567C197.168 336.643 198.522 334.795 200.865 333.009C200.194 335.673 198.607 337.712 197.509 340.18L196.58 339.567Z"/>
	<path fill="#FEFEFE" transform="scale(2 2)" d="M360.407 232.676C364.186 234.784 365.653 242.222 366.152 246.163C363.18 246.149 360.416 235.121 360.407 232.676Z"/>
	<path fill="#FEFEFE" transform="scale(2 2)" d="M369.349 230.311C372.711 231.805 376.23 245.612 375.74 248.875C373.746 247.786 368.954 233.515 369.349 230.311Z"/>
	<path fill="#FEFEFE" transform="scale(2 2)" d="M366.152 232.676C370.28 233.141 371.456 244.614 370.72 247.541C367.308 245.875 365.657 236.011 366.152 232.676Z"/>
	<path fill="#262225" transform="scale(2 2)" d="M184.869 330.149C193.219 317.888 214.469 306.327 230.555 307.756C225.562 308.676 220.163 308.816 215.342 310.36C207.306 312.932 191.788 324.246 186.119 330.685C186.139 330.279 186.105 329.978 186.005 329.584L185.288 330.222L184.869 330.149Z"/>
	<path fill="#FEFEFE" transform="scale(2 2)" d="M289.676 183.335C290.326 183.247 290.869 183.265 291.518 183.316L291.625 183.59C287.581 188.288 268.361 189.997 260.855 194.697C260.145 194.735 259.705 194.845 259.056 194.535L259.161 194.094C263.95 189.286 281.761 184.794 289.676 183.335Z"/>
	<path fill="#FEFEFE" transform="scale(2 2)" d="M275.774 176.313C276.826 176.179 278.031 175.965 278.968 176.509L278.882 176.751C278.468 177.918 253.423 184.773 246.889 189.856L243.158 191.342C251.858 182.58 263.961 178.632 275.774 176.313Z"/>
	<path fill="#B3A598" transform="scale(2 2)" d="M332.163 314.197C333.613 313.012 341.464 312.697 343.604 312.294C352.24 310.668 359.004 307.729 366.346 302.82C368.163 301.605 369.921 299.32 372.23 299.339C362.809 316.073 341.606 321.016 323.753 319.043C326.295 317.929 332.258 318.835 335.322 318.685C350.682 317.934 362.509 312.36 371.397 299.955L371.315 299.758L370.726 299.887C368.188 303.425 356.773 309.403 351.747 310.755C349.928 311.244 347.282 311.335 345.715 312.465C346.337 312.695 347.47 312.211 348.138 312.028L348.371 312.265C347.425 313.684 346.097 312.799 344.932 313.619C345.926 313.693 346.863 313.663 347.327 314.671C345.786 318.811 340.514 314.031 338.195 313.574C336.7 313.279 334.419 313.746 332.871 313.886C332.934 314.236 335.98 315.125 336.64 315.685L336.581 316.122L336.091 316.307C331.193 315.595 315.136 311.326 313.742 306.82C314.666 306.549 317.036 309.112 317.8 309.681C320.404 311.62 323.057 311.874 326.062 312.697C328.097 313.334 330.067 313.819 332.163 314.197Z"/>
	<path fill="#979190" transform="scale(2 2)" d="M332.163 314.197C332.814 314.899 334.259 315.152 335.157 315.407L335.005 315.791L335.858 315.625L335.206 316.235L335.077 315.567C331.853 315.092 329.017 314.751 326.096 313.187L326.062 312.697C328.097 313.334 330.067 313.819 332.163 314.197Z"/>
	<path fill="#FEFEFE" transform="scale(2 2)" d="M289.676 177.107C291.223 176.962 292.838 177.076 294.392 177.107C290.194 180.011 275.861 183.118 270.051 185.27C265.478 186.964 261.112 189.162 256.443 190.604C254.783 190.957 253.043 191.114 251.36 191.342C257.913 185.798 279.763 177.955 289.676 177.107Z"/>
	<path fill="#FEFEFE" transform="scale(2 2)" d="M316.849 184.3C322.153 183.677 355.741 203.099 356.214 208.86C352.871 207.903 317.046 185.103 316.849 184.3Z"/>
	<path fill="#D5D0C5" transform="scale(2 2)" d="M279.607 281.161C281.745 282.296 282.244 285.787 283.502 287.709C284.892 289.832 284.861 288.788 286.439 291.859L286.933 291.899C287.278 291.265 287.396 290.316 287.565 289.602L286.83 288.579L286.933 288.127L287.301 288.07C289.587 289.689 295.201 298.96 297.784 301.875C300.461 304.897 308.533 310.561 311.869 310.757C311.567 310.275 311.086 309.755 311.092 309.185C313.065 309.732 312.85 312.62 314.875 310.233C315.938 310.515 317.382 312.085 318.36 312.793L318.819 312.697C322.885 315.832 325.089 312.22 321.793 314.868L322.279 315.655C320.781 316.401 316.087 311.435 314.013 311.407C311.919 311.38 305.774 308.936 302.651 308.161C296.877 306.726 292.674 303.367 289.338 298.666C287.71 296.372 279.866 282.996 279.607 281.161Z"/>
	<path fill="#FEFEFE" transform="scale(2 2)" d="M312.048 186.282C316.78 185.77 321.565 190.457 325.287 192.844C334.375 198.67 350.785 208.23 356.214 217.622C352.522 217.161 325.176 195.837 319.881 191.926C317.571 190.22 313.698 188.542 312.048 186.282Z"/>
	<path fill="#B3A598" transform="scale(2 2)" d="M226.839 278.375C229.33 275.985 231.107 273.052 233.729 270.724C230.805 285.875 200.068 304.77 186.02 310.88C182.449 312.433 173.572 315.262 171.125 318.03C170.471 318 167.846 313.551 166.707 312.697C159.793 310.372 152.727 302.314 145.638 312.697C143.961 311.592 142.416 310.357 140.856 309.093C143.596 304.701 146.548 300.078 151.278 297.664C153.765 298.365 156.076 299.502 158.498 300.388C159.099 299.833 159.439 299.586 160.217 299.339C178.668 306.351 215.522 290.381 226.839 277.566L226.839 278.375Z"/>
	<path fill="#262225" transform="scale(2 2)" d="M160.217 304.903C164.297 307.187 170.977 312.935 171.125 318.03C170.471 318 167.846 313.551 166.707 312.697C165.122 309.286 162.841 307.473 160.217 304.903Z"/>
	<defs>
		<linearGradient id="gradient_3" gradientUnits="userSpaceOnUse" x1="188.59018" y1="290.37982" x2="191.47549" y2="299.10458">
			<stop offset="0" stop-color="black"/>
			<stop offset="1" stop-color="#282627"/>
		</linearGradient>
	</defs>
	<path fill="url(#gradient_3)" transform="scale(2 2)" d="M226.839 277.566L226.839 278.375C214.7 293.946 179.611 308.538 158.498 300.388C159.099 299.833 159.439 299.586 160.217 299.339C178.668 306.351 215.522 290.381 226.839 277.566Z"/>
	<path fill="#D5D0C5" transform="scale(2 2)" d="M372.23 319.788C371.098 320.787 370.076 321.698 369.278 323.012L369.369 322.935C370.772 323.349 375.648 315.782 377.53 315.22L378.03 315.91C379.571 315.632 386.052 306.146 389.095 303.751C389.503 303.835 389.421 305.193 389.948 305.7C382.917 336.545 347.626 338.225 321.752 338.839C307.048 339.188 290.533 340.034 276.297 343.017C270.478 344.237 257.852 350.502 255.163 341.997C258.302 341.969 264.516 343.105 266.704 341.028C267.121 337.534 275.162 336.711 277.823 336.795L278.009 336.317C281.044 335.519 278.067 333.843 276.723 332.472C279.953 334.242 282.108 333.984 285.544 334.19C286.799 334.277 286.571 333.608 286.637 332.655C287.785 332.098 288.655 333.529 289.979 332.513L289.846 332.133C289.036 331.523 288.302 331.124 287.352 330.763L287.053 330.652C288.377 330.693 289.798 331.133 291.028 331.614L291.235 331.697C292.1 331.44 292.543 331.522 293.402 331.771C294.848 332.058 296.171 332.633 297.583 333.009C299.105 332.243 300.973 332.804 302.615 332.759L302.731 332.53L301.949 331.815C303.281 331.522 306.14 332.682 307.562 333.009C308.166 332.619 308.028 332.174 308.538 331.841L309.542 332.472C313.324 333.243 325.723 333.711 329.868 332.86L329.834 332.558L328.283 331.669L328.087 331.21L328.087 330.149C329.221 330.283 331.185 330.611 332.163 331.21C332.702 331.42 333.51 331.903 334.062 331.771C335.184 331.983 336.326 332.161 337.425 332.472C339.392 332.685 343.542 333.365 345.244 332.472C342.529 331.697 342.042 331.453 345.244 331.21C345.545 327.702 344.093 325.316 351.21 326.608L351.449 326.983C351.258 328.559 351.195 328.959 352.362 330.149C356.247 328.617 360.279 327.554 363.914 325.39C367.11 323.486 368.287 321.668 372.23 319.788Z"/>
	<path fill="#979190" transform="scale(2 2)" d="M268.644 338.797C270.421 338.797 271.372 338.539 272.41 340.18C270.635 340.185 269.96 339.998 268.644 338.797Z"/>
	<path fill="#979190" transform="scale(2 2)" d="M345.244 331.21C346.013 330.638 347.019 330.361 347.937 330.149C347.294 331.886 347.964 331.709 349.355 332.472C348.018 332.707 346.611 332.384 345.244 332.472C342.529 331.697 342.042 331.453 345.244 331.21Z"/>
	<path fill="#B3A598" transform="scale(2 2)" d="M293.402 331.771C294.848 332.058 296.171 332.633 297.583 333.009L297.666 333.759C296.26 335.089 292.545 335.164 291.178 333.728C290.886 332.34 292.522 332.481 293.402 331.771Z"/>
	<path fill="#B3A598" transform="scale(2 2)" d="M276.723 332.472C279.953 334.242 282.108 333.984 285.544 334.19L285.864 334.333C286.454 334.595 287.58 334.784 287.822 335.354L286.624 336.098C286.753 336.412 286.871 336.723 286.987 337.042C283.731 341.155 282.041 337.521 278.416 336.764L278.009 336.317C281.044 335.519 278.067 333.843 276.723 332.472Z"/>
	<path fill="#262225" transform="scale(2 2)" d="M279.607 295.269C260.235 267.935 292.159 215.563 327.564 221.868C328.859 222.099 330.47 222.379 331.375 223.399L331.4 223.906C330.964 224.119 324.765 222.738 322.415 222.809C290.957 223.751 265.61 263.577 279.27 291.745C284.616 302.767 293.796 312.833 305.559 316.894C310.345 318.547 318.375 318.386 323.753 319.043C341.606 321.016 362.809 316.073 372.23 299.339C373.731 296.426 374.767 292.197 376.225 289.857L376.497 289.781C379.996 297.092 362.545 312.846 355.992 315.965C328.867 328.877 291.291 308.809 262.272 331.771C260.731 333.086 258.985 335.283 257.427 336.317L257.213 336.044C257.773 335.15 258.967 334.516 259.356 333.61C258.017 333.714 255.922 333.923 255.163 332.472L255.163 332.472C252.121 330.788 250.256 329.338 249.386 325.708C250.617 316.928 259.205 313.917 266.847 311.872C265.01 303.093 264.599 297.936 260.855 289.339C263.777 293.124 265.462 297.309 266.847 301.856C272.221 300.723 276.106 299.872 279.607 295.269Z"/>
	<path fill="#D5D0C5" transform="scale(2 2)" d="M278.009 311.22C281.548 309.717 285.305 309.131 289.138 309.093C294.201 312.381 297.632 315.964 303.632 318.03C298.939 318.062 294.324 318.974 289.676 319.043C288.039 317.054 279.874 314.511 278.009 311.22Z"/>
	<path fill="#B3A598" transform="scale(2 2)" d="M279.607 295.269C281.569 300.195 284.924 303.605 288.065 307.756C281.211 307.835 274.344 309.574 267.719 311.22C267.666 308.034 267.423 304.991 266.847 301.856C272.221 300.723 276.106 299.872 279.607 295.269Z"/>
	<path fill="#ECE8E2" transform="scale(2 2)" d="M251.36 326.649C251.152 314.261 268.856 312.322 278.009 311.22C279.874 314.511 288.039 317.054 289.676 319.043C276.27 321.812 272.52 323.672 260.855 329.227C261.671 326.441 262.605 324.26 264.146 321.81C260.497 324.062 259.82 326.745 259.37 330.685L259.37 331.21C257.889 331.009 256.575 330.615 255.163 330.149C255.258 328.479 256.495 323.969 256.297 323.091L255.866 323.138C253.759 325.223 253.232 331.31 251.36 326.649Z"/>
	<defs>
		<linearGradient id="gradient_4" gradientUnits="userSpaceOnUse" x1="220.16603" y1="365.3815" x2="287.06848" y2="161.25513">
			<stop offset="0" stop-color="#262628"/>
			<stop offset="1" stop-color="#5D5D5E"/>
		</linearGradient>
	</defs>
	<path fill="url(#gradient_4)" transform="scale(2 2)" d="M225.752 189.856C254.114 173.13 294.47 157.171 326.062 174.854C341.284 178.324 368.275 202.671 376.137 215.191C386.081 231.025 395.843 261.892 390.776 280.4C391.567 281.883 391.847 283.858 392.234 285.498C399.209 315.036 389.756 333.255 358.627 339.575C331.198 345.144 303.251 345.65 275.509 348.792C266.74 349.785 250.381 353.518 251.36 339.567C240.364 341.476 229.032 341.735 217.931 342.766C208.62 343.631 185.088 350.301 182.42 338.27C174.435 348.755 156.407 343.415 145.638 341.022C140.65 339.69 136.483 337.842 133.96 333.009C129.449 325.444 133.874 313.351 138.074 306.568C139.241 304.683 140.974 303.213 141.983 301.219C140.766 300.099 139.676 298.903 138.581 297.664C136.907 295.427 135.193 293.101 133.96 290.585L137.963 288.489L140.856 287.233L140.856 287.233C143.672 291.272 155.815 297.867 160.217 299.339C159.439 299.586 159.099 299.833 158.498 300.388C156.076 299.502 153.765 298.365 151.278 297.664C146.548 300.078 143.596 304.701 140.856 309.093C136.988 315.602 131.255 328.839 140.233 333.73C147.237 337.545 163.189 340.503 171.125 339.567C169.939 337.866 168.584 336.168 167.905 334.19C169.808 335.761 171.253 337.601 172.724 339.567C181.379 335.831 175.782 334.91 172.177 331.21L172.578 331.308C181.496 333.538 180.574 335.549 175.054 324.705C168.473 318.888 163.973 315.415 155.047 314.454C153.107 314.246 150.333 314.624 148.541 314.048C148.254 313.956 147.849 313.781 148.189 313.457C153.302 308.589 170.754 317.596 175.054 322.577C178.733 325.755 180.919 329.628 182.42 334.19C182.995 332.95 183.709 330.934 184.869 330.149L185.288 330.222L186.005 329.584C186.105 329.978 186.139 330.279 186.119 330.685L184.869 332.472C185.458 333.816 186.411 334.516 187.797 333.832L187.87 334.19C188.407 333.627 188.854 333.072 189.602 332.793L189.832 333.048C189.419 335.211 187.588 337.838 188.041 340.019C189.365 341.352 196.145 342.971 196.58 339.567L197.509 340.18L197.708 340.697C199.632 341.449 210.968 339.403 213.354 338.797C220.182 336.801 248.106 327.999 249.386 325.708C250.256 329.338 252.121 330.788 255.163 332.472L255.163 332.472C255.922 333.923 258.017 333.714 259.356 333.61C258.967 334.516 257.773 335.15 257.213 336.044L257.427 336.317C256.069 338.154 254.94 339.588 255.163 341.997C257.852 350.502 270.478 344.237 276.297 343.017C290.533 340.034 307.048 339.188 321.752 338.839C347.626 338.225 382.917 336.545 389.948 305.7C389.582 300.915 390.209 296.256 389.507 291.443C388.928 287.472 387.15 283.766 386.802 279.744C385.182 260.984 386.407 255.258 379.293 235.207C370.331 209.947 357.315 196.099 333.759 184.303C331.189 183.016 328.391 182.123 326.062 180.397C312.016 175.355 299.398 170.839 284.221 172.562C272.943 173.842 255.098 179.885 244.762 184.758L239.523 187.229C241.592 197.087 240.071 218.996 237.659 228C237.166 229.84 236.028 231.051 235.345 232.676C237.016 237.669 238.932 242.238 239.523 247.541C242.739 246.513 246.479 245.503 249.848 245.251L250.445 245.64L250.524 245.499L250.064 245.244L250.489 245.482C247.132 246.654 243.006 247.367 239.523 248.111C239.549 251.528 239.416 254.609 238.682 257.97C241.899 258.22 244.722 258.515 247.819 259.503C244.763 259.137 241.768 258.702 238.682 258.707C238.131 260.695 237.359 262.558 236.559 264.454L235.345 264.454C236.422 262.55 237.437 260.789 238.144 258.707C226.068 258.429 217.007 262.191 207.877 262.533L208.007 262.328C216.088 259.055 229.447 257.961 238.144 257.97C238.5 254.653 238.75 251.449 238.682 248.111C232.85 249.497 221.051 253.198 215.967 256.145C214.931 256.746 213.718 257.523 212.513 257.654C214.871 254.274 234.054 248.315 238.682 247.541C236.923 235.581 230.786 226.329 228.47 214.758C226.261 203.72 224.337 193.552 217.402 184.3C207.588 188.128 199.066 199.039 191.896 206.458C183.622 203.956 157.208 212.028 151.278 217.622C145.687 212.577 127.593 205.696 121.465 207.84C115.851 209.804 121.504 225.006 122.85 228.812C124.293 232.992 125.973 236.999 128.147 240.854C132.152 251.578 129.058 263.291 133.96 274.043C132.022 274.015 130.085 274.028 128.147 274.043C126.715 268.134 126.267 262.278 126.247 256.21C126.207 244.497 126.022 247.322 121.946 236.355C119.678 230.252 113.995 212.004 116.905 206.244C120.99 198.158 147.112 209.882 152.309 212.639C161.806 205.798 181.114 200.315 192.975 201.495C198.029 195.709 210.795 181.596 217.402 179.163C221.184 181.862 223.495 185.904 225.752 189.856Z"/>
	<path fill="#FEFEFE" transform="scale(2 2)" d="M184.869 332.472C185.458 333.816 186.411 334.516 187.797 333.832L187.87 334.19C186.861 336.197 186.456 337.986 186.119 340.18C183.882 337.47 183.478 335.905 184.869 332.472Z"/>
	<path fill="#504B48" transform="scale(2 2)" d="M140.856 287.233L141.79 288.879C143.29 291.519 146.11 293.488 148.487 295.269C146.4 296.786 143.131 298.87 141.983 301.219C140.766 300.099 139.676 298.903 138.581 297.664C136.907 295.427 135.193 293.101 133.96 290.585L137.963 288.489L140.856 287.233Z"/>
	<path fill="#B3A598" transform="scale(2 2)" d="M213.354 338.797C220.182 336.801 248.106 327.999 249.386 325.708C250.256 329.338 252.121 330.788 255.163 332.472C252.712 334.165 219.454 339.39 213.354 338.797Z"/>
	<path fill="#D5D0C5" transform="scale(2 2)" d="M226.839 194.697C230.591 191.669 235.154 189.245 239.523 187.229C241.592 197.087 240.071 218.996 237.659 228C237.166 229.84 236.028 231.051 235.345 232.676C228.55 218.114 231.68 208.801 226.839 194.697Z"/>
	<path fill="#ECE8E2" transform="scale(2 2)" d="M191.896 206.458C199.066 199.039 207.588 188.128 217.402 184.3C224.337 193.552 226.261 203.72 228.47 214.758C230.786 226.329 236.923 235.581 238.682 247.541C234.054 248.315 214.871 254.274 212.513 257.654C213.718 257.523 214.931 256.746 215.967 256.145C221.051 253.198 232.85 249.497 238.682 248.111C238.75 251.449 238.5 254.653 238.144 257.97C229.447 257.961 216.088 259.055 208.007 262.328L207.877 262.533C217.007 262.191 226.068 258.429 238.144 258.707C237.437 260.789 236.422 262.55 235.345 264.454L236.559 264.454L235.345 266.822C240.212 268.634 245.288 269.334 250.174 270.963L250.104 271.074L250.458 271.125C249.804 271.5 236.985 268.585 234.655 268.286L233.729 270.724C231.107 273.052 229.33 275.985 226.839 278.375L226.839 277.566C215.522 290.381 178.668 306.351 160.217 299.339C155.815 297.867 143.672 291.272 140.856 287.233L140.856 287.233L137.963 288.489L137.963 287.233C139.008 286.978 139.907 286.709 140.856 286.198C138.997 285.148 138.063 282.993 137.154 281.161C138.124 281.071 139.096 281.13 140.068 281.161C143.142 280.609 151.833 279.902 153.827 278.967L153.827 278.697C150.88 277.362 142.647 279.495 139.457 280.4C138.687 280.381 137.924 280.38 137.154 280.4C134.626 280.394 132.6 281.656 130.187 281.931C129.999 280.013 129.066 276.929 128.147 275.236L128.147 275.236C127.753 274.874 127.536 274.492 127.256 274.043L128.147 274.043C130.085 274.028 132.022 274.015 133.96 274.043C129.058 263.291 132.152 251.578 128.147 240.854C125.973 236.999 124.293 232.992 122.85 228.812C121.504 225.006 115.851 209.804 121.465 207.84C127.593 205.696 145.687 212.577 151.278 217.622C157.208 212.028 183.622 203.956 191.896 206.458Z"/>
	<path fill="#262225" transform="scale(2 2)" d="M172.177 278.375C169.645 280.246 162.427 282.679 160.906 279.122C163.2 277.955 165.697 280.898 170.833 277.748L171.125 277.566L172.177 278.375Z"/>
	<path fill="#262225" transform="scale(2 2)" d="M177.913 276.122C186.879 279.467 185.768 275.043 189.662 274.178C190.621 278.767 181.536 279.616 177.913 277.566L178.019 277.305C178.725 277.327 178.494 276.721 178.229 276.329L178.344 276.608L177.913 276.122Z"/>
	<path fill="#262225" transform="scale(2 2)" d="M146.909 283.319C149.387 282.193 151.747 281.203 154.378 280.512C154.024 282.227 148.274 284.127 146.909 284.651C144.912 285.546 142.922 286.507 140.856 287.233L140.856 287.233L137.963 288.489L137.963 287.233C139.008 286.978 139.907 286.709 140.856 286.198C142.84 285.117 144.817 284.175 146.909 283.319Z"/>
	<path fill="#262225" transform="scale(2 2)" d="M133.96 274.043C135.772 273.993 137.656 273.839 139.457 274.043C143.367 274.296 147.985 274.784 151.748 275.925L151.809 276.165C147.941 276.877 142.388 275.132 137.963 275.236C137.33 274.796 136.657 274.428 135.989 274.043C133.386 274.847 130.705 274.503 128.147 275.236L128.147 275.236C127.753 274.874 127.536 274.492 127.256 274.043L128.147 274.043C130.085 274.028 132.022 274.015 133.96 274.043Z"/>
	<path fill="#262225" transform="scale(2 2)" d="M121.349 211.129L120.833 210.527C125.449 210.571 141.185 222.444 141.983 227.414C133.653 219.39 132.092 217.638 121.349 211.129Z"/>
	<path fill="#504B48" transform="scale(2 2)" d="M234.655 266.822C234.993 266.102 235.145 265.228 235.345 264.454L236.559 264.454L235.345 266.822C240.212 268.634 245.288 269.334 250.174 270.963L250.104 271.074L250.458 271.125C249.804 271.5 236.985 268.585 234.655 268.286L233.729 270.724C231.107 273.052 229.33 275.985 226.839 278.375L226.839 277.566C229.585 274.776 231.757 271.655 233.729 268.286C227.211 266.983 220.414 266.837 213.794 266.479L213.815 266.233L213.188 266.328C219.52 265.158 227.975 267.1 234.655 266.822Z"/>
	<path fill="#504B48" transform="scale(2 2)" d="M135.989 274.043C136.657 274.428 137.33 274.796 137.963 275.236L133.96 275.236C134.816 277.111 135.882 278.777 137.154 280.4C134.626 280.394 132.6 281.656 130.187 281.931C129.999 280.013 129.066 276.929 128.147 275.236C130.705 274.503 133.386 274.847 135.989 274.043Z"/>
	<path fill="#333035" transform="scale(2 2)" d="M141.983 260.273C148.229 260.576 152.29 265.068 159.532 263.506C160.835 263.224 165.86 260.246 163.267 263.699C157.254 269.592 144.476 265.617 141.983 260.273Z"/>
	<path fill="#504B48" transform="scale(2 2)" d="M204.507 246.163L204.83 246.33C205.714 249.156 200.17 254.49 198.065 255.873C193.55 258.842 188.782 258.995 183.631 257.97C179.245 256.866 191.834 255.579 193.534 254.835C197.893 252.929 200.378 248.934 204.211 246.358L204.507 246.163Z"/>
	<defs>
		<linearGradient id="gradient_5" gradientUnits="userSpaceOnUse" x1="174.50327" y1="278.00052" x2="172.20132" y2="266.50897">
			<stop offset="0" stop-color="#222121"/>
			<stop offset="1" stop-color="#3C3A3B"/>
		</linearGradient>
	</defs>
	<path fill="url(#gradient_5)" transform="scale(2 2)" d="M171.125 277.566C176.333 271.496 164.961 271.789 166.058 269.097C167.34 265.95 176.158 265.175 178.411 266.417C181.23 267.97 175.262 271.953 174.276 273.183C175.307 274.48 176.504 275.299 177.913 276.122L178.344 276.608L178.229 276.329C178.494 276.721 178.725 277.327 178.019 277.305L177.913 277.566C176.53 277.016 175.349 276.269 174.276 275.236C173.677 276.378 173.142 277.486 172.177 278.375L171.125 277.566Z"/>
	<path fill="#B3A598" transform="scale(2 2)" d="M216.144 189.093C218.846 193.871 222.253 200.829 222.16 206.458C222.047 206.394 218.023 193.956 216.144 190.604C212.614 194.038 204.1 204.797 202.267 209.274L202.308 209.691C205.879 207.712 205.836 204.587 211.928 206.387C216.099 207.619 220.936 210.93 222.16 215.353C212.825 211.078 212.275 210.501 200.865 210.544C203.501 204.484 211.356 193.682 216.144 189.093Z"/>
	<path fill="#D5D0C5" transform="scale(2 2)" d="M222.16 215.353C220.936 210.93 216.099 207.619 211.928 206.387C205.836 204.587 205.879 207.712 202.308 209.691L202.267 209.274C204.1 204.797 212.614 194.038 216.144 190.604C218.023 193.956 222.047 206.394 222.16 206.458C222.827 208.504 223.656 213.311 223.153 215.374L222.842 215.647L222.16 215.353Z"/>
	<path fill="#B3A598" transform="scale(2 2)" d="M121.349 211.129C132.092 217.638 133.653 219.39 141.983 227.414C135.569 229.65 132.259 236.018 128.147 240.854C125.973 236.999 124.293 232.992 122.85 228.812L123.376 228.595C122.506 222.648 121.36 217.2 121.349 211.129Z"/>
</svg>
