<?xml version="1.0" encoding="utf-8" ?>
<svg xmlns="http://www.w3.org/2000/svg" xmlns:xlink="http://www.w3.org/1999/xlink" width="1024" height="1024">
	<path fill="#262225" transform="scale(2 2)" d="M243.994 134.079C244.135 135.017 241.256 139.324 241.72 143.615C242.037 146.542 243.425 148.665 244.277 151.377L243.994 151.591C240.859 146.714 238.231 138.167 243.994 134.079Z"/>
	<defs>
		<linearGradient id="gradient_0" gradientUnits="userSpaceOnUse" x1="359.12097" y1="248.44292" x2="355.15265" y2="242.201">
			<stop offset="0" stop-color="#121412"/>
			<stop offset="1" stop-color="#403842"/>
		</linearGradient>
	</defs>
	<path fill="url(#gradient_0)" transform="scale(2 2)" d="M350.321 244.7C353.965 244.574 361.405 244.142 364.705 245.125L364.705 245.99C361.374 246.089 352.838 245.332 350.321 245.99C350.42 245.596 350.339 245.107 350.321 244.7Z"/>
	<path fill="#262225" transform="scale(2 2)" d="M351.209 227.753C360.452 227.255 367.466 230.228 374.577 236.171C365.015 233.389 364.805 229.026 351.209 228.597C351.731 228.506 352.143 228.498 352.57 228.164L351.209 227.753Z"/>
	<path fill="#262225" transform="scale(2 2)" d="M364.705 245.125C373.991 245.968 382.521 248.742 389.932 254.52C380.433 249.441 374.913 248.37 364.705 245.99L364.705 245.125Z"/>
	<path fill="#262225" transform="scale(2 2)" d="M114.764 236.171C122.1 231.392 131.811 233.428 140.018 234.514C141.569 235.105 143.156 235.807 144.775 236.171L147.069 237.114L146.339 237.949L143.806 237.114C142.365 236.423 140.695 236.319 139.127 236.171C131.692 233.732 122.125 233.393 114.764 236.171Z"/>
	<path fill="#D5D0C5" transform="scale(2 2)" d="M296.541 148.007L296.664 148.143C296.061 148.704 295.401 149.179 294.74 149.668L294.729 149.895C295.366 149.619 295.768 149.4 296.471 149.533C291.564 152.019 287.42 155.906 282.361 158.003C277.026 157.131 271.611 154.781 266.49 153.027C265.134 152.518 264.043 152.443 262.78 151.591C269.85 152.775 277.24 154.022 283.772 157.071C287.609 153.62 292.281 150.91 296.541 148.007Z"/>
	<path fill="#262225" transform="scale(2 2)" d="M355.577 271.1C365.647 267.398 374.322 274.685 372.254 286.146L372.065 286.136L371.839 285.886L371.934 285.57C370.983 282.871 370.836 285.218 369.948 286.146C370.16 283.701 370.789 281.37 370.902 278.884C368.035 273.632 362.397 271.245 356.56 272.404C356.428 272.164 356.392 271.822 356.33 271.555L357.761 271.996L358.086 271.749L358.123 270.954C357.179 270.691 356.655 271.588 355.577 271.1Z"/>
	<path fill="#ECE8E2" transform="scale(2 2)" d="M137.179 267.736L142.816 265.732C142.342 269.102 143.298 272.148 143.806 275.466C142.517 277.052 140.851 279.749 139.326 280.951L138.99 280.707L138.855 279.491L138.575 279.321C135.714 280.715 130.78 287.846 131.274 285.295L131.797 285.315L131.369 285.084C133.059 282.289 135.987 279.575 138.496 277.503C137.558 274.246 137.136 271.12 137.179 267.736Z"/>
	<path fill="#ECE8E2" transform="scale(2 2)" d="M250.903 148.007C243.509 146.762 251.982 134.508 254.69 132.208C258.258 129.177 265.998 126.644 264.731 134.079C260.247 138.827 254.405 137.192 251.182 147.53C251.078 147.863 251.139 147.738 250.903 148.007Z"/>
	<path fill="#262225" transform="scale(2 2)" d="M250.903 148.007C249.526 142.253 260.251 132.968 264.731 134.079C260.247 138.827 254.405 137.192 251.182 147.53C251.078 147.863 251.139 147.738 250.903 148.007Z"/>
	<path fill="#ECE8E2" transform="scale(2 2)" d="M139.127 236.171C140.695 236.319 142.365 236.423 143.806 237.114C142.612 241.926 144.661 254.604 142.314 259.787C140.811 260.469 138.918 260.71 137.304 261.098L137.124 260.965C136.68 256.89 137.973 248.996 139.127 245.125C132.945 242.965 126.994 241.912 120.537 240.939L120.534 240.807C126.565 240.105 133.295 240.898 139.127 242.555C139.397 240.488 139.18 238.253 139.127 236.171Z"/>
	<path fill="#ECE8E2" transform="scale(2 2)" d="M341.279 391.977L341.454 392.156C335.45 401.254 318.617 403.44 308.843 401.998C296.095 400.117 302.566 397.193 291.536 403.659C280.067 410.382 273.679 404.622 264.731 399.456L243.443 399.441C239.574 399.421 235.662 399.069 231.809 399.456L231.343 399.467L231.193 399.128C235.024 396.707 250.356 397.183 255.12 396.883C258.299 396.683 264.386 395.338 267.164 395.904C271.307 396.75 273.11 402.388 283.863 402.789C291.561 403.076 295.258 399.769 300.564 394.848C312.899 397.937 330.938 401.088 341.279 391.977Z"/>
	<path fill="#ECE8E2" transform="scale(2 2)" d="M139.127 128.328C128.543 152.704 132.988 179.668 142.479 203.746C148.179 218.205 146.546 220.164 144.775 236.171C143.156 235.807 141.569 235.105 140.018 234.514C140.109 233.015 140.074 231.55 140.018 230.051C137.071 230 120.925 230.632 120.488 230.399C124.771 228.092 138.483 230.85 140.213 229.34C142.427 217.936 139.662 214.607 136.215 204.249C128.074 179.784 122.282 150.844 139.127 128.328Z"/>
	<path fill="#ECE8E2" transform="scale(2 2)" d="M143.806 286.146C148.249 287.112 151.364 295.22 154.653 298.433C158.662 302.349 163.156 305.021 168.24 307.285C160.634 328.278 161.498 342.385 165.153 363.026C157.881 370.611 145.722 387.891 158.86 395.724C168.174 401.277 182.446 399.27 192.454 396.827C202.851 394.288 195.46 393.595 203.14 400.01C212.137 407.526 216.79 403.788 225.277 403.041L225.297 403.3L224.361 404C212.836 411.374 202.984 406.726 194.061 397.719C184.369 399.673 161.095 404.622 152.985 397.574C144.652 390.333 148.402 375.563 154.787 368.384C156.39 366.581 158.237 365.011 159.829 363.201L159.981 363.026C153.436 338.711 157.308 333.113 162.337 308.829C154.95 302.881 145.746 296.648 143.806 286.146Z"/>
	<path fill="#333035" transform="scale(2 2)" d="M284.567 164.616C299.607 153.794 326.31 135.582 344.285 131.819C346.97 150.828 344.925 170.111 342.779 189.071C342.26 193.655 340.254 201.452 340.461 205.561C340.703 210.384 344.761 219.02 345.517 224.473L345.117 224.293C344.026 221.563 340.37 208.668 339.917 205.775L339.572 205.524L339.467 205.807C340.491 209.42 343.377 221.247 343.105 224.473C341.149 217.794 339.886 210.858 337.819 203.772C340.022 180.068 343.976 160.502 343.105 136.28C342.928 131 334.718 138.222 330.824 140.383C316.042 148.589 301.979 158.282 286.934 165.921C289.667 167.479 292.753 168.905 295.185 170.883C283.024 168.329 273.299 162.364 259.185 161.001C242.956 159.435 220.785 162.412 205.999 169.425C200.202 170.881 195.806 173.809 190.631 176.515L190.64 176.297C194.479 173.161 199.352 171.649 203.193 168.522C200.498 166.305 184.47 158.183 180.99 157.071C171.012 150.819 160.914 145.181 149.632 141.462C148.523 140.994 147.461 140.381 146.339 139.962C146.571 140.413 146.961 140.976 147.069 141.462L146.339 142.04C141.322 136.642 142.692 146.582 142.779 150.771C143.096 166.116 149.175 197.087 155.864 211.982C156.574 214.18 156.08 216.819 155.864 219.075L154.304 219.075C155.007 213.852 152.989 211.231 151.014 206.622C144.433 191.266 138.733 161.002 140.638 145.521C141.67 137.13 143.197 135.832 150.711 139.962C156.222 141.632 176.675 150.681 180.99 153.871C186.307 156.326 194.412 160.754 199.425 163.849C202.115 165.509 203.336 168.426 206.7 167.291C218.672 157.421 259.434 155.827 276.427 161.507C279.183 162.429 281.809 163.721 284.567 164.616Z"/>
	<defs>
		<linearGradient id="gradient_1" gradientUnits="userSpaceOnUse" x1="347.24323" y1="210.35826" x2="211.83685" y2="419.20474">
			<stop offset="0" stop-color="#1E2230"/>
			<stop offset="1" stop-color="#3B3B44"/>
		</linearGradient>
	</defs>
	<path fill="url(#gradient_1)" transform="scale(2 2)" d="M343.105 224.473C343.377 221.247 340.491 209.42 339.467 205.807L339.572 205.524L339.917 205.775C340.37 208.668 344.026 221.563 345.117 224.293L345.517 224.473C345.864 225.565 346.213 226.656 346.542 227.753C348.098 227.737 349.654 227.704 351.209 227.753L352.57 228.164C352.143 228.498 351.731 228.506 351.209 228.597C349.656 228.907 348.109 229.184 346.542 229.414C347.449 233.355 348.802 241.369 350.321 244.7C350.339 245.107 350.42 245.596 350.321 245.99C351.263 250.877 351.557 255.835 352.602 260.721C360.992 263.83 378.267 271.411 381.051 280.685C379.442 279.162 378.401 277.128 376.78 275.59C370.479 269.613 360.654 265.104 352.602 261.906C348.361 281.752 335.49 293.298 321.309 305.55C326.854 319.189 330.978 336.722 326.03 350.957C367.619 326.233 335.173 295.184 349.303 276.007C350.807 273.966 352.993 271.688 355.577 271.1C356.655 271.588 357.179 270.691 358.123 270.954L358.086 271.749L357.761 271.996L356.33 271.555C356.392 271.822 356.428 272.164 356.56 272.404C362.397 271.245 368.035 273.632 370.902 278.884C370.789 281.37 370.16 283.701 369.948 286.146C370.836 285.218 370.983 282.871 371.934 285.57L371.839 285.886L372.065 286.136L372.254 286.146C369.599 306.614 382.25 317.772 370.531 340.971C361.243 359.357 349.768 364.669 331.72 371.906C352.437 384.424 315.782 399.989 300.564 384.545C299.204 384.939 297.959 385.187 296.541 385.315C290.621 398.36 281.215 400.736 273.566 386.807C255.785 390.302 244.724 389.439 227.557 389.051C219.504 401.353 209.724 402.568 204.615 386.807C201.676 386.26 198.741 385.614 195.946 384.545C189.138 389.887 172.383 395.92 165.153 389.643C157.987 385.012 162.029 376.302 168.24 372.565C170.753 370.687 174.416 371.309 177.319 370.912L177.732 370.853C167.253 350.384 169.049 328.83 175.891 307.285C176.153 308.106 176.197 308.412 176.985 308.829C170.907 336.11 168.654 377.471 203.978 383.811C203.066 377.254 201.274 364.526 202.281 357.959C202.26 356.721 202.264 355.487 202.281 354.249C202.506 351.844 202.907 349.434 203.193 347.033C202.013 346.532 201.07 346.003 200.017 345.272C195.328 340.854 198.658 332.747 205.999 335.379C207.181 327.489 211.877 323.035 218.486 330.11C221.366 326.404 224.437 324.381 228.502 327.835C235.704 333.955 232.958 347.755 233.253 356.069C231.789 367.81 231.929 374.689 228.505 386.807C244.025 386.825 258.665 385.44 273.566 385.315C269.95 376.75 268.296 362.002 269.215 352.81C269.459 351.707 269.357 350.502 269.345 349.376L269.538 349.202C270.177 350.277 269.954 351.472 269.963 352.712L270.068 350.957L270.126 351.233C271.9 360.049 271.725 396.602 287.008 393.314C295.044 391.586 294.811 379.806 297.568 375.957L297.798 376.213C297.897 375.578 297.83 375.085 298.313 374.636L298.525 374.761L298.294 375.825L298.661 375.957C298.511 378.524 297.912 381.245 297.568 383.811C324.734 375.335 330.04 337.58 321.309 314.011L318.522 307.285C313.353 309.313 302.807 314.877 297.568 315.401C296.302 315.092 294.167 315.899 292.756 315.977C294.254 315.315 295.897 314.858 297.463 314.38L297.568 314.011C299.72 312.384 303.697 311.254 306.241 309.993C322.881 301.747 348.817 281.245 349.032 261.365C347.927 261.03 346.66 260.92 345.517 260.721C346.281 259.939 347.559 260.811 348.496 260.382C347.591 259.837 346.027 259.711 344.966 259.606L344.564 259.57L344.285 259.101C345.813 259.102 347.517 259.557 349.032 259.828C348.737 255.208 347.948 250.56 347.228 245.99L347.228 245.125C346.019 240.185 345.303 235.044 344.285 230.051C344.418 229.483 344.353 229.173 344.285 228.597C344.003 227.191 343.376 225.893 343.105 224.473Z"/>
	<path fill="#ECE8E2" transform="scale(2 2)" d="M302.275 384.545C312.709 378.295 313.198 374.431 319.771 369.113C330.328 370.861 343.611 381.761 327.027 387.688L326.03 387.688C323.238 388.286 320.469 388.701 317.637 389.051C316.257 385.151 315.089 382.074 311.381 379.809C313.581 382.663 315.021 385.664 316.218 389.051C311.061 388.644 306.665 387.373 302.275 384.545Z"/>
	<path fill="#333035" transform="scale(2 2)" d="M322.191 377.329C325.754 380.448 326.559 383.078 327.027 387.688L326.03 387.688C325.401 383.835 323.979 380.746 322.191 377.329Z"/>
	<path fill="#D5D0C5" transform="scale(2 2)" d="M177.732 370.853C178.192 371.131 178.389 371.464 178.68 371.906L179.037 372.266C185.574 378.985 184.315 379.246 194.061 384.545C189.504 387.379 184.113 389.631 178.68 389.643C178.913 387.945 180.326 384.761 180.228 383.596C178.103 384.732 177.874 388.338 177.732 390.437C175.49 390.197 172.693 389.539 170.483 389.643C168.511 390.409 165.765 388.602 164.074 387.688L163.7 387.556C164.142 388.242 164.677 388.743 165.27 389.299L165.153 389.643C157.987 385.012 162.029 376.302 168.24 372.565C170.753 370.687 174.416 371.309 177.319 370.912L177.732 370.853Z"/>
	<path fill="#504B48" transform="scale(2 2)" d="M177.732 370.853C178.192 371.131 178.389 371.464 178.68 371.906C175.129 372.116 171.609 372.116 168.24 373.393L168.24 372.565C170.753 370.687 174.416 371.309 177.319 370.912L177.732 370.853Z"/>
	<path fill="#262225" transform="scale(2 2)" d="M168.24 372.565L168.24 373.393C164.818 375.898 161.043 382.775 164.074 386.807C165.951 388.103 169.033 391.089 168.24 386.807C168.832 383.28 170.77 380.956 173.477 378.778C171.69 381.442 170.357 383.6 169.762 386.807C169.952 387.784 170.153 388.703 170.483 389.643C168.511 390.409 165.765 388.602 164.074 387.688L163.7 387.556C164.142 388.242 164.677 388.743 165.27 389.299L165.153 389.643C157.987 385.012 162.029 376.302 168.24 372.565Z"/>
	<path fill="#ECE8E2" transform="scale(2 2)" d="M218.486 330.11C221.366 326.404 224.437 324.381 228.502 327.835C235.704 333.955 232.958 347.755 233.253 356.069C232.901 355.367 232.897 354.549 232.656 353.792L232.289 353.73C231.911 354.209 231.961 354.653 231.95 355.235L231.948 355.496L231.809 355.326C229.299 358.749 230.721 381.349 222.873 391.318C220.558 394.258 215.59 397.764 212.044 394.733C204.196 388.026 204.027 366.032 203.193 355.326C202.674 356.931 202.385 360.287 202.913 362.094L202.709 362.416C202.326 362.049 202.406 358.722 202.281 357.959C202.26 356.721 202.264 355.487 202.281 354.249C202.506 351.844 202.907 349.434 203.193 347.033C202.013 346.532 201.07 346.003 200.017 345.272C195.328 340.854 198.658 332.747 205.999 335.379C207.181 327.489 211.877 323.035 218.486 330.11Z"/>
	<path fill="#262225" transform="scale(2 2)" d="M218.486 330.11C221.366 326.404 224.437 324.381 228.502 327.835C235.704 333.955 232.958 347.755 233.253 356.069C232.901 355.367 232.897 354.549 232.656 353.792L232.289 353.73C231.911 354.209 231.961 354.653 231.95 355.235L231.948 355.496L231.809 355.326C231.486 348.189 233.64 338.616 230.017 332.148C223.941 321.3 220.083 329.875 218.486 337.11C218.089 335.279 218.067 333.419 217.992 331.554C212.352 322.616 206.783 330.217 208.4 339.178C199.43 328.02 195.396 347.216 203.004 345.867C203.78 345.201 204.164 343.426 204.615 342.468C203.854 346.345 203.575 350.321 203.193 354.249L203.193 355.326C202.674 356.931 202.385 360.287 202.913 362.094L202.709 362.416C202.326 362.049 202.406 358.722 202.281 357.959C202.26 356.721 202.264 355.487 202.281 354.249C202.506 351.844 202.907 349.434 203.193 347.033C202.013 346.532 201.07 346.003 200.017 345.272C195.328 340.854 198.658 332.747 205.999 335.379C207.181 327.489 211.877 323.035 218.486 330.11Z"/>
	<defs>
		<linearGradient id="gradient_2" gradientUnits="userSpaceOnUse" x1="363.05127" y1="350.83572" x2="327.04901" y2="290.7453">
			<stop offset="0" stop-color="#CCCBBD"/>
			<stop offset="1" stop-color="#FCFCFA"/>
		</linearGradient>
	</defs>
	<path fill="url(#gradient_2)" transform="scale(2 2)" d="M356.56 272.404C362.397 271.245 368.035 273.632 370.902 278.884C370.789 281.37 370.16 283.701 369.948 286.146C367.787 291.466 370.18 299.628 371.156 304.948C377.016 336.89 359.468 360.52 328.599 369.113C326.213 367.959 323.961 366.787 321.309 366.385C322.955 361.793 324.844 357.582 326.03 352.81C329.642 350.071 333.883 348.533 337.876 345.329C368.842 320.479 335.772 288.618 356.56 272.404Z"/>
	<path fill="#ECE8E2" transform="scale(2 2)" d="M286.934 165.921C301.979 158.282 316.042 148.589 330.824 140.383C334.718 138.222 342.928 131 343.105 136.28C343.976 160.502 340.022 180.068 337.819 203.772C339.886 210.858 341.149 217.794 343.105 224.473C343.376 225.893 344.003 227.191 344.285 228.597C344.353 229.173 344.418 229.483 344.285 230.051C345.303 235.044 346.019 240.185 347.228 245.125L347.228 245.99C347.948 250.56 348.737 255.208 349.032 259.828C347.517 259.557 345.813 259.102 344.285 259.101L344.564 259.57L344.966 259.606C346.027 259.711 347.591 259.837 348.496 260.382C347.559 260.811 346.281 259.939 345.517 260.721C346.66 260.92 347.927 261.03 349.032 261.365C348.817 281.245 322.881 301.747 306.241 309.993C303.697 311.254 299.72 312.384 297.568 314.011L297.463 314.38C295.897 314.858 294.254 315.315 292.756 315.977C294.167 315.899 296.302 315.092 297.568 315.401C302.807 314.877 313.353 309.313 318.522 307.285L321.309 314.011C330.04 337.58 324.734 375.335 297.568 383.811C297.912 381.245 298.511 378.524 298.661 375.957L298.294 375.825L298.525 374.761L298.313 374.636C297.83 375.085 297.897 375.578 297.798 376.213L297.568 375.957C294.811 379.806 295.044 391.586 287.008 393.314C271.725 396.602 271.9 360.049 270.126 351.233L270.068 350.957L269.963 352.712C269.954 351.472 270.177 350.277 269.538 349.202L269.345 349.376C269.357 350.502 269.459 351.707 269.215 352.81C268.296 362.002 269.95 376.75 273.566 385.315C258.665 385.44 244.025 386.825 228.505 386.807C231.929 374.689 231.789 367.81 233.253 356.069C232.958 347.755 235.704 333.955 228.502 327.835C224.437 324.381 221.366 326.404 218.486 330.11C211.877 323.035 207.181 327.489 205.999 335.379C198.658 332.747 195.328 340.854 200.017 345.272C201.07 346.003 202.013 346.532 203.193 347.033C202.907 349.434 202.506 351.844 202.281 354.249C202.264 355.487 202.26 356.721 202.281 357.959C201.274 364.526 203.066 377.254 203.978 383.811C168.654 377.471 170.907 336.11 176.985 308.829C176.197 308.412 176.153 308.106 175.891 307.285C163.231 300.247 156.508 293.14 150.711 279.819C144.349 285.564 137.854 290.556 133.107 297.807C132.289 299.057 131.555 301.232 130.518 302.176C131.359 295.041 145.226 282.804 150.711 278.884C149.452 275.309 148.473 271.55 148.449 267.736C148.297 266.697 148.409 265.603 148.449 264.557C146.558 264.9 144.689 265.298 142.816 265.732L137.179 267.736C127.415 272.214 121.295 273.99 113.263 282.48L113.204 282.393L112.794 282.938C113.227 274.761 142.248 264.257 148.449 263.253C148.065 257.24 149.184 244.755 150.711 238.988C149.326 238.992 147.683 238.334 146.339 237.949L147.069 237.114C148.302 237.272 149.524 237.58 150.711 237.949C151.002 235.336 151.769 232.631 152.331 230.051C152.879 226.378 153.503 222.702 154.304 219.075L155.864 219.075C156.08 216.819 156.574 214.18 155.864 211.982C149.175 197.087 143.096 166.116 142.779 150.771C142.692 146.582 141.322 136.642 146.339 142.04L147.069 141.462C146.961 140.976 146.571 140.413 146.339 139.962C147.461 140.381 148.523 140.994 149.632 141.462C160.914 145.181 171.012 150.819 180.99 157.071C184.47 158.183 200.498 166.305 203.193 168.522C199.352 171.649 194.479 173.161 190.64 176.297L190.631 176.515C195.806 173.809 200.202 170.881 205.999 169.425C220.785 162.412 242.956 159.435 259.185 161.001C273.299 162.364 283.024 168.329 295.185 170.883C292.753 168.905 289.667 167.479 286.934 165.921Z"/>
	<path fill="#333035" transform="scale(2 2)" d="M347.228 245.125L347.228 245.99C345.264 246.577 343.325 247.251 341.279 247.471L341.279 245.99C343.319 245.912 345.261 245.692 347.228 245.125Z"/>
	<path fill="#D5D0C5" transform="scale(2 2)" d="M217.174 296.304C219.52 296.683 219.834 298.446 218.486 300.083C216.714 299.277 215.348 297.74 217.174 296.304Z"/>
	<path fill="#262225" transform="scale(2 2)" d="M289.588 316.79C282.925 319.541 295.2 314.627 297.568 314.011L297.463 314.38C295.897 314.858 294.254 315.315 292.756 315.977C294.167 315.899 296.302 315.092 297.568 315.401C294.789 316.27 292.501 316.799 289.588 316.79Z"/>
	<path fill="#333035" transform="scale(2 2)" d="M297.568 345.272L298.661 345.272C299.15 349.078 299.79 353.063 299.736 356.905C299.474 356.09 299.303 355.242 299.109 354.408L298.661 356.905C298.467 352.996 297.812 349.159 297.568 345.272Z"/>
	<path fill="#262225" transform="scale(2 2)" d="M341.279 247.471C337.315 248.184 326.075 252.811 324.717 252.777L324.588 252.339C326.091 249.995 338.072 246.893 341.279 245.99L341.279 247.471Z"/>
	<path fill="#262225" transform="scale(2 2)" d="M344.285 228.597C344.353 229.173 344.418 229.483 344.285 230.051L343.105 230.051C342.224 230.425 341.227 230.751 340.399 231.219C337.76 231.671 327.263 235.552 327.176 235.529L327.048 235.133C328.138 233.136 336.744 230.812 339.268 230.051L343.105 229.414C343.518 229.203 343.907 228.869 344.285 228.597Z"/>
	<path fill="#262225" transform="scale(2 2)" d="M146.339 142.04L147.069 141.462C151.81 146.19 156.749 151.152 159.981 157.071L159.371 157.071C154.737 152.244 151.347 146.875 146.339 142.04Z"/>
	<path fill="#262225" transform="scale(2 2)" d="M298.661 356.905L299.109 354.408C299.303 355.242 299.474 356.09 299.736 356.905C299.74 363.287 299.703 369.642 298.661 375.957L298.294 375.825L298.525 374.761L298.313 374.636C297.83 375.085 297.897 375.578 297.798 376.213L297.568 375.957C298.135 369.582 298.749 363.313 298.661 356.905Z"/>
	<path fill="#262225" transform="scale(2 2)" d="M332.951 258.495C336.396 258.008 340.91 258.196 344.285 259.101L344.564 259.57L344.966 259.606C346.027 259.711 347.591 259.837 348.496 260.382C347.559 260.811 346.281 259.939 345.517 260.721C341.919 260.166 338.972 259.628 335.278 259.828C333.627 259.84 323.89 260.472 323.23 259.962L323.39 259.541C325.876 258.257 330.178 258.558 332.951 258.495Z"/>
	<defs>
		<linearGradient id="gradient_3" gradientUnits="userSpaceOnUse" x1="158.52567" y1="158.97182" x2="167.47433" y2="164.52818">
			<stop offset="0" stop-color="#0F1413"/>
			<stop offset="1" stop-color="#342D30"/>
		</linearGradient>
	</defs>
	<path fill="url(#gradient_3)" transform="scale(2 2)" d="M159.371 157.071L159.981 157.071C164.581 160.789 175.913 180.325 177.83 186.285C177.427 185.832 177.226 185.267 176.985 184.717C171.971 174.908 164.886 166.52 159.371 157.071Z"/>
	<path fill="#262225" transform="scale(2 2)" d="M154.304 219.075L155.864 219.075C155.044 223.155 154.412 227.045 154.304 231.219C153.649 233.277 152.527 236.898 153.05 238.988C155.611 240.512 151.888 239.906 150.863 239.716L150.711 238.988L150.711 237.949C151.002 235.336 151.769 232.631 152.331 230.051C152.879 226.378 153.503 222.702 154.304 219.075Z"/>
	<defs>
		<linearGradient id="gradient_4" gradientUnits="userSpaceOnUse" x1="331.81308" y1="150.27539" x2="329.35159" y2="146.85608">
			<stop offset="0" stop-color="#14160E"/>
			<stop offset="1" stop-color="#373748"/>
		</linearGradient>
	</defs>
	<path fill="url(#gradient_4)" transform="scale(2 2)" d="M340.399 138.317C340.147 139.5 332.384 147.258 330.973 148.916C324.694 156.293 318.624 167.814 312.87 173.885C317.877 162.619 329.714 145.644 340.399 138.317Z"/>
	<path fill="#333035" transform="scale(2 2)" d="M271.832 175.399C276.463 176.312 278.592 185.2 292.985 184.914C294.961 184.874 297.805 184.307 299.677 184.954L299.802 185.383C299.278 186.231 298.391 186.677 297.568 187.204C288.664 192.256 270.475 187.939 271.832 175.399Z"/>
	<path fill="#333035" transform="scale(2 2)" d="M218.486 181.39C223.923 182.787 219.979 199.228 198.365 196.685C189.438 195.342 204.251 192.849 207.757 191.01C212.496 188.525 214.604 185.166 218.278 181.59L218.486 181.39Z"/>
	<path fill="#D5D0C5" transform="scale(2 2)" d="M318.522 307.285L321.309 314.011C318.048 314.58 315.244 316.465 312.15 317.529C308.282 318.86 289.497 324.457 289.588 316.79C292.501 316.799 294.789 316.27 297.568 315.401C302.807 314.877 313.353 309.313 318.522 307.285Z"/>
	<path fill="#D5D0C5" transform="scale(2 2)" d="M176.985 308.829C179.417 308.036 183.014 310.533 185.204 311.394C195.862 315.585 199.847 315.927 210.987 316.79C204.103 320.904 184.82 310.424 177.654 308.712L177.373 308.829C174.822 316.155 174.534 327.652 174.001 335.322C172.993 349.812 176.123 367.385 188.273 376.685C189.175 377.376 195.275 382.025 195.979 380.539C199.258 373.623 192.328 371.081 192.568 369.75C194.102 370.809 195.618 372.804 196.961 374.17C197.72 369.109 198.745 348.401 200.017 345.272C201.07 346.003 202.013 346.532 203.193 347.033C202.907 349.434 202.506 351.844 202.281 354.249C202.264 355.487 202.26 356.721 202.281 357.959C201.274 364.526 203.066 377.254 203.978 383.811C168.654 377.471 170.907 336.11 176.985 308.829Z"/>
	<path fill="#333035" transform="scale(2 2)" d="M250.903 250.149C254.525 249.128 258.386 250.158 261.905 251.078C261.516 255.875 259.865 259.41 256.217 262.577L256.217 272.404C265.922 271.959 271.376 284.167 268.569 285.891C264.797 284.795 264.461 274.755 254.438 274.565C246.523 276.976 245.507 285.996 241.356 287.555C237.213 286.526 245.908 275.078 252.543 272.404L252.543 263.253C250.573 261.165 248.384 260.083 246.027 258.545C238.779 253.815 245.736 250.669 250.903 250.149Z"/>
	<path fill="#333035" transform="scale(2 2)" d="M147.069 237.114C148.302 237.272 149.524 237.58 150.711 237.949L150.711 238.988L150.863 239.716C151.888 239.906 155.611 240.512 153.05 238.988C155.205 239.199 159.733 241.666 161.326 243.182L161.313 243.464C158.723 242.208 155.804 240.78 153.05 239.964C151.706 246.944 151.001 254.803 151.235 261.906C156.399 261.048 166.864 258.388 171.652 259.101C170.569 260.366 153.919 262.924 151.235 263.253C151.036 268.377 151.356 272.652 153.05 277.503C160.349 273.271 167.848 270.282 175.891 267.736C178.09 267.056 180.472 266.012 182.75 265.732C180.868 266.777 178.983 267.944 176.985 268.748C169.276 270.332 159.547 274.394 153.05 278.884C163.783 301.553 180.849 309.484 205.158 314.604C208.125 315.229 219.303 316.402 210.987 316.79C199.847 315.927 195.862 315.585 185.204 311.394C183.014 310.533 179.417 308.036 176.985 308.829C176.197 308.412 176.153 308.106 175.891 307.285C163.231 300.247 156.508 293.14 150.711 279.819C144.349 285.564 137.854 290.556 133.107 297.807C132.289 299.057 131.555 301.232 130.518 302.176C131.359 295.041 145.226 282.804 150.711 278.884C149.452 275.309 148.473 271.55 148.449 267.736C148.297 266.697 148.409 265.603 148.449 264.557C146.558 264.9 144.689 265.298 142.816 265.732L137.179 267.736C127.415 272.214 121.295 273.99 113.263 282.48L113.204 282.393L112.794 282.938C113.227 274.761 142.248 264.257 148.449 263.253C148.065 257.24 149.184 244.755 150.711 238.988C149.326 238.992 147.683 238.334 146.339 237.949L147.069 237.114Z"/>
	<path fill="#D5D0C5" transform="scale(2 2)" d="M264.731 239.964C267.076 247.205 272.673 254.185 279.515 257.68C281.759 259.238 284.433 260.284 286.934 261.365C287.558 262.055 288.133 262.77 288.939 263.253C293.759 262.143 299.449 264.647 304.654 262.577L304.358 262.368C305.084 262.136 305.807 261.971 306.553 261.814L306.715 261.453C306.115 261.189 305.413 261.536 304.783 261.693L304.654 261.365C306.659 260.823 308.605 259.811 310.57 259.101C314.943 256.256 318.405 252.707 321.309 248.402C324.025 252.837 317.354 265.367 314.725 268.517C302.592 283.054 266.951 269.542 266.552 253.916L266.799 253.457L267.472 253.618C266.647 252.483 265.975 251.433 265.39 250.149C264.347 249.482 264.399 241.295 264.731 239.964Z"/>
	<path fill="#262225" transform="scale(2 2)" d="M311.381 260.721L312.169 260.731C311.137 264.9 293.608 265.117 288.939 263.253C293.759 262.143 299.449 264.647 304.654 262.577C306.934 262.248 309.184 261.404 311.381 260.721Z"/>
	<path fill="#262225" transform="scale(2 2)" d="M265.39 250.149C282.277 270.057 291.115 269.432 312.87 264.557C296.834 271.815 285.806 270.548 271.726 257.745C270.298 256.446 268.981 254.794 267.472 253.618C266.647 252.483 265.975 251.433 265.39 250.149Z"/>
	<path fill="#D5D0C5" transform="scale(2 2)" d="M172.625 260.721C170.37 251.276 170.306 241.694 173.75 232.491C173.928 235.002 174.153 237.53 174.827 239.964C178.485 259.951 199.602 270.934 218.486 263.253C227.072 261.608 230.009 256.085 234.646 250.421L234.872 250.149C235.346 250.038 235.448 249.98 235.811 249.627C238.491 257.051 220.308 276.758 212.348 279.619C208.539 280.989 194.886 284.192 192.606 279.392L192.731 279.214C194.409 279.729 196.624 280.155 198.365 279.819C191.755 278.9 186.194 276.685 180.99 272.404C179.605 271.379 177.863 270.253 176.985 268.748C178.983 267.944 180.868 266.777 182.75 265.732C180.472 266.012 178.09 267.056 175.891 267.736C175.192 265.428 173.982 262.708 172.625 260.721Z"/>
	<path fill="#504B48" transform="scale(2 2)" d="M200.017 278.884C203.882 278.875 207.674 278.649 211.418 277.61L211.391 277.803C208.431 279.631 203.446 280.345 200.017 279.819L199.963 279.644C200.112 279.142 200.096 279.395 200.017 278.884Z"/>
	<path fill="#262225" transform="scale(2 2)" d="M180.99 272.404C182.496 272.263 186.925 275.417 188.601 276.285C191.888 277.988 196.351 278.58 200.017 278.884C200.096 279.395 200.112 279.142 199.963 279.644L200.017 279.819C199.468 279.791 198.915 279.813 198.365 279.819C191.755 278.9 186.194 276.685 180.99 272.404Z"/>
	<path fill="#262225" transform="scale(2 2)" d="M225.637 261.906L225.784 262.071C215.198 270.258 206.01 269.022 194.061 267.736C193.831 267.521 193.626 267.291 193.415 267.058L193.52 266.679C195.825 266.034 198.658 267.161 201.004 267.413C209.939 268.373 217.798 265.825 225.637 261.906Z"/>
	<path fill="#262225" transform="scale(2 2)" d="M173.75 252.695C175.374 253.789 176.574 256.376 177.754 257.967C186.46 269.707 198.409 275.814 213.266 271.509C215.48 270.867 217.627 269.584 219.867 269.156L219.705 269.469C210.359 275.628 198.754 275.545 189.109 269.942C184.25 267.12 175.325 258.531 173.75 252.695Z"/>
	<path fill="#D5D0C5" transform="scale(2 2)" d="M343.105 136.28C343.976 160.502 340.022 180.068 337.819 203.772C332.345 199.075 328.091 192.743 322.837 187.733C318.99 184.065 314.1 181.565 310.57 177.605C311.052 176.527 311.836 174.427 312.87 173.885C318.624 167.814 324.694 156.293 330.973 148.916C332.384 147.258 340.147 139.5 340.399 138.317C340.956 137.51 342.245 136.713 343.105 136.28Z"/>
	<path fill="#D5D0C5" transform="scale(2 2)" d="M155.864 211.982C149.175 197.087 143.096 166.116 142.779 150.771C142.692 146.582 141.322 136.642 146.339 142.04C151.347 146.875 154.737 152.244 159.371 157.071C164.886 166.52 171.971 174.908 176.985 184.717C175.778 185.631 175.999 187.62 175.891 188.993C172.486 192.134 166.418 199.835 164.074 203.772C163.139 204.565 162.064 205.341 161.244 206.247C159.73 208.034 157.826 210.739 155.864 211.982Z"/>
	<path fill="#ECE8E2" transform="scale(2 2)" d="M282.361 330.11C289.189 318.582 294.158 325.565 295.185 335.379C303.841 329.926 307.582 341.144 298.661 345.272L297.568 345.272C297.812 349.159 298.467 352.996 298.661 356.905C298.749 363.313 298.135 369.582 297.568 375.957C294.811 379.806 295.044 391.586 287.008 393.314C271.725 396.602 271.9 360.049 270.126 351.233L270.068 350.957L269.963 352.712C269.954 351.472 270.177 350.277 269.538 349.202L269.345 349.376C269.357 350.502 269.459 351.707 269.215 352.81C268.319 345.123 266.972 332.461 274.115 327.147C277.746 324.445 280.276 326.841 282.361 330.11Z"/>
	<path fill="#262225" transform="scale(2 2)" d="M282.361 330.11C289.189 318.582 294.158 325.565 295.185 335.379C303.841 329.926 307.582 341.144 298.661 345.272L297.568 345.272C298.709 342.69 304.496 343.125 301.974 336.901C299.999 332.028 294.972 336.745 293.199 339.178C295.341 317.555 283.032 327.501 283.232 332.678C283.289 334.17 283.758 335.606 283.772 337.11L283.6 336.776C282.115 333.855 281.492 328.508 278.011 327.238C274.127 325.821 271.125 332.809 270.302 335.491C268.803 340.38 270.285 345.908 270.068 350.957L269.963 352.712C269.954 351.472 270.177 350.277 269.538 349.202L269.345 349.376C269.357 350.502 269.459 351.707 269.215 352.81C268.319 345.123 266.972 332.461 274.115 327.147C277.746 324.445 280.276 326.841 282.361 330.11Z"/>
	<path fill="#262225" transform="scale(2 2)" d="M264.731 239.964C259.13 223.852 266.246 205.341 282.937 199.474C311.536 189.421 336.138 225.755 321.309 248.402C318.405 252.707 314.943 256.256 310.57 259.101C308.605 259.811 306.659 260.823 304.654 261.365L304.783 261.693C305.413 261.536 306.115 261.189 306.715 261.453L306.553 261.814C305.807 261.971 305.084 262.136 304.358 262.368L304.654 262.577C299.449 264.647 293.759 262.143 288.939 263.253C288.133 262.77 287.558 262.055 286.934 261.365C284.433 260.284 281.759 259.238 279.515 257.68C272.673 254.185 267.076 247.205 264.731 239.964Z"/>
	<path fill="#7A7A91" transform="scale(2 2)" d="M287.76 261.365C293.387 262.12 299.021 262.034 304.654 261.365L304.783 261.693C305.413 261.536 306.115 261.189 306.715 261.453L306.553 261.814C305.807 261.971 305.084 262.136 304.358 262.368L304.654 262.577C299.449 264.647 293.759 262.143 288.939 263.253C288.133 262.77 287.558 262.055 286.934 261.365L287.76 261.365Z"/>
	<path fill="#FEFEFE" transform="scale(2 2)" d="M280.525 256.615C256.131 242.089 259.877 205.853 285.655 199.605C312.21 193.169 334.366 225.654 319.892 248.412C313.269 258.826 300.742 263.413 288.939 259.828C285.932 259.051 283.32 257.964 280.525 256.615Z"/>
	<path fill="#333035" transform="scale(2 2)" d="M276.106 219.075C289.522 219.18 293.953 237.892 282.361 243.865C269.247 246.104 264.015 223.793 276.106 219.075Z"/>
	<path fill="#FEFEFE" transform="scale(2 2)" d="M278.641 224.473C282.108 224.747 280.508 227.26 278.641 228.597C275.161 227.844 276.373 225.688 278.641 224.473Z"/>
	<path fill="#FEFEFE" transform="scale(2 2)" d="M203.193 201.018C206.034 200.835 208.845 200.703 211.684 201.018C228.451 203.605 238.048 217.371 238.878 233.57L238.878 234.514C238.644 240.306 237.567 244.998 234.872 250.149L234.646 250.421C230.009 256.085 227.072 261.608 218.486 263.253C199.602 270.934 178.485 259.951 174.827 239.964C174.153 237.53 173.928 235.002 173.75 232.491L174.827 227.753C178.234 214.047 189.149 203.448 203.193 201.018Z"/>
	<defs>
		<linearGradient id="gradient_5" gradientUnits="userSpaceOnUse" x1="227.37978" y1="247.73001" x2="232.86111" y2="252.10927">
			<stop offset="0" stop-color="#0E0D15"/>
			<stop offset="1" stop-color="#34394A"/>
		</linearGradient>
	</defs>
	<path fill="url(#gradient_5)" transform="scale(2 2)" d="M238.878 234.514C238.644 240.306 237.567 244.998 234.872 250.149L234.646 250.421C230.009 256.085 227.072 261.608 218.486 263.253L217.174 262.577C229.079 257.815 237.044 247.711 237.231 234.514C237.804 234.41 238.302 234.47 238.878 234.514Z"/>
	<path fill="#262225" transform="scale(2 2)" d="M203.193 201.018C206.034 200.835 208.845 200.703 211.684 201.018C228.451 203.605 238.048 217.371 238.878 233.57L238.878 234.514C238.302 234.47 237.804 234.41 237.231 234.514L237.231 233.57C237.635 218.078 226.811 203.649 210.987 201.88C208.666 201.69 206.299 201.701 203.978 201.88C189.732 203.543 178.886 214.906 175.891 228.597C175.147 232.352 175.064 235.237 175.891 238.988C177.803 257.99 200.056 269.276 217.174 262.577L218.486 263.253C199.602 270.934 178.485 259.951 174.827 239.964C174.153 237.53 173.928 235.002 173.75 232.491L174.827 227.753C178.234 214.047 189.149 203.448 203.193 201.018Z"/>
	<path fill="#333035" transform="scale(2 2)" d="M217.992 219.075C231.534 219.166 233.092 242.422 219.705 245.125C204.56 246.539 204.426 220.839 217.992 219.075Z"/>
	<path fill="#FEFEFE" transform="scale(2 2)" d="M221.751 225.168C224.78 225.519 225.241 227.185 223.477 229.414C220.05 229.499 219.874 227.377 221.751 225.168Z"/>
</svg>
